<svg width="62" height="62" viewBox="0 0 62 62" fill="none" xmlns="http://www.w3.org/2000/svg">
<path fill-rule="evenodd" clip-rule="evenodd" d="M0.9375 31C0.9375 14.3969 14.3969 0.9375 31 0.9375C47.6031 0.9375 61.0625 14.3969 61.0625 31C61.0625 47.6031 47.6031 61.0625 31 61.0625C14.3969 61.0625 0.9375 47.6031 0.9375 31ZM42.1318 25.4066C42.8741 24.3673 42.6334 22.9231 41.5941 22.1807C40.5548 21.4384 39.1106 21.6791 38.3682 22.7184L28.3924 36.6845L23.3852 31.6773C22.4821 30.7742 21.0179 30.7742 20.1148 31.6773C19.2117 32.5804 19.2117 34.0446 20.1148 34.9477L27.0523 41.8852C27.533 42.3659 28.2008 42.6107 28.8782 42.5546C29.5557 42.4986 30.1742 42.1473 30.5693 41.5941L42.1318 25.4066Z" fill="#5465FF"/>
</svg>
