<svg width="21" height="20" viewBox="0 0 21 20" fill="none" xmlns="http://www.w3.org/2000/svg">
<path fill-rule="evenodd" clip-rule="evenodd" d="M2.25 10C2.25 5.51269 5.88769 1.875 10.375 1.875C14.8623 1.875 18.5 5.51269 18.5 10C18.5 14.4873 14.8623 18.125 10.375 18.125C5.88769 18.125 2.25 14.4873 2.25 10ZM13.3836 8.48827C13.5842 8.20739 13.5192 7.81705 13.2383 7.61642C12.9574 7.41579 12.567 7.48084 12.3664 7.76173L9.67025 11.5364L8.31694 10.1831C8.07286 9.93898 7.67714 9.93898 7.43306 10.1831C7.18898 10.4271 7.18898 10.8229 7.43306 11.0669L9.30806 12.9419C9.43797 13.0719 9.61846 13.138 9.80155 13.1229C9.98464 13.1077 10.1518 13.0128 10.2586 12.8633L13.3836 8.48827Z" fill="#89E382"/>
</svg>
