<svg width="20" height="26" viewBox="0 0 20 26" fill="none" xmlns="http://www.w3.org/2000/svg">
<path d="M19.707 6.793L13.207 0.293C13.019 0.105 12.765 0 12.5 0H2C0.895 0 0 0.895 0 2V24C0 25.105 0.895 26 2 26H18C19.105 26 20 25.105 20 24V7.5C20 7.235 19.895 6.981 19.707 6.793ZM13 19H5C4.448 19 4 18.552 4 18C4 17.448 4.448 17 5 17H13C13.552 17 14 17.448 14 18C14 18.552 13.552 19 13 19ZM15 15H5C4.448 15 4 14.552 4 14C4 13.448 4.448 13 5 13H15C15.552 13 16 13.448 16 14C16 14.552 15.552 15 15 15ZM13 8C12.448 8 12 7.552 12 7V1.904L18.096 8H13Z" fill="#5389FF"/>
</svg>
