<svg width="20" height="20" viewBox="0 0 20 20" fill="none" xmlns="http://www.w3.org/2000/svg">
<path fill-rule="evenodd" clip-rule="evenodd" d="M0.400097 10.0004C0.400097 15.3023 4.69816 19.6004 10.0001 19.6004C15.302 19.6004 19.6001 15.3023 19.6001 10.0004C19.6001 4.69846 15.302 0.400391 10.0001 0.400391C4.69816 0.400391 0.400097 4.69846 0.400097 10.0004ZM10.9001 6.10039C10.9001 5.60333 10.4972 5.20039 10.0001 5.20039C9.50304 5.20039 9.1001 5.60333 9.1001 6.10039V11.6085L6.75961 9.08798C6.42139 8.72375 5.85193 8.70265 5.48769 9.04088C5.12345 9.3791 5.10236 9.94856 5.44058 10.3128L9.34058 14.5128C9.51087 14.6962 9.74984 14.8004 10.0001 14.8004C10.2504 14.8004 10.4893 14.6962 10.6596 14.5128L14.5596 10.3128C14.8978 9.94856 14.8767 9.3791 14.5125 9.04088C14.1483 8.70265 13.5788 8.72375 13.2406 9.08798L10.9001 11.6085V6.10039Z" fill="#5389FF"/>
</svg>
