<svg width="12" height="18" viewBox="0 0 12 18" fill="none" xmlns="http://www.w3.org/2000/svg">
<path fill-rule="evenodd" clip-rule="evenodd" d="M9.75 6H6.75L6.75 2.6599L8.7004 4.76034C8.98225 5.06387 9.4568 5.08145 9.76034 4.7996C10.0639 4.51774 10.0814 4.04319 9.79959 3.73966L6.54959 0.239661C6.40768 0.0868365 6.20855 0 6 0C5.79145 0 5.59231 0.0868364 5.4504 0.239661L2.2004 3.73966C1.91855 4.04319 1.93613 4.51774 2.23966 4.79959C2.54319 5.08145 3.01774 5.06387 3.29959 4.76034L5.25 2.6599L5.25 6H2.25C1.00736 6 0 7.00736 0 8.25V15.75C0 16.9926 1.00736 18 2.25 18H9.75C10.9926 18 12 16.9926 12 15.75V8.25C12 7.00736 10.9926 6 9.75 6ZM6.75 6H5.25L5.25 11.25C5.25 11.6642 5.58579 12 6 12C6.41421 12 6.75 11.6642 6.75 11.25L6.75 6Z" fill="#5389FF"/>
</svg>
