<svg width="18" height="18" viewBox="0 0 18 18" fill="none" xmlns="http://www.w3.org/2000/svg">
<path d="M3 9C2.58579 9 2.25 8.66421 2.25 8.25L2.25002 0.749999C2.25002 0.335785 2.5858 -6.70518e-07 3.00002 0C3.41423 6.70587e-07 3.75002 0.335788 3.75002 0.750002L3.75 8.25C3.75 8.66422 3.41421 9 3 9Z" fill="#5389FF"/>
<path d="M15 9C14.5858 9 14.25 8.66421 14.25 8.25L14.25 0.749999C14.25 0.335785 14.5858 -6.70518e-07 15 0C15.4142 6.70587e-07 15.75 0.335788 15.75 0.750002L15.75 8.25C15.75 8.66422 15.4142 9 15 9Z" fill="#5389FF"/>
<path d="M3.75001 17.25L3.75 15.75C3.75 15.3358 3.41421 15 2.99999 15C2.58578 15 2.25 15.3358 2.25 15.75L2.25001 17.25C2.25002 17.6642 2.58581 18 3.00002 18C3.41424 18 3.75002 17.6642 3.75001 17.25Z" fill="#5389FF"/>
<path d="M15.75 15.75L15.75 17.25C15.75 17.6642 15.4142 18 15 18C14.5858 18 14.25 17.6642 14.25 17.25L14.25 15.75C14.25 15.3358 14.5858 15 15 15C15.4142 15 15.75 15.3358 15.75 15.75Z" fill="#5389FF"/>
<path d="M9.75001 2.24999L9.75 0.749993C9.75 0.335779 9.41421 -3.93387e-06 8.99999 0C8.58578 3.97864e-06 8.25 0.335794 8.25 0.750007L8.25001 2.25001C8.25002 2.66422 8.58581 3 9.00002 3C9.41424 3 9.75002 2.66421 9.75001 2.24999Z" fill="#5389FF"/>
<path d="M9 18C8.58579 18 8.25 17.6642 8.25 17.25V9.75C8.25 9.33579 8.58579 9 9 9C9.41421 9 9.75 9.33579 9.75 9.75V17.25C9.75 17.6642 9.41421 18 9 18Z" fill="#5389FF"/>
<path d="M0.75 12C0.75 13.2426 1.75736 14.25 3 14.25C4.24264 14.25 5.25 13.2426 5.25 12C5.25 10.7574 4.24264 9.75 3 9.75C1.75736 9.75 0.75 10.7574 0.75 12Z" fill="#5389FF"/>
<path d="M9 8.25C7.75736 8.25 6.75 7.24264 6.75 6C6.75 4.75736 7.75736 3.75 9 3.75C10.2426 3.75 11.25 4.75736 11.25 6C11.25 7.24264 10.2426 8.25 9 8.25Z" fill="#5389FF"/>
<path d="M12.75 12C12.75 13.2426 13.7574 14.25 15 14.25C16.2426 14.25 17.25 13.2426 17.25 12C17.25 10.7574 16.2426 9.75 15 9.75C13.7574 9.75 12.75 10.7574 12.75 12Z" fill="#5389FF"/>
</svg>
