<svg width="173" height="174" viewBox="0 0 173 174" fill="none" xmlns="http://www.w3.org/2000/svg">
<path d="M108.514 44.8424C112.993 44.8425 116.624 48.4723 116.624 52.9499C116.624 56.0117 114.927 58.6779 112.421 60.0575C113.763 62.1425 114.802 64.4593 115.467 66.9533L124.118 99.3851C128.237 114.827 116.595 129.976 100.608 129.976H96.212C92.8525 129.976 90.1291 127.254 90.1291 123.895C90.1291 121.544 91.4636 119.505 93.4168 118.493C93.9842 118.199 94.604 117.992 95.2582 117.889C100.18 115.869 103.646 111.03 103.646 105.382V98.8954C103.646 98.1492 103.041 97.5444 102.295 97.5443H98.2125C98.0873 96.9276 97.5417 96.4632 96.8878 96.4631H94.1838C93.4375 96.4633 92.8324 97.0682 92.8322 97.8142V99.7068C92.8324 100.453 93.4375 101.058 94.1838 101.058H96.8878C97.4421 101.058 97.9181 100.724 98.1267 100.247H100.943V105.382C100.943 111.352 96.1015 116.192 90.1291 116.193H87.4251C81.4525 116.193 76.6108 111.353 76.6108 105.382V100.247H79.4265C79.6352 100.724 80.1121 101.058 80.6664 101.058H83.3695C84.1159 101.058 84.7217 100.453 84.7219 99.7068V97.8142C84.7218 97.068 84.1159 96.4631 83.3695 96.4631H80.6664C80.0124 96.4631 79.4669 96.9275 79.3416 97.5443H75.2592C74.5127 97.5443 73.9078 98.1492 73.9077 98.8954V105.382C73.9077 111.03 77.3737 115.869 82.2959 117.889C82.9502 117.992 83.5699 118.199 84.1373 118.493C86.0906 119.505 87.4251 121.544 87.4251 123.895C87.425 127.254 84.7017 129.976 81.3421 129.976H77.4359C61.4489 129.976 49.8057 114.827 53.9248 99.3851L62.5767 66.9533C63.2218 64.5349 64.2178 62.2832 65.5015 60.2478C62.7956 58.9338 60.9302 56.1592 60.9302 52.9499C60.9304 48.4722 64.562 44.8424 69.0413 44.8424C72.7464 44.8424 75.8709 47.326 76.8405 50.7186C77.9882 50.2469 79.1776 49.861 80.3991 49.5677L87.4429 45.2758C88.0804 44.8873 88.9118 45.0889 89.3005 45.7262L90.0987 47.0344L92.5408 45.7145C93.1975 45.3596 94.0182 45.604 94.3733 46.2605L95.9787 49.229C97.631 49.5051 99.2334 49.9491 100.765 50.5444C101.791 47.2412 104.872 44.8424 108.514 44.8424ZM87.9659 88.3073C88.001 88.3105 88.0362 88.3125 88.0714 88.3154C87.8971 88.3012 87.724 88.2833 87.552 88.2618C87.6893 88.279 87.8272 88.2948 87.9659 88.3073ZM90.0227 88.3154C90.0581 88.3125 90.0938 88.3105 90.1291 88.3073C90.2677 88.2948 90.4058 88.279 90.543 88.2618C90.3708 88.2834 90.1971 88.3012 90.0227 88.3154ZM89.0475 64.5719C82.4776 64.5719 77.1516 69.8961 77.1516 76.4637C77.1517 82.1898 81.2003 86.9698 86.592 88.1009C87.2053 87.6466 87.6868 87.0237 87.9659 86.3003C88.1404 85.8479 88.2358 85.356 88.2358 84.842C88.2358 84.3281 88.1404 83.8361 87.9659 83.3837C87.9603 83.3693 87.9546 83.3542 87.9489 83.3399C87.9434 83.326 87.9376 83.3117 87.9319 83.2979C87.9176 83.2631 87.9025 83.2285 87.8872 83.1942C87.8827 83.1842 87.8784 83.1739 87.8738 83.1639L87.8693 83.1558L87.8675 83.1513L87.8649 83.146L87.8613 83.1379L87.8577 83.129C87.8076 83.0218 87.7522 82.9163 87.6932 82.8145C87.6585 82.7544 87.6219 82.6956 87.5842 82.6375C87.5475 82.5811 87.51 82.5249 87.4707 82.4704C87.302 82.2371 87.1093 82.0221 86.8959 81.8297L84.1937 78.821C83.8456 78.3502 83.6404 77.767 83.6403 77.1366C83.6405 75.5707 84.9102 74.3013 86.4767 74.3013C87.6139 74.3013 88.5952 74.9707 89.0475 75.9365C89.4997 74.9708 90.4804 74.3014 91.6174 74.3013C93.184 74.3013 94.4546 75.5714 94.4546 77.1375C94.4545 77.7677 94.2484 78.3503 93.9004 78.821L91.1928 81.836C90.9845 82.0245 90.7951 82.2346 90.6297 82.4624C90.4794 82.6693 90.3485 82.8916 90.239 83.1254C90.1995 83.2099 90.1628 83.2962 90.1291 83.3837C89.9545 83.8362 89.8582 84.328 89.8582 84.842C89.8583 85.356 89.9545 85.8479 90.1291 86.3003C90.4082 87.0236 90.8888 87.6466 91.5021 88.1009C96.894 86.97 100.943 82.1899 100.943 76.4637C100.943 69.8962 95.6172 64.572 89.0475 64.5719Z" fill="#005BFF"/>
<path d="M20.6833 52.7683C21.1721 53.1335 21.2339 53.5604 20.8686 54.049L19.9781 55.2401C19.6128 55.7287 19.1857 55.7904 18.6969 55.4252L7.51559 47.0716C7.02679 46.7064 6.96504 46.2795 7.33036 45.7909L8.2208 44.5998C8.33953 44.441 8.45375 44.3264 8.56347 44.2561C8.66098 44.1766 8.79212 44.1413 8.95689 44.1502L16.7151 44.5488L14.4522 37.9461C14.3817 37.7602 14.3418 37.5971 14.3324 37.4568C14.3199 37.2951 14.3867 37.1166 14.5328 36.9211L15.4233 35.7301C15.7886 35.2415 16.2157 35.1797 16.7045 35.5449L27.8858 43.8986C28.3746 44.2638 28.4363 44.6907 28.071 45.1793L27.1806 46.3704C26.8153 46.859 26.3882 46.9207 25.8994 46.5555L18.824 41.2695L20.4568 46.002C20.515 46.1788 20.5351 46.3175 20.517 46.4182C20.4866 46.5098 20.4395 46.5983 20.3755 46.6838L19.6769 47.6183C19.6129 47.7039 19.5307 47.7757 19.4301 47.8338C19.3386 47.8797 19.2044 47.8937 19.0274 47.8757L13.7545 47.5918L20.6833 52.7683Z" fill="#005BFF"/>
<path d="M39.2745 31.803C39.6452 32.2876 39.5881 32.7151 39.1034 33.0857L37.9219 33.989C37.5947 34.2391 37.2931 34.2968 37.0173 34.1621C36.956 34.1322 36.8961 34.0916 36.8376 34.0403C36.7699 33.9769 36.7036 33.9028 36.6387 33.818L33.9697 30.3291L24.9567 26.3048C24.5368 26.1074 24.3137 25.9036 24.2873 25.6934C24.2516 25.4711 24.3757 25.1938 24.6594 24.8618L25.4111 23.9991C25.58 23.7932 25.7283 23.6606 25.8559 23.6015C25.9863 23.521 26.1464 23.5042 26.336 23.5512C26.4308 23.5747 26.5395 23.6164 26.6621 23.6763C26.7876 23.7148 26.9376 23.7728 27.1123 23.8505L32.7646 26.2683L31.3423 20.0408C31.3102 19.8733 31.2799 19.7333 31.2514 19.6207C31.235 19.4989 31.2339 19.3845 31.2482 19.2776C31.2432 19.0702 31.292 18.9081 31.3946 18.7912C31.5094 18.6651 31.6883 18.5475 31.9314 18.4385L33.0798 17.9061C33.4747 17.7194 33.7688 17.677 33.962 17.7789C34.1459 17.8687 34.2902 18.1327 34.395 18.571L36.7862 28.5503L39.2745 31.803Z" fill="#005BFF"/>
<path d="M71.77 17.9321L70.3266 18.2915C69.7345 18.4389 69.3647 18.2167 69.2172 17.6247L67.818 12.0087L62.2775 13.8125L63.4665 18.585C63.6139 19.1769 63.3916 19.5466 62.7995 19.694L61.3561 20.0534C60.764 20.2008 60.3942 19.9785 60.2467 19.3866L56.8732 5.84597C56.7257 5.25403 56.9481 4.88435 57.5402 4.73692L58.9836 4.37758C59.5757 4.23015 59.9455 4.45241 60.093 5.04435L61.4756 10.5938L67.0162 8.79001L65.8437 4.08409C65.6963 3.49215 65.9186 3.12247 66.5107 2.97505L67.9541 2.6157C68.5462 2.46828 68.916 2.69054 69.0635 3.28247L72.437 16.8231C72.5844 17.415 72.3621 17.7847 71.77 17.9321Z" fill="#005BFF"/>
<path d="M82.5305 15.32C81.9051 15.3122 81.6038 15.0034 81.6266 14.3937L82.2527 0.903678C82.2756 0.293895 82.5845 -0.00728664 83.1794 0.000133821L91.0736 0.0985976C91.6838 0.106208 91.9851 0.415 91.9775 1.02497L91.9601 2.42029C91.9527 3.01502 91.6515 3.30867 91.0566 3.30125L85.359 3.23018L85.208 6.15663L90.0859 5.89719C90.6966 5.85905 90.9979 6.16784 90.9897 6.82356L90.9723 8.21888C90.9654 8.76786 90.6643 9.06151 90.0688 9.09984L85.0763 9.38073L84.9273 12.1471L90.9223 12.2218C91.5325 12.2294 91.8338 12.5382 91.8262 13.1482L91.8088 14.5435C91.8013 15.1383 91.5002 15.4319 90.9052 15.4245L82.5305 15.32Z" fill="#005BFF"/>
<path d="M109.831 12.4684L108.984 7.15094L106.215 11.4617L109.831 12.4684ZM103.104 16.3184C102.831 16.7329 102.576 16.9629 102.342 17.0085C102.122 17.0581 101.832 16.993 101.47 16.8132L100.243 16.1866C99.8561 15.9839 99.6505 15.7841 99.6261 15.5874C99.6206 15.38 99.7392 15.0964 99.982 14.7366L107.853 2.94149C108.092 2.59634 108.299 2.39281 108.475 2.33089C108.65 2.26898 108.878 2.27689 109.157 2.35464L111.053 2.88252C111.244 2.93572 111.37 2.99458 111.431 3.05912C111.496 3.10896 111.533 3.20613 111.54 3.35063C111.566 3.48453 111.601 3.70007 111.645 3.99725L114.179 18.2622C114.259 18.712 114.222 19.0181 114.066 19.1805C113.924 19.3469 113.637 19.4096 113.205 19.3685L111.954 19.2574C111.522 19.2162 111.225 19.1177 111.062 18.9616C110.91 18.8244 110.79 18.49 110.7 17.9585L110.32 15.5729L104.61 13.9831L103.104 16.3184Z" fill="#005BFF"/>
<path d="M129.465 26.3944L122.989 22.2284C122.458 21.9278 122.339 21.5187 122.632 21.0012L129.072 9.63527C129.372 9.10447 129.788 8.98938 130.319 9.29L131.614 10.0228C132.145 10.3234 132.26 10.7391 131.959 11.2699L126.591 20.7448L131.024 23.5964C131.282 23.76 131.44 23.9457 131.497 24.1535C131.563 24.3481 131.52 24.5781 131.37 24.8435L130.682 26.0577C130.381 26.5885 129.976 26.7008 129.465 26.3944Z" fill="#005BFF"/>
<path d="M141.681 34.5604C141.267 35.0087 140.836 35.026 140.388 34.6122L139.295 33.6038C138.846 33.1901 138.829 32.7591 139.243 32.3108L146.692 24.2415L143.716 21.4955C143.278 21.0921 143.261 20.6719 143.665 20.2348L144.767 19.0412C145.181 18.5929 145.612 18.5756 146.06 18.9893L154.401 26.6844C154.85 27.0981 154.867 27.5291 154.453 27.9774L153.351 29.171C152.948 29.6081 152.528 29.6249 152.09 29.2215L149.131 26.491L141.681 34.5604Z" fill="#005BFF"/>
<path d="M156.333 54.592L155.547 53.3293C155.225 52.8112 155.323 52.3912 155.841 52.0691L160.758 49.0131L157.339 44.2961L153.161 46.8931C152.643 47.2152 152.222 47.1172 151.9 46.5991L151.115 45.3364C150.793 44.8184 150.891 44.3983 151.409 44.0762L163.263 36.708C163.782 36.3859 164.202 36.4839 164.524 37.0019L165.309 38.2647C165.632 38.7827 165.534 39.2028 165.015 39.5249L160.157 42.5446L163.576 47.2616L167.696 44.7009C168.214 44.3788 168.634 44.4768 168.956 44.9948L169.742 46.2576C170.064 46.7756 169.966 47.1957 169.448 47.5178L157.593 54.8859C157.075 55.2081 156.655 55.1101 156.333 54.592Z" fill="#005BFF"/>
<path d="M10.8352 128.126L9.97818 126.911C9.62219 126.406 9.69393 125.992 10.1989 125.636L21.608 117.596C22.113 117.24 22.5276 117.312 22.8836 117.817L24.9668 120.771C27.2082 123.949 27.5789 127.214 24.0814 129.679C20.9018 131.92 17.7356 130.289 15.3268 127.508L14.5609 126.62L12.1107 128.347C11.6057 128.703 11.1912 128.631 10.8352 128.126ZM22.214 122.823L21.4625 121.757L17.3664 124.643L18.1851 125.606C19.3444 126.972 20.9164 127.851 22.1696 126.968C23.7033 125.887 23.2292 124.262 22.214 122.823Z" fill="#005BFF"/>
<path d="M26.0061 146.566C25.1738 147.131 24.8342 147.006 24.3084 146.381L23.4249 145.324C22.8777 144.653 23.024 144.36 23.7527 143.888L35.6158 136.116C36.3302 135.662 36.5804 135.715 37.0453 136.086L38.5829 137.314C39.0477 137.685 38.8869 137.703 38.691 138.572L35.4347 152.689C35.2245 153.576 34.8672 153.729 34.1057 153.326L32.9974 152.734C32.218 152.317 32.0963 152.102 32.3529 151.048L32.9373 148.704L28.3065 145.006L26.0061 146.566ZM33.7035 145.656L35.0077 140.432L30.7713 143.315L33.7035 145.656Z" fill="#005BFF"/>
<path d="M53.0677 160.824C53.9574 158.691 47.8257 155.738 49.5699 151.558C50.5741 149.151 52.9086 148.191 55.7387 149.371C56.9425 149.873 58.2958 150.908 58.9696 151.908C59.3021 152.418 59.2897 152.686 58.8759 153.083L57.7472 154.124C57.3897 154.446 57.1134 154.455 56.6946 154.033C56.0418 153.339 55.2446 152.635 54.5054 152.327C53.7029 151.992 52.9847 151.99 52.7204 152.623C51.8923 154.608 57.9272 157.793 56.2623 161.784C55.1523 164.444 52.7087 165.309 49.7519 164.076C48.189 163.424 46.5208 162.134 45.6535 160.707C45.3298 160.175 45.2823 159.932 45.7472 159.531L46.8882 158.52C47.2756 158.186 47.5485 158.126 47.9408 158.612C48.8839 159.798 50.1404 160.768 51.1119 161.173C51.999 161.543 52.7418 161.605 53.0677 160.824Z" fill="#005BFF"/>
<path d="M74.4185 167.71C74.7337 165.421 68.0507 164.132 68.6684 159.645C69.0241 157.062 71.0358 155.537 74.0735 155.955C75.3657 156.133 76.9387 156.788 77.8456 157.583C78.2976 157.991 78.3539 158.253 78.0555 158.743L77.2304 160.038C76.9671 160.441 76.7021 160.52 76.1892 160.218C75.3808 159.714 74.4302 159.237 73.6367 159.128C72.7752 159.01 72.0804 159.191 71.9868 159.871C71.6935 162.001 78.3422 163.539 77.7525 167.823C77.3593 170.678 75.2179 172.138 72.0442 171.702C70.3666 171.471 68.4239 170.649 67.2205 169.491C66.7717 169.06 66.6637 168.837 67.0107 168.331L67.8553 167.061C68.1444 166.639 68.3929 166.512 68.8965 166.881C70.1115 167.787 71.5742 168.404 72.617 168.548C73.5691 168.679 74.3031 168.549 74.4185 167.71Z" fill="#005BFF"/>
<path d="M93.3627 173.788L91.8883 173.985C91.2759 174.067 90.9417 173.812 90.8599 173.199L89.0123 159.368C88.9305 158.756 89.186 158.421 89.7984 158.34L93.3822 157.861C97.2382 157.347 100.305 158.53 100.872 162.77C101.386 166.624 98.4744 168.675 94.8937 169.522L93.752 169.79L94.1488 172.76C94.2306 173.372 93.9751 173.707 93.3627 173.788ZM93.9273 161.25L92.6344 161.423L93.2977 166.389L94.5301 166.109C96.2781 165.714 97.7855 164.728 97.5826 163.209C97.3342 161.35 95.6738 161.017 93.9273 161.25Z" fill="#005BFF"/>
<path d="M122.441 167.465C118.172 169.409 114.033 167.774 111.975 163.256C109.935 158.78 111.4 154.544 115.711 152.582C119.959 150.647 124.097 152.333 126.178 156.79C128.194 161.327 126.711 165.521 122.441 167.465ZM121.06 164.323C123.705 163.119 124.254 160.682 123.158 158.165C121.997 155.727 119.758 154.51 117.113 155.714C114.426 156.937 113.875 159.425 114.994 161.882C116.133 164.38 118.353 165.556 121.06 164.323Z" fill="#005BFF"/>
<path d="M149.74 151.524C149.263 152.192 149.103 152.151 148.054 151.797L143.506 150.3C143.193 150.67 142.832 151.022 142.421 151.387L141.515 152.192L143.766 154.722C144.176 155.184 144.152 155.604 143.69 156.014L142.578 157.002C142.117 157.413 141.697 157.388 141.286 156.926L132.314 146.841C131.903 146.379 131.928 145.96 132.39 145.549L135.091 143.147C138.323 140.274 141.339 139.981 143.818 142.767C145.202 144.323 145.611 145.918 145.142 147.56L149.937 149.267C150.714 149.555 150.851 149.984 150.34 150.684L149.74 151.524ZM137.441 145.651L136.466 146.517L139.234 149.628L140.209 148.762C141.97 147.196 142.205 145.946 141.338 144.971C140.472 143.997 139.202 144.085 137.441 145.651Z" fill="#005BFF"/>
<path d="M164.316 134.019C164.816 134.381 164.882 134.797 164.519 135.297L163.646 136.5C163.283 137 162.867 137.066 162.367 136.703L153.477 130.254L151.098 133.531C150.749 134.013 150.333 134.079 149.852 133.73L148.537 132.776C148.037 132.413 147.971 131.998 148.334 131.498L155 122.314C155.363 121.814 155.778 121.748 156.278 122.111L157.593 123.065C158.075 123.414 158.141 123.83 157.791 124.311L155.426 127.57L164.316 134.019Z" fill="#005BFF"/>
<path d="M8.23809 86.4764C8.23809 88.7505 6.39393 90.594 4.11905 90.594C1.84416 90.594 0 88.7505 0 86.4764C0 84.2023 1.84416 82.3587 4.11905 82.3587C6.39393 82.3587 8.23809 84.2023 8.23809 86.4764Z" fill="#005BFF"/>
<path d="M173 86.4764C173 88.7505 171.156 90.594 168.881 90.594C166.606 90.594 164.762 88.7505 164.762 86.4764C164.762 84.2023 166.606 82.3587 168.881 82.3587C171.156 82.3587 173 84.2023 173 86.4764Z" fill="#005BFF"/>
</svg>
