<svg width="99" height="118" viewBox="0 0 99 118" fill="none" xmlns="http://www.w3.org/2000/svg">
<path d="M59.337 117.277H38.9854C39.0245 117.277 39.0636 117.275 39.1026 117.274H59.2198C59.2588 117.275 59.2978 117.277 59.337 117.277ZM76.1758 0.71875C82.3063 0.718988 87.2755 5.68884 87.2755 11.8193C87.2754 16.0113 84.952 19.66 81.5225 21.5488C83.3598 24.4035 84.7819 27.5755 85.6924 30.9902L97.5333 75.3916C103.171 96.533 87.2357 117.274 65.3555 117.274H59.2198C54.6758 117.212 51.0118 113.511 51.0118 108.952C51.0118 105.733 52.8385 102.941 55.5118 101.556C56.2882 101.153 57.136 100.87 58.0313 100.729C64.7681 97.9636 69.5127 91.3385 69.5128 83.6055V74.7246C69.5127 73.7029 68.6839 72.875 67.6622 72.875H62.0753C61.9038 72.0305 61.1569 71.3945 60.2618 71.3945H56.5616C55.5399 71.3947 54.712 72.2234 54.712 73.2451V75.835C54.712 76.8566 55.5399 77.6844 56.5616 77.6846H60.2618C61.0203 77.6846 61.6725 77.2285 61.9581 76.5752H65.8126V83.6055C65.8125 91.7797 59.186 98.4061 51.0118 98.4062H47.3116C39.1372 98.4062 32.5099 91.7798 32.5098 83.6055V76.5752H36.3643C36.6499 77.2285 37.302 77.6846 38.0606 77.6846H41.7608C42.7826 77.6846 43.6113 76.8567 43.6114 75.835V73.2451C43.6114 72.2233 42.7826 71.3945 41.7608 71.3945H38.0606C37.1655 71.3945 36.4185 72.0305 36.2471 72.875H30.6602C29.6385 72.875 28.8097 73.7029 28.8096 74.7246V83.6055C28.8097 91.3385 33.5543 97.9636 40.2911 100.729C41.1865 100.87 42.035 101.153 42.8116 101.556C45.4847 102.941 47.3116 105.733 47.3116 108.952C47.3116 113.511 43.6467 117.212 39.1026 117.274H33.6417C11.7615 117.274 -4.1728 96.533 1.4649 75.3916L13.3047 30.9902C14.1877 27.6791 15.5516 24.5963 17.3087 21.8096C13.6053 20.0105 11.0528 16.2132 11.0528 11.8193C11.0528 5.68884 16.022 0.719004 22.1524 0.71875C27.2235 0.71875 31.5014 4.1195 32.8282 8.76465C34.399 8.11883 36.0265 7.59003 37.6983 7.18848L47.338 1.31152C48.2103 0.779969 49.3481 1.05641 49.8799 1.92871L50.9727 3.71973L54.3145 1.91211C55.2133 1.42615 56.3364 1.76134 56.8223 2.66016L59.0206 6.72461C61.2817 7.10262 63.4746 7.71046 65.5714 8.52539C66.9746 4.00309 71.1921 0.71875 76.1758 0.71875ZM48.0518 60.2285C48.1 60.2329 48.149 60.2353 48.1973 60.2393C48.1093 60.2321 48.0213 60.2233 47.9337 60.2148C47.9731 60.2187 48.0123 60.225 48.0518 60.2285ZM50.8672 60.2393C50.9157 60.2353 50.9644 60.2329 51.0128 60.2285C51.0519 60.225 51.0908 60.2187 51.1299 60.2148C51.0425 60.2233 50.955 60.2321 50.8672 60.2393ZM51.1299 60.2148C51.2802 60.2003 51.4301 60.1847 51.5792 60.166C51.4301 60.1847 51.2802 60.2 51.1299 60.2148ZM49.5323 27.7314C40.5406 27.7315 33.2512 35.021 33.251 44.0127C33.251 51.8527 38.7932 58.3979 46.1729 59.9463C47.0123 59.3243 47.6698 58.4708 48.0518 57.4805C48.2908 56.8609 48.4219 56.1872 48.4219 55.4834C48.4219 54.7798 48.2907 54.1067 48.0518 53.4873C48.0442 53.4676 48.0372 53.4473 48.0294 53.4277C48.0218 53.4088 48.0137 53.3899 48.0059 53.3711C47.9863 53.3234 47.9653 53.2755 47.9444 53.2285C47.9381 53.2145 47.9322 53.1995 47.9258 53.1855L47.921 53.1758L47.918 53.1689L47.9141 53.1621L47.9092 53.1504L47.9034 53.1387C47.8349 52.992 47.7603 52.8483 47.6797 52.709C47.6321 52.6267 47.582 52.5454 47.5303 52.4658C47.4802 52.3886 47.4279 52.3118 47.3741 52.2373C47.1433 51.9178 46.8791 51.6237 46.587 51.3604L42.8897 47.2402C42.4134 46.5956 42.1319 45.7976 42.1319 44.9346C42.1321 42.7908 43.87 41.0531 46.0137 41.0527C47.5703 41.0527 48.9133 41.9687 49.5323 43.291C50.1513 41.9687 51.4944 41.0528 53.0508 41.0527C55.1948 41.0529 56.9327 42.7915 56.9327 44.9355C56.9326 45.7984 56.6511 46.5957 56.1749 47.2402L52.4688 51.3682C52.1838 51.6263 51.9248 51.9137 51.6983 52.2256C51.4925 52.509 51.3131 52.8134 51.1631 53.1338C51.109 53.2494 51.059 53.3675 51.0128 53.4873C50.7739 54.1067 50.6427 54.7798 50.6426 55.4834C50.6426 56.1872 50.7738 56.8609 51.0128 57.4805C51.3947 58.4708 52.0522 59.3243 52.8917 59.9463C60.2715 58.398 65.8135 51.8528 65.8135 44.0127C65.8134 35.021 58.524 27.7314 49.5323 27.7314Z" fill="#005BFF"/>
</svg>
