<svg width="20" height="20" viewBox="0 0 16 22" fill="none" xmlns="http://www.w3.org/2000/svg">
<path d="M8 0C6.68399 0 5.6 1.10407 5.6 2.44444H4H2.4C1.08402 2.44444 0 3.54854 0 4.88889V19.5556C0 20.8959 1.08402 22 2.4 22H13.6C14.916 22 16 20.8959 16 19.5556V4.88889C16 3.54854 14.916 2.44444 13.6 2.44444H12H10.4C10.4 1.10407 9.31601 0 8 0ZM8 1.62963C8.4513 1.62963 8.8 1.98478 8.8 2.44444C8.8 2.90411 8.4513 3.25926 8 3.25926C7.5487 3.25926 7.2 2.90411 7.2 2.44444C7.2 1.98478 7.5487 1.62963 8 1.62963ZM2.4 4.07407H4C4 4.97444 4.716 5.7037 5.6 5.7037H10.4C11.284 5.7037 12 4.97444 12 4.07407H13.6C14.052 4.07407 14.4 4.42849 14.4 4.88889V19.5556C14.4 20.0159 14.052 20.3704 13.6 20.3704H2.4C1.94798 20.3704 1.6 20.0159 1.6 19.5556V4.88889C1.6 4.42849 1.94798 4.07407 2.4 4.07407ZM11.9844 8.95501C11.7765 8.96131 11.5793 9.04978 11.4344 9.20168L10.8688 9.77778H10.4C10.294 9.77625 10.1887 9.7962 10.0904 9.83646C9.99199 9.87672 9.90245 9.9365 9.82696 10.0123C9.75146 10.0881 9.69151 10.1785 9.6506 10.2781C9.60968 10.3777 9.58861 10.4846 9.58861 10.5926C9.58861 10.7006 9.60968 10.8075 9.6506 10.9071C9.69151 11.0067 9.75146 11.0971 9.82696 11.1729C9.90245 11.2487 9.99199 11.3085 10.0904 11.3487C10.1887 11.389 10.294 11.4089 10.4 11.4074H11.2C11.4122 11.4074 11.6156 11.3215 11.7656 11.1687L12.5656 10.3539C12.6812 10.2394 12.7602 10.0921 12.7922 9.93113C12.8241 9.77019 12.8076 9.60317 12.7448 9.45195C12.6819 9.30073 12.5757 9.17237 12.44 9.0837C12.3043 8.99502 12.1455 8.95017 11.9844 8.95501ZM4 9.77778C3.89399 9.77625 3.78874 9.7962 3.69037 9.83646C3.59199 9.87672 3.50245 9.9365 3.42696 10.0123C3.35146 10.0881 3.29151 10.1785 3.2506 10.2781C3.20968 10.3777 3.18861 10.4846 3.18861 10.5926C3.18861 10.7006 3.20968 10.8075 3.2506 10.9071C3.29151 11.0067 3.35146 11.0971 3.42696 11.1729C3.50245 11.2487 3.59199 11.3085 3.69037 11.3487C3.78874 11.389 3.89399 11.4089 4 11.4074H7.2C7.30601 11.4089 7.41126 11.389 7.50963 11.3487C7.60801 11.3085 7.69755 11.2487 7.77304 11.1729C7.84854 11.0971 7.90849 11.0067 7.9494 10.9071C7.99032 10.8075 8.01139 10.7006 8.01139 10.5926C8.01139 10.4846 7.99032 10.3777 7.9494 10.2781C7.90849 10.1785 7.84854 10.0881 7.77304 10.0123C7.69755 9.9365 7.60801 9.87672 7.50963 9.83646C7.41126 9.7962 7.30601 9.77625 7.2 9.77778H4ZM11.9844 13.8439C11.7765 13.8502 11.5793 13.9387 11.4344 14.0906L10.8688 14.6667H10.4C10.294 14.6651 10.1887 14.6851 10.0904 14.7254C9.99199 14.7656 9.90245 14.8254 9.82696 14.9012C9.75146 14.977 9.69151 15.0674 9.6506 15.167C9.60968 15.2666 9.58861 15.3735 9.58861 15.4815C9.58861 15.5895 9.60968 15.6964 9.6506 15.796C9.69151 15.8956 9.75146 15.9859 9.82696 16.0618C9.90245 16.1376 9.99199 16.1973 10.0904 16.2376C10.1887 16.2779 10.294 16.2978 10.4 16.2963H11.2C11.4122 16.2963 11.6156 16.2104 11.7656 16.0576L12.5656 15.2428C12.6812 15.1283 12.7602 14.981 12.7922 14.82C12.8241 14.6591 12.8076 14.4921 12.7448 14.3408C12.6819 14.1896 12.5757 14.0613 12.44 13.9726C12.3043 13.8839 12.1455 13.8391 11.9844 13.8439ZM4 14.6667C3.89399 14.6651 3.78874 14.6851 3.69037 14.7254C3.59199 14.7656 3.50245 14.8254 3.42696 14.9012C3.35146 14.977 3.29151 15.0674 3.2506 15.167C3.20968 15.2666 3.18861 15.3735 3.18861 15.4815C3.18861 15.5895 3.20968 15.6964 3.2506 15.796C3.29151 15.8956 3.35146 15.9859 3.42696 16.0618C3.50245 16.1376 3.59199 16.1973 3.69037 16.2376C3.78874 16.2779 3.89399 16.2978 4 16.2963H7.2C7.30601 16.2978 7.41126 16.2779 7.50963 16.2376C7.60801 16.1973 7.69755 16.1376 7.77304 16.0618C7.84854 15.9859 7.90849 15.8956 7.9494 15.796C7.99032 15.6964 8.01139 15.5895 8.01139 15.4815C8.01139 15.3735 7.99032 15.2666 7.9494 15.167C7.90849 15.0674 7.84854 14.977 7.77304 14.9012C7.69755 14.8254 7.60801 14.7656 7.50963 14.7254C7.41126 14.6851 7.30601 14.6651 7.2 14.6667H4Z" fill="#5389FF"/>
</svg>
