<svg width="155" height="172" viewBox="0 0 155 172" fill="none" xmlns="http://www.w3.org/2000/svg">
<path d="M147.919 9.92088C147.659 4.18904 142.787 -0.247873 137.037 0.010756L13.6888 5.55853C7.9385 5.81716 3.48729 10.6734 3.74675 16.4052L10.3172 161.554C10.5767 167.286 15.4485 171.723 21.1989 171.464L144.547 165.917C150.297 165.658 154.749 160.802 154.489 155.07L147.919 9.92088Z" fill="#B0D2FF"/>
<path d="M145.018 16.3407C145.018 10.603 140.352 5.95171 134.596 5.95171H10.9225C5.1663 5.95171 0.5 10.603 0.5 16.3407V161.611C0.5 167.349 5.16629 172 10.9225 172H134.596C140.352 172 145.018 167.349 145.018 161.611V16.3407Z" fill="white"/>
<path d="M93.4921 40.4058C98.2562 40.4059 102.118 44.2556 102.118 49.0044C102.118 52.2515 100.313 55.078 97.6475 56.5411C99.0753 58.7523 100.18 61.2091 100.888 63.854L110.089 98.2486C114.47 114.625 102.087 130.691 85.0836 130.691H60.4388C43.4356 130.691 31.0526 114.625 35.4338 98.2486L44.6348 63.854C45.321 61.2893 46.3806 58.9019 47.746 56.7434C44.868 55.3498 42.8842 52.4079 42.8842 49.0044C42.8842 44.2556 46.7464 40.4058 51.5105 40.4058C55.4513 40.4058 58.7753 43.0397 59.8064 46.6378C61.027 46.1376 62.2916 45.7287 63.5907 45.4176L71.0818 40.865C71.7597 40.4531 72.6444 40.667 73.0577 41.3425L73.9066 42.7304L76.5041 41.3304C77.2024 40.9541 78.0745 41.2133 78.4522 41.9093L80.1607 45.0585C81.918 45.3513 83.6224 45.8219 85.2519 46.4532C86.3424 42.9501 89.6192 40.4058 93.4921 40.4058ZM63.8763 95.1468C63.1808 95.1468 62.6002 95.6397 62.467 96.2939H58.125C57.3311 96.294 56.6879 96.9351 56.6878 97.7264V104.606C56.6879 110.596 60.3744 115.727 65.6093 117.869C66.3052 117.978 66.9641 118.198 67.5676 118.51C69.645 119.583 71.0648 121.746 71.0648 124.239C71.0647 127.801 68.1679 130.688 64.5949 130.688H80.4098C76.8368 130.688 73.94 127.801 73.9398 124.239C73.9398 121.746 75.3597 119.583 77.4371 118.51C78.0406 118.198 78.6995 117.978 79.3953 117.869C84.6303 115.727 88.3175 110.596 88.3175 104.606V97.7264C88.3174 96.9351 87.6736 96.2939 86.8797 96.2939H82.5377C82.4045 95.6398 81.8244 95.1469 81.129 95.1468H78.2534C77.4594 95.1468 76.8156 95.7886 76.8155 96.58V98.5867C76.8157 99.3781 77.4594 100.019 78.2534 100.019H81.129C81.7184 100.019 82.2249 99.6657 82.4468 99.1596H85.4419V104.606C85.4417 110.937 80.292 116.07 73.9398 116.07H71.0648C64.7127 116.07 59.5629 110.937 59.5628 104.606V99.1596H62.5579C62.7798 99.6658 63.2868 100.019 63.8763 100.019H66.7513C67.5453 100.019 68.189 99.3781 68.1892 98.5867V96.58C68.1891 95.7886 67.5453 95.1468 66.7513 95.1468H63.8763ZM71.6396 86.5008C71.6769 86.5041 71.7147 86.5065 71.7522 86.5096C71.6902 86.5045 71.6281 86.4985 71.5663 86.4926C71.5906 86.495 71.6152 86.4986 71.6396 86.5008ZM73.8265 86.5096C73.8642 86.5065 73.9023 86.5041 73.9398 86.5008C73.965 86.4985 73.99 86.4944 74.0152 86.492C73.9525 86.4979 73.8895 86.5045 73.8265 86.5096ZM72.7897 61.3298C65.8023 61.3298 60.1377 66.9757 60.1376 73.9407C60.1376 80.0134 64.444 85.0829 70.1787 86.2823C70.8309 85.8005 71.3427 85.14 71.6396 84.3729C71.8253 83.893 71.9266 83.3713 71.9266 82.8261C71.9266 82.2809 71.8253 81.7591 71.6396 81.2792C71.6337 81.264 71.6273 81.249 71.6213 81.2339C71.6153 81.2191 71.609 81.204 71.6029 81.1893C71.5876 81.1523 71.5717 81.1155 71.5554 81.079C71.5506 81.0681 71.5461 81.0567 71.5412 81.0459L71.5371 81.0378L71.5351 81.033L71.5324 81.0276L71.5283 81.0188L71.5235 81.0094C71.4703 80.8957 71.4125 80.7845 71.3498 80.6766C71.3128 80.6128 71.274 80.5496 71.2338 80.4879C71.1949 80.4281 71.1541 80.3697 71.1123 80.312C70.933 80.0645 70.728 79.8363 70.501 79.6323L67.628 76.4405C67.2578 75.9412 67.0384 75.3234 67.0384 74.6549C67.0384 72.9941 68.3897 71.6478 70.0558 71.6478C71.2652 71.6479 72.3087 72.3572 72.7897 73.3813C73.2708 72.3573 74.3142 71.6478 75.5236 71.6478C77.1896 71.6479 78.5402 72.9943 78.5404 74.6549C78.5404 75.3233 78.3215 75.9412 77.9514 76.4405L75.071 79.6384C74.8495 79.8383 74.6491 80.0611 74.4732 80.3026C74.3133 80.5221 74.1731 80.7572 74.0565 81.0053C74.0145 81.0948 73.9757 81.1865 73.9398 81.2792C73.7542 81.7591 73.6521 82.2809 73.6521 82.8261C73.6521 83.3713 73.7541 83.893 73.9398 84.3729C74.2367 85.1399 74.7478 85.8005 75.4001 86.2823C81.1349 85.083 85.4412 80.0135 85.4412 73.9407C85.4411 66.9758 79.777 61.33 72.7897 61.3298Z" fill="#005BFF"/>
</svg>
