<svg width="361" height="134" viewBox="0 0 361 134" fill="none" xmlns="http://www.w3.org/2000/svg">
<path d="M87.287 0C94.3418 0 100.061 5.71396 100.061 12.7622C100.061 17.5814 97.3868 21.7772 93.4404 23.9486C95.5546 27.2305 97.1916 30.8761 98.2394 34.8018L111.864 85.8491C118.352 110.155 100.015 134 74.8371 134H38.342C13.1639 134 -5.17263 110.155 1.31485 85.8491L14.9409 34.8018C15.9569 30.9954 17.5252 27.4517 19.5469 24.2481C15.2854 22.1798 12.3484 17.8134 12.3483 12.7622C12.3483 5.71396 18.0676 0 25.1223 0C30.9575 0.000203393 35.8792 3.9092 37.4062 9.24919C39.2136 8.50679 41.0864 7.90038 43.01 7.43875L54.1029 0.681278C55.1068 0.0700331 56.417 0.387981 57.029 1.39089L58.2848 3.44956L62.1319 1.372C63.1661 0.813428 64.4583 1.19815 65.0175 2.23135L67.5467 6.90452C70.1489 7.33913 72.6725 8.03833 75.0855 8.97533C76.7002 3.77636 81.5523 0.00023616 87.287 0ZM43.43 81.2475C42.4002 81.2477 41.541 81.978 41.3437 82.9487H34.9148C33.7391 82.9487 32.7854 83.9014 32.7854 85.0761V95.2859C32.7856 104.176 38.2451 111.791 45.9969 114.97C47.0274 115.132 48.0038 115.458 48.8974 115.921C51.9735 117.514 54.0745 120.725 54.0745 124.426C54.0742 129.711 49.786 133.996 44.4954 133.996H67.914C62.6231 133.996 58.3338 129.712 58.3334 124.426C58.3334 120.725 60.4357 117.514 63.5119 115.921C64.4054 115.459 65.3809 115.132 66.4111 114.97C74.163 111.791 79.6224 104.176 79.6226 95.2859V85.0761C79.6226 83.9014 78.6689 82.9487 77.4931 82.9487H71.0643C70.8669 81.978 70.0078 81.2475 68.978 81.2475H64.7205C63.5447 81.2475 62.591 82.2003 62.591 83.375V86.3523C62.5911 87.5269 63.5448 88.4785 64.7205 88.4785H68.978C69.851 88.4784 70.6007 87.9534 70.9292 87.2023H75.365V95.2859C75.3648 104.683 67.7395 112.301 58.3334 112.302H54.0745C44.6686 112.301 37.0432 104.683 37.043 95.2859V87.2023H41.4788C41.8073 87.9534 42.5571 88.4783 43.43 88.4785H47.6889C48.8643 88.4781 49.8168 87.5267 49.817 86.3523V83.375C49.817 82.2005 48.8644 81.2478 47.6889 81.2475H43.43ZM54.9266 68.4125C54.9821 68.4175 55.0384 68.4201 55.094 68.4246C54.8193 68.4023 54.5456 68.375 54.2744 68.341C54.4907 68.3681 54.7081 68.3928 54.9266 68.4125ZM58.166 68.4246C58.2217 68.4201 58.2779 68.4175 58.3334 68.4125C58.5518 68.3928 58.7695 68.3681 58.9857 68.341C58.7144 68.375 58.4407 68.4023 58.166 68.4246ZM56.6293 31.0528C46.2828 31.0531 37.8954 39.4328 37.895 49.7697C37.895 58.7828 44.2716 66.3072 52.7634 68.0873C53.7294 67.3723 54.487 66.3915 54.9266 65.253C55.2014 64.5409 55.3519 63.7671 55.3519 62.9582C55.3519 62.149 55.2016 61.3744 54.9266 60.6621C54.9179 60.6395 54.9086 60.6171 54.8996 60.5946C54.8908 60.5727 54.8816 60.5504 54.8726 60.5285C54.8499 60.4737 54.8265 60.418 54.8024 60.3639C54.7952 60.348 54.788 60.3312 54.7808 60.3154L54.7754 60.3046L54.7727 60.2965L54.7551 60.2614C54.6764 60.0929 54.5912 59.9277 54.4985 59.7677C54.4437 59.6729 54.3852 59.5786 54.3257 59.4871C54.2681 59.3985 54.2079 59.3108 54.1461 59.2253C53.8807 58.8582 53.5773 58.5202 53.2414 58.2176L48.9865 53.481C48.4383 52.7399 48.1142 51.8223 48.1142 50.8301C48.1144 48.3654 50.1141 46.3677 52.5811 46.3674C54.372 46.3674 55.917 47.4201 56.6293 48.9401C57.3416 47.4201 58.8869 46.3677 60.6776 46.3674C63.1447 46.3674 65.1456 48.3653 65.1458 50.8301C65.1458 51.8222 64.8216 52.74 64.2735 53.481L60.0078 58.227C59.68 58.5237 59.3825 58.8535 59.122 59.2118C58.8852 59.5377 58.6788 59.8877 58.5063 60.256C58.4441 60.3889 58.3866 60.5244 58.3334 60.6621C58.0585 61.3744 57.9068 62.1491 57.9067 62.9582C57.9068 63.7671 58.0586 64.5408 58.3334 65.253C58.7729 66.3913 59.5295 67.3723 60.4953 68.0873C68.9874 66.3074 75.365 58.783 75.365 49.7697C75.3647 39.4327 66.9761 31.0528 56.6293 31.0528Z" fill="#005BFF"/>
<path d="M155.073 53.6C155.073 54.7052 154.52 55.2577 153.414 55.2577H150.717C149.611 55.2577 149.058 54.7052 149.058 53.6V28.3196C149.058 27.2144 149.611 26.6619 150.717 26.6619H153.414C153.773 26.6619 154.063 26.7033 154.285 26.7862C154.506 26.8414 154.7 26.9934 154.865 27.2421L162.706 38.9291L169.84 28.4854C170.034 28.1814 170.228 27.9466 170.421 27.7808C170.642 27.5874 170.974 27.4907 171.417 27.4907H174.113C175.219 27.4907 175.772 28.0433 175.772 29.1485V54.4289C175.772 55.534 175.219 56.0866 174.113 56.0866H171.417C170.311 56.0866 169.757 55.534 169.757 54.4289V38.4318L164.655 45.933C164.462 46.2093 164.282 46.3889 164.116 46.4718C163.95 46.527 163.77 46.5546 163.577 46.5546H161.461C161.268 46.5546 161.074 46.5132 160.88 46.4303C160.714 46.3474 160.548 46.1678 160.383 45.8915L155.073 37.9344V53.6Z" fill="#005BFF"/>
<path d="M194.384 53.6C194.384 54.7052 193.831 55.2577 192.725 55.2577H190.028C189.282 55.2577 188.784 55.0091 188.535 54.5117C188.48 54.4012 188.438 54.2769 188.411 54.1388C188.383 53.973 188.369 53.7934 188.369 53.6V45.6429L179.824 29.9359C179.437 29.1899 179.34 28.6511 179.534 28.3196C179.727 27.9604 180.211 27.6979 180.985 27.5322L183.018 27.1177C183.488 27.0072 183.848 26.9796 184.097 27.0348C184.373 27.0625 184.622 27.2144 184.843 27.4907C184.954 27.6289 185.064 27.8085 185.175 28.0295C185.313 28.2229 185.465 28.4715 185.631 28.7755L191.107 38.4732L195.919 27.9466C196.057 27.6703 196.168 27.4355 196.251 27.2421C196.361 27.0487 196.486 26.8829 196.624 26.7447C196.845 26.4408 197.094 26.2612 197.371 26.206C197.675 26.1507 198.062 26.1784 198.532 26.2889L200.772 26.7862C201.547 26.952 202.017 27.2144 202.183 27.5736C202.349 27.9052 202.266 28.4439 201.934 29.1899L194.384 46.1816V53.6Z" fill="#005BFF"/>
<path d="M236.013 56.0866H233.317C232.211 56.0866 231.658 55.534 231.658 54.4289V43.9437L221.121 44.6897V53.6C221.121 54.7052 220.568 55.2577 219.462 55.2577H216.766C215.66 55.2577 215.106 54.7052 215.106 53.6V28.3196C215.106 27.2144 215.66 26.6619 216.766 26.6619H219.462C220.568 26.6619 221.121 27.2144 221.121 28.3196V38.6804L231.658 37.9344V29.1485C231.658 28.0433 232.211 27.4907 233.317 27.4907H236.013C237.119 27.4907 237.673 28.0433 237.673 29.1485V54.4289C237.673 55.534 237.119 56.0866 236.013 56.0866Z" fill="#005BFF"/>
<path d="M244.727 55.2577C243.593 55.2577 243.04 54.7052 243.068 53.6L243.897 29.1485C243.925 28.0433 244.478 27.4907 245.557 27.4907H259.868C260.974 27.4907 261.527 28.0433 261.527 29.1485V31.6765C261.527 32.754 260.988 33.2928 259.909 33.2928H249.58L249.373 38.5975L258.209 38.0173C259.315 37.9344 259.868 38.487 259.868 39.675V42.2031C259.868 43.1977 259.329 43.7365 258.25 43.8194L249.207 44.441L249 49.4557H259.868C260.974 49.4557 261.527 50.0082 261.527 51.1134V53.6414C261.527 54.719 260.988 55.2577 259.909 55.2577H244.727Z" fill="#005BFF"/>
<path d="M280.5 44.814L276.434 35.9452L273.697 44.814H280.5ZM270.627 54.8019C270.35 55.6583 270.019 56.1833 269.631 56.3767C269.272 56.5701 268.733 56.5977 268.014 56.4596L265.566 55.9623C264.792 55.7965 264.336 55.5478 264.197 55.2163C264.087 54.8571 264.156 54.3045 264.405 53.5586L272.411 29.1485C272.66 28.4301 272.922 27.9742 273.199 27.7808C273.475 27.5874 273.876 27.4907 274.402 27.4907H277.969C278.329 27.4907 278.578 27.5322 278.716 27.615C278.854 27.6703 278.965 27.8223 279.048 28.0709C279.158 28.292 279.324 28.6511 279.546 29.1485L290.912 52.8126C291.271 53.5586 291.354 54.1111 291.16 54.4703C290.995 54.8295 290.524 55.0781 289.75 55.2163L287.51 55.6307C286.736 55.7689 286.169 55.7412 285.809 55.5478C285.477 55.3821 285.104 54.8571 284.689 53.973L282.864 49.9944H272.12L270.627 54.8019Z" fill="#005BFF"/>
<path d="M310.606 55.2163L296.668 54.4289C295.562 54.4289 295.009 53.8901 295.009 52.8126V29.1485C295.009 28.0433 295.562 27.4907 296.668 27.4907H299.365C300.471 27.4907 301.024 28.0433 301.024 29.1485V48.8755L310.565 49.4142C311.118 49.4419 311.533 49.5938 311.809 49.8701C312.086 50.1188 312.224 50.5194 312.224 51.072V53.6C312.224 54.7052 311.685 55.2439 310.606 55.2163Z" fill="#005BFF"/>
<path d="M325.636 53.6C325.636 54.7052 325.083 55.2577 323.977 55.2577H321.28C320.174 55.2577 319.621 54.7052 319.621 53.6V33.7072H312.279C311.2 33.7072 310.661 33.1685 310.661 32.0909V29.1485C310.661 28.0433 311.214 27.4907 312.32 27.4907H332.895C334.002 27.4907 334.555 28.0433 334.555 29.1485V32.0909C334.555 33.1685 334.015 33.7072 332.937 33.7072H325.636V53.6Z" fill="#005BFF"/>
<path d="M359.341 56.0866H356.644C355.538 56.0866 354.985 55.534 354.985 54.4289V43.9437L344.449 44.6897V53.6C344.449 54.7052 343.896 55.2577 342.789 55.2577H340.093C338.987 55.2577 338.434 54.7052 338.434 53.6V28.3196C338.434 27.2144 338.987 26.6619 340.093 26.6619H342.789C343.896 26.6619 344.449 27.2144 344.449 28.3196V38.6804L354.985 37.9344V29.1485C354.985 28.0433 355.538 27.4907 356.644 27.4907H359.341C360.447 27.4907 361 28.0433 361 29.1485V54.4289C361 55.534 360.447 56.0866 359.341 56.0866Z" fill="#005BFF"/>
<path d="M153.414 111.344H150.717C149.611 111.344 149.058 110.792 149.058 109.687V84.4062C149.058 83.301 149.611 82.7485 150.717 82.7485H157.271C159.622 82.7485 161.724 83.0938 163.577 83.7845C165.43 84.4753 166.881 85.5942 167.932 87.1414C169.011 88.6887 169.55 90.7608 169.55 93.3579C169.55 95.7064 168.983 97.6266 167.849 99.1186C166.715 100.611 165.208 101.757 163.328 102.558C161.447 103.332 159.401 103.829 157.188 104.05L155.073 104.258V109.687C155.073 110.792 154.52 111.344 153.414 111.344ZM157.437 88.965H155.073V98.041L157.354 97.8338C158.433 97.7233 159.442 97.5023 160.383 97.1707C161.323 96.8115 162.083 96.3142 162.664 95.6788C163.245 95.0433 163.535 94.2697 163.535 93.3579C163.535 92.2252 163.245 91.341 162.664 90.7056C162.111 90.0701 161.364 89.628 160.424 89.3794C159.511 89.1031 158.516 88.965 157.437 88.965Z" fill="#005BFF"/>
<path d="M185.832 100.072L181.767 91.2029L179.029 100.072H185.832ZM175.959 110.06C175.683 110.916 175.351 111.441 174.964 111.634C174.604 111.828 174.065 111.855 173.346 111.717L170.899 111.22C170.124 111.054 169.668 110.806 169.53 110.474C169.419 110.115 169.488 109.562 169.737 108.816L177.743 84.4062C177.992 83.6878 178.255 83.232 178.531 83.0386C178.808 82.8451 179.209 82.7485 179.734 82.7485H183.302C183.661 82.7485 183.91 82.7899 184.048 82.8728C184.187 82.928 184.297 83.08 184.38 83.3287C184.491 83.5497 184.657 83.9089 184.878 84.4062L196.244 108.07C196.603 108.816 196.686 109.369 196.493 109.728C196.327 110.087 195.857 110.336 195.082 110.474L192.842 110.888C192.068 111.027 191.501 110.999 191.142 110.806C190.81 110.64 190.436 110.115 190.022 109.231L188.196 105.252H177.453L175.959 110.06Z" fill="#005BFF"/>
<path d="M211.998 103.263C211.998 102.572 211.694 101.951 211.085 101.398C210.505 100.845 209.744 100.32 208.804 99.8231C207.864 99.3258 206.868 98.8008 205.817 98.2482C204.794 97.6957 203.812 97.0602 202.872 96.3419C201.932 95.5959 201.157 94.7256 200.549 93.7309C199.968 92.7363 199.678 91.5621 199.678 90.2083C199.678 87.8322 200.452 85.912 202.001 84.4476C203.549 82.9833 205.707 82.2511 208.472 82.2511C209.274 82.2511 210.104 82.334 210.961 82.4998C211.846 82.6656 212.689 82.9004 213.491 83.2043C214.321 83.4806 215.04 83.826 215.648 84.2404C216.118 84.5443 216.395 84.8482 216.478 85.1522C216.589 85.4285 216.533 85.8014 216.312 86.2711L215.151 88.7992C214.957 89.186 214.722 89.4346 214.445 89.5452C214.196 89.628 213.823 89.5728 213.325 89.3794C212.551 89.0202 211.721 88.7163 210.836 88.4676C209.979 88.1913 209.191 88.0532 208.472 88.0532C207.698 88.0532 207.034 88.1913 206.481 88.4676C205.955 88.7163 205.693 89.1583 205.693 89.7938C205.693 90.4293 205.983 91.0233 206.564 91.5759C207.172 92.1008 207.947 92.6258 208.887 93.1507C209.827 93.648 210.809 94.1868 211.832 94.767C212.883 95.3196 213.878 95.9689 214.819 96.7148C215.759 97.4332 216.519 98.2759 217.1 99.2429C217.709 100.21 218.013 101.343 218.013 102.641C218.013 105.238 217.183 107.283 215.524 108.775C213.892 110.267 211.625 111.013 208.721 111.013C207.698 111.013 206.633 110.902 205.527 110.681C204.421 110.46 203.342 110.142 202.291 109.728C201.268 109.314 200.342 108.816 199.512 108.236C199.069 107.905 198.779 107.614 198.641 107.366C198.53 107.089 198.599 106.703 198.848 106.205L200.051 103.719C200.272 103.304 200.507 103.042 200.756 102.931C201.005 102.793 201.379 102.862 201.876 103.139C203.093 103.802 204.338 104.313 205.61 104.672C206.909 105.031 208.03 105.211 208.97 105.211C209.855 105.211 210.574 105.086 211.127 104.838C211.708 104.561 211.998 104.036 211.998 103.263Z" fill="#005BFF"/>
<path d="M233.812 103.263C233.812 102.572 233.507 101.951 232.899 101.398C232.318 100.845 231.558 100.32 230.617 99.8231C229.677 99.3258 228.682 98.8008 227.631 98.2482C226.608 97.6957 225.626 97.0602 224.686 96.3419C223.745 95.5959 222.971 94.7256 222.363 93.7309C221.782 92.7363 221.491 91.5621 221.491 90.2083C221.491 87.8322 222.266 85.912 223.814 84.4476C225.363 82.9833 227.52 82.2511 230.286 82.2511C231.088 82.2511 231.917 82.334 232.774 82.4998C233.659 82.6656 234.503 82.9004 235.305 83.2043C236.135 83.4806 236.854 83.826 237.462 84.2404C237.932 84.5443 238.209 84.8482 238.292 85.1522C238.402 85.4285 238.347 85.8014 238.126 86.2711L236.964 88.7992C236.771 89.186 236.536 89.4346 236.259 89.5452C236.01 89.628 235.637 89.5728 235.139 89.3794C234.365 89.0202 233.535 88.7163 232.65 88.4676C231.793 88.1913 231.005 88.0532 230.286 88.0532C229.511 88.0532 228.848 88.1913 228.294 88.4676C227.769 88.7163 227.506 89.1583 227.506 89.7938C227.506 90.4293 227.797 91.0233 228.377 91.5759C228.986 92.1008 229.76 92.6258 230.7 93.1507C231.641 93.648 232.622 94.1868 233.646 94.767C234.696 95.3196 235.692 95.9689 236.632 96.7148C237.573 97.4332 238.333 98.2759 238.914 99.2429C239.522 100.21 239.826 101.343 239.826 102.641C239.826 105.238 238.997 107.283 237.337 108.775C235.706 110.267 233.438 111.013 230.534 111.013C229.511 111.013 228.447 110.902 227.34 110.681C226.234 110.46 225.156 110.142 224.105 109.728C223.082 109.314 222.155 108.816 221.326 108.236C220.883 107.905 220.593 107.614 220.454 107.366C220.344 107.089 220.413 106.703 220.662 106.205L221.865 103.719C222.086 103.304 222.321 103.042 222.57 102.931C222.819 102.793 223.192 102.862 223.69 103.139C224.907 103.802 226.151 104.313 227.423 104.672C228.723 105.031 229.843 105.211 230.783 105.211C231.668 105.211 232.387 105.086 232.94 104.838C233.521 104.561 233.812 104.036 233.812 103.263Z" fill="#005BFF"/>
<path d="M248.324 111.344H245.628C244.522 111.344 243.969 110.792 243.969 109.687V84.4062C243.969 83.301 244.522 82.7485 245.628 82.7485H252.182C254.533 82.7485 256.635 83.0938 258.487 83.7845C260.34 84.4753 261.792 85.5942 262.843 87.1414C263.922 88.6887 264.461 90.7608 264.461 93.3579C264.461 95.7064 263.894 97.6266 262.76 99.1186C261.626 100.611 260.119 101.757 258.238 102.558C256.358 103.332 254.312 103.829 252.099 104.05L249.984 104.258V109.687C249.984 110.792 249.431 111.344 248.324 111.344ZM252.348 88.965H249.984V98.041L252.265 97.8338C253.344 97.7233 254.353 97.5023 255.293 97.1707C256.234 96.8115 256.994 96.3142 257.575 95.6788C258.156 95.0433 258.446 94.2697 258.446 93.3579C258.446 92.2252 258.156 91.341 257.575 90.7056C257.022 90.0701 256.275 89.628 255.335 89.3794C254.422 89.1031 253.427 88.965 252.348 88.965Z" fill="#005BFF"/>
<path d="M281.475 111.427C278.655 111.427 276.18 110.819 274.05 109.604C271.948 108.388 270.303 106.675 269.114 104.465C267.952 102.227 267.372 99.6159 267.372 96.632C267.372 93.648 267.952 91.0509 269.114 88.8406C270.303 86.6303 271.962 84.9173 274.092 83.7016C276.221 82.4584 278.71 81.8367 281.558 81.8367C284.379 81.8367 286.84 82.4584 288.942 83.7016C291.044 84.9173 292.676 86.6303 293.837 88.8406C295.026 91.0509 295.635 93.648 295.662 96.632C295.635 99.6159 295.026 102.227 293.837 104.465C292.676 106.675 291.03 108.388 288.901 109.604C286.799 110.819 284.324 111.427 281.475 111.427ZM281.558 105.211C283.328 105.211 284.808 104.838 285.997 104.092C287.186 103.346 288.085 102.337 288.693 101.066C289.302 99.7678 289.62 98.2897 289.647 96.632C289.62 95.0018 289.288 93.5375 288.652 92.239C288.043 90.9404 287.145 89.9181 285.955 89.1722C284.766 88.4262 283.287 88.0532 281.517 88.0532C279.747 88.0532 278.254 88.4262 277.037 89.1722C275.82 89.9181 274.908 90.9404 274.299 92.239C273.691 93.5375 273.386 95.0018 273.386 96.632C273.386 98.2897 273.691 99.7678 274.299 101.066C274.908 102.337 275.82 103.346 277.037 104.092C278.254 104.838 279.761 105.211 281.558 105.211Z" fill="#005BFF"/>
<path d="M318.116 111.717C317.645 111.828 317.272 111.855 316.996 111.8C316.747 111.773 316.512 111.621 316.29 111.344C316.097 111.068 315.834 110.64 315.502 110.06L311.147 102.558C310.704 102.614 310.248 102.655 309.778 102.683C309.335 102.71 308.865 102.724 308.367 102.724H306.169V108.858C306.169 109.963 305.616 110.515 304.51 110.515H301.813C300.707 110.515 300.154 109.963 300.154 108.858V84.4062C300.154 83.301 300.707 82.7485 301.813 82.7485H308.367C312.294 82.7485 315.322 83.5773 317.452 85.2351C319.581 86.8652 320.646 89.3656 320.646 92.7363C320.646 96.4386 319.319 99.1324 316.664 100.818L321.102 108.899C321.794 110.198 321.406 110.999 319.941 111.303L318.116 111.717ZM308.533 88.965H306.169V96.5076H308.533C310.663 96.5076 312.211 96.1761 313.179 95.513C314.147 94.8499 314.631 93.9243 314.631 92.7363C314.631 91.5482 314.147 90.6227 313.179 89.9596C312.211 89.2965 310.663 88.965 308.533 88.965Z" fill="#005BFF"/>
<path d="M338.68 108.858C338.68 109.963 338.127 110.515 337.021 110.515H334.325C333.218 110.515 332.665 109.963 332.665 108.858V88.965H325.323C324.244 88.965 323.705 88.4262 323.705 87.3487V84.4062C323.705 83.301 324.258 82.7485 325.365 82.7485H345.939C347.046 82.7485 347.599 83.301 347.599 84.4062V87.3487C347.599 88.4262 347.059 88.965 345.981 88.965H338.68V108.858Z" fill="#005BFF"/>
</svg>
