<svg width="20" height="22" viewBox="0 0 20 22" fill="none" xmlns="http://www.w3.org/2000/svg">
<path fill-rule="evenodd" clip-rule="evenodd" d="M5.875 0.5C4.83947 0.5 4 1.33947 4 2.375V5.36564C3.5736 5.41799 3.1489 5.47583 2.72596 5.53912C1.27191 5.75668 0.25 7.02163 0.25 8.45569V14.75C0.25 16.4069 1.59315 17.75 3.25 17.75H3.51963L3.36461 19.4552C3.26479 20.5533 4.12935 21.5 5.23191 21.5H14.7681C15.8706 21.5 16.7352 20.5533 16.6354 19.4552L16.4804 17.75H16.75C18.4069 17.75 19.75 16.4069 19.75 14.75V8.45569C19.75 7.02163 18.7281 5.75668 17.274 5.53912C16.8511 5.47583 16.4264 5.41799 16 5.36564V2.375C16 1.33947 15.1605 0.5 14.125 0.5H5.875ZM14.5 5.20498V2.375C14.5 2.16789 14.3321 2 14.125 2H5.875C5.66789 2 5.5 2.16789 5.5 2.375V5.20498C6.98198 5.06931 8.48298 5 10 5C11.517 5 13.018 5.06931 14.5 5.20498ZM14.2834 13.4696C14.4607 13.4879 14.5996 13.6298 14.6158 13.8073L15.1415 19.591C15.1615 19.8107 14.9886 20 14.7681 20H5.23191C5.0114 20 4.83849 19.8107 4.85845 19.591L5.38425 13.8073C5.40039 13.6298 5.53926 13.4879 5.71659 13.4696C7.12438 13.3244 8.55338 13.25 10 13.25C11.4466 13.25 12.8756 13.3244 14.2834 13.4696ZM15.25 9.5C15.25 9.08579 15.5858 8.75 16 8.75H16.0075C16.4217 8.75 16.7575 9.08579 16.7575 9.5V9.5075C16.7575 9.92171 16.4217 10.2575 16.0075 10.2575H16C15.5858 10.2575 15.25 9.92171 15.25 9.5075V9.5ZM13 8.75C12.5858 8.75 12.25 9.08579 12.25 9.5V9.5075C12.25 9.92171 12.5858 10.2575 13 10.2575H13.0075C13.4217 10.2575 13.7575 9.92171 13.7575 9.5075V9.5C13.7575 9.08579 13.4217 8.75 13.0075 8.75H13Z" fill="#5389FF"/>
</svg>
