<svg width="22" height="22" viewBox="0 0 22 22" fill="none" xmlns="http://www.w3.org/2000/svg">
<path d="M11 0.855469C10.3273 0.855469 9.68208 1.12271 9.20638 1.59841C8.73069 2.07411 8.46344 2.71929 8.46344 3.39202C8.46344 4.06476 8.73069 4.70994 9.20638 5.18564C9.68208 5.66134 10.3273 5.92858 11 5.92858C11.6727 5.92858 12.3179 5.66134 12.7936 5.18564C13.2693 4.70994 13.5366 4.06476 13.5366 3.39202C13.5366 2.71929 13.2693 2.07411 12.7936 1.59841C12.3179 1.12271 11.6727 0.855469 11 0.855469ZM11 5.92858L1.71086 5.91702C0.776559 5.91617 0.0182079 6.67211 0.0165169 7.6064L2.83149e-06 16.9071C-0.00168821 17.8406 0.754285 18.5981 1.68774 18.5998L8.46344 18.6081V10.4187C8.46344 9.9647 7.98583 9.66759 7.57829 9.86883L3.76851 11.758C3.34913 11.9677 2.84283 11.7967 2.63399 11.3799C2.42515 10.9622 2.59448 10.4542 3.01216 10.2453L7.55022 7.97632C8.02033 7.74126 8.53619 7.61962 9.06125 7.61962H12.9354C13.4614 7.61962 13.9805 7.74292 14.4514 7.97797L18.9878 10.2453C19.4055 10.4542 19.5749 10.9622 19.366 11.3799C19.2172 11.6749 18.9183 11.8472 18.608 11.8472C18.4812 11.8472 18.3524 11.8181 18.2315 11.758L14.4217 9.87048C14.0142 9.66924 13.5366 9.9647 13.5366 10.4187V18.6147L20.2891 18.6229C21.2234 18.6238 21.9818 17.8686 21.9835 16.9352L22 7.63448C22.0017 6.70018 21.2457 5.94098 20.3123 5.94014L11 5.92858ZM13.5366 18.6147L11.6771 18.613L11.791 20.3321C11.8215 20.7912 12.203 21.1479 12.663 21.1479C13.1449 21.1479 13.5366 20.7563 13.5366 20.2743V18.6147ZM11.6771 18.613L11.4211 14.7768C11.405 14.5561 11.2224 14.3838 11 14.3838C10.7776 14.3838 10.5941 14.5569 10.5789 14.7784L10.3229 18.6097L11.6771 18.613ZM10.3229 18.6097L8.46344 18.6081V20.2743C8.46344 20.7563 8.85509 21.1479 9.33704 21.1479C9.797 21.1479 10.1785 20.7904 10.209 20.3321L10.3229 18.6097Z" fill="#5389FF"/>
</svg>
