<svg width="22" height="23" viewBox="0 0 22 23" fill="none" xmlns="http://www.w3.org/2000/svg">
<path d="M7 0.5C4.75 0.5 2.93523 1.37976 1.75195 2.71094C0.56868 4.04212 0 5.77778 0 7.5C0 10.0793 0.460946 11.7217 0.957031 12.9219C1.45312 14.122 1.88528 14.7967 2.00977 15.6445V15.6465C2.18444 16.8341 2.4109 18.3811 2.91211 19.7344C3.16271 20.411 3.47868 21.05 3.96875 21.5762C4.45882 22.1023 5.18837 22.5 6 22.5C7.2599 22.5 8.28108 21.8135 8.85547 20.9668C9.42986 20.1201 9.6965 19.1496 9.92773 18.248C10.159 17.3465 10.3542 16.4988 10.5762 16C10.6872 15.7506 10.7995 15.6036 10.8594 15.5508C10.9192 15.498 10.9011 15.5 11 15.5C11.099 15.5 11.0808 15.498 11.1406 15.5508C11.2005 15.6036 11.3128 15.7506 11.4238 16C11.6458 16.4988 11.841 17.3465 12.0723 18.248C12.3035 19.1496 12.5701 20.1201 13.1445 20.9668C13.7189 21.8135 14.7401 22.5 16 22.5C16.8116 22.5 17.5412 22.1023 18.0312 21.5762C18.5213 21.05 18.8373 20.411 19.0879 19.7344C19.5891 18.3811 19.8156 16.8341 19.9902 15.6465V15.6445C20.1147 14.7967 20.5469 14.122 21.043 12.9219C21.5391 11.7218 22 10.0793 22 7.5C22 5.77778 21.4313 4.04212 20.248 2.71094C19.0648 1.37976 17.25 0.5 15 0.5C13.3889 0.5 12.257 0.771039 11.5039 1.07227C11.2454 1.17567 11.0359 1.28892 10.8535 1.39844C9.83961 0.88535 8.56459 0.5 7 0.5ZM7 2.5C10.785 2.5 12.1348 5.00195 12.1348 5.00195C12.2007 5.11562 12.2883 5.21519 12.3927 5.29498C12.4971 5.37477 12.6162 5.43322 12.7431 5.46698C12.8701 5.50074 13.0025 5.50915 13.1327 5.49174C13.2629 5.47433 13.3885 5.43143 13.5021 5.3655C13.6158 5.29957 13.7153 5.2119 13.7951 5.10749C13.8748 5.00308 13.9332 4.88398 13.9669 4.757C14.0007 4.63001 14.009 4.49763 13.9916 4.3674C13.9741 4.23718 13.9312 4.11167 13.8652 3.99805C13.8652 3.99805 13.5031 3.43034 12.7852 2.75586C13.2999 2.61756 14.0128 2.5 15 2.5C16.75 2.5 17.9352 3.12024 18.752 4.03906C19.5687 4.95788 20 6.22222 20 7.5C20 9.85173 19.62 11.1308 19.1953 12.1582C18.7706 13.1856 18.2023 14.0443 18.0098 15.3555C17.8365 16.5336 17.6035 17.9844 17.2129 19.0391C17.0175 19.5667 16.7798 19.9837 16.5664 20.2129C16.353 20.442 16.2304 20.5 16 20.5C15.3514 20.5 15.1167 20.3115 14.8008 19.8457C14.4848 19.3799 14.2274 18.6004 14.0098 17.752C13.7921 16.9035 13.6141 16.0012 13.252 15.1875C13.0709 14.7807 12.839 14.3808 12.4648 14.0508C12.1381 13.7626 11.6826 13.5668 11.207 13.5195C11.1389 13.5058 11.0695 13.4993 11 13.5C10.9298 13.4992 10.8598 13.5057 10.791 13.5195C10.3162 13.5672 9.86142 13.763 9.53516 14.0508C9.16101 14.3808 8.9291 14.7807 8.74805 15.1875C8.38593 16.0012 8.20787 16.9035 7.99023 17.752C7.7726 18.6004 7.51517 19.3799 7.19922 19.8457C6.88326 20.3115 6.6486 20.5 6 20.5C5.76963 20.5 5.64702 20.442 5.43359 20.2129C5.22017 19.9837 4.98251 19.5667 4.78711 19.0391C4.39652 17.9844 4.16354 16.5336 3.99023 15.3555V15.3535C3.79742 14.0436 3.22912 13.185 2.80469 12.1582C2.38002 11.1308 2 9.85173 2 7.5C2 6.22222 2.43132 4.95788 3.24805 4.03906C4.06477 3.12024 5.25 2.5 7 2.5Z" fill="#5389FF"/>
</svg>
