<svg width="22" height="22" viewBox="0 0 22 22" fill="none" xmlns="http://www.w3.org/2000/svg">
<path d="M11 0C7.1115 0 5.5 2.49445 5.5 5.50045C5.5 6.51253 5.9834 7.5291 5.9834 7.5291C5.78907 7.64094 5.46946 7.99596 5.55013 8.62668C5.70046 9.80286 6.21033 10.1024 6.53483 10.1271C6.65858 11.2245 7.8375 12.6282 8.25 12.8326V14.6661C8.20508 14.7999 8.13355 14.9141 8.06022 15.0278C8.62672 15.7456 9.55992 16.4996 11 16.4996C12.4401 16.4996 13.3733 15.7456 13.9398 15.0278C13.8664 14.9141 13.7949 14.7999 13.75 14.6661V12.8326C14.1625 12.6282 15.3414 11.2245 15.4652 10.1271C15.7897 10.1024 16.2995 9.80286 16.4499 8.62668C16.5305 7.99504 16.2109 7.64094 16.0166 7.5291C16.0166 7.5291 16.5 6.61062 16.5 5.50045C16.5 3.2746 15.6264 1.37511 13.75 1.37511C13.75 1.37511 13.0983 0 11 0ZM11 16.4996L8.25 19.2498L6.64404 16.0376C4.20479 17.0093 0 17.1376 0 22H22C22 17.1376 17.7952 17.0093 15.356 16.0376L13.75 19.2498L11 16.4996Z" fill="#5389FF"/>
</svg>
