<svg width="99" height="117" viewBox="0 0 99 117" fill="none" xmlns="http://www.w3.org/2000/svg">
<path d="M59.0147 116.559H38.6631C38.7022 116.559 38.7414 116.556 38.7803 116.556H58.8975C58.9365 116.556 58.9756 116.559 59.0147 116.559ZM75.8536 0C81.9841 0.000198891 86.9542 4.97006 86.9542 11.1006C86.9541 15.2925 84.6297 18.9413 81.2003 20.8301C83.0375 23.6848 84.4596 26.8568 85.3702 30.2715L97.211 74.6729C102.849 95.8142 86.9134 116.556 65.0333 116.556H58.8975C54.3535 116.493 50.6895 112.792 50.6895 108.233C50.6895 105.015 52.5162 102.222 55.1895 100.837C55.966 100.435 56.8138 100.151 57.709 100.01C64.4458 97.2449 69.1905 90.6198 69.1905 82.8867V74.0059C69.1904 72.9843 68.3624 72.1565 67.3409 72.1562H61.753C61.5816 71.3118 60.8346 70.6758 59.9395 70.6758H56.2393C55.2177 70.6759 54.3897 71.5047 54.3897 72.5264V75.1162C54.3898 76.1378 55.2177 76.9657 56.2393 76.9658H59.9395C60.698 76.9658 61.3502 76.5097 61.6358 75.8564H65.4903V82.8867C65.4903 91.061 58.8638 97.6873 50.6895 97.6875H46.9893C38.8149 97.6875 32.1876 91.0611 32.1876 82.8867V75.8564H36.0421C36.3276 76.5098 36.9798 76.9658 37.7383 76.9658H41.4385C42.4603 76.9658 43.2891 76.138 43.2891 75.1162V72.5264C43.2891 71.5046 42.4603 70.6758 41.4385 70.6758H37.7383C36.8433 70.6758 36.0963 71.3118 35.9249 72.1562H30.338C29.3162 72.1562 28.4874 72.9841 28.4874 74.0059V82.8867C28.4874 90.6198 33.2321 97.2449 39.9688 100.01C40.8643 100.151 41.7127 100.434 42.4893 100.837C45.1624 102.222 46.9893 105.015 46.9893 108.233C46.9893 112.792 43.3245 116.493 38.7803 116.556H33.3194C11.4392 116.556 -4.49507 95.8142 1.14264 74.6729L12.9825 30.2715C13.8655 26.9603 15.2293 23.8775 16.9864 21.0908C13.2831 19.2918 10.7306 15.4944 10.7305 11.1006C10.7305 4.96994 15.7005 0 21.8311 0C26.9021 0.00019809 31.1791 3.40088 32.5059 8.0459C34.0767 7.40007 35.7042 6.87128 37.376 6.46973L47.0157 0.592773C47.8881 0.0611801 49.0259 0.337648 49.5577 1.20996L50.6505 3.00098L53.9922 1.19336C54.891 0.707395 56.0141 1.04259 56.5001 1.94141L58.6983 6.00586C60.9595 6.38387 63.1523 6.99171 65.2491 7.80664C66.6523 3.28434 70.8698 0 75.8536 0ZM47.7305 59.5098C47.7786 59.5141 47.8269 59.5166 47.8751 59.5205C47.7883 59.5135 47.7017 59.5054 47.6153 59.4971C47.6535 59.5008 47.6922 59.5063 47.7305 59.5098ZM50.545 59.5205C50.5934 59.5166 50.6422 59.5141 50.6905 59.5098C50.7297 59.5062 50.7686 59.5 50.8077 59.4961C50.7203 59.5045 50.6328 59.5134 50.545 59.5205ZM50.8077 59.4961C50.958 59.4816 51.1078 59.466 51.2569 59.4473C51.1078 59.466 50.9579 59.4813 50.8077 59.4961ZM49.21 27.0127C40.2184 27.0128 32.9289 34.3023 32.9288 43.2939C32.9288 51.1339 38.4709 57.6792 45.8506 59.2275C46.6901 58.6055 47.3485 57.752 47.7305 56.7617C47.9694 56.1422 48.0997 55.4684 48.0997 54.7646C48.0996 54.0611 47.9693 53.3879 47.7305 52.7686C47.7229 52.7489 47.7149 52.7286 47.7071 52.709C47.6996 52.6901 47.6914 52.6711 47.6837 52.6523C47.664 52.6047 47.6431 52.5568 47.6221 52.5098C47.6159 52.4957 47.6099 52.4808 47.6036 52.4668L47.5987 52.457L47.5928 52.4434L47.5811 52.4199C47.5126 52.2733 47.4381 52.1296 47.3575 51.9902C47.3099 51.9079 47.2597 51.8267 47.2081 51.7471C47.1579 51.6698 47.1057 51.5931 47.0518 51.5186C46.821 51.1991 46.5568 50.9049 46.2647 50.6416L42.5674 46.5215C42.0911 45.8769 41.8096 45.0788 41.8096 44.2158C41.8099 42.0719 43.5485 40.334 45.6924 40.334C47.2488 40.3342 48.5911 41.2501 49.21 42.5723C49.829 41.25 51.1721 40.334 52.7286 40.334C54.8726 40.3342 56.6104 42.0728 56.6104 44.2168C56.6103 45.0796 56.3289 45.877 55.8526 46.5215L52.1465 50.6494C51.8615 50.9076 51.6025 51.195 51.376 51.5068C51.1702 51.7903 50.9908 52.0947 50.8409 52.415C50.7868 52.5306 50.7367 52.6488 50.6905 52.7686C50.4516 53.3879 50.3204 54.0611 50.3204 54.7646C50.3204 55.4685 50.4515 56.1421 50.6905 56.7617C51.0725 57.752 51.73 58.6055 52.5694 59.2275C59.9493 57.6793 65.4913 51.134 65.4913 43.2939C65.4911 34.3023 58.2017 27.0127 49.21 27.0127Z" fill="#005BFF"/>
</svg>
