<svg width="24" height="26" viewBox="0 0 24 26" fill="none" xmlns="http://www.w3.org/2000/svg">
<path d="M18.5234 0.00395593C17.2854 0.157066 14.204 0.89487 14 4.4501C13.989 4.65136 14.1994 4.8285 14.4434 4.81309C18.1354 4.58102 18.857 1.51635 18.998 0.381991C19.026 0.15666 18.7944 -0.0297475 18.5234 0.00395593ZM8.99023 0.955627C8.77425 0.955262 8.56395 1.02224 8.39078 1.14653C8.21762 1.27083 8.09089 1.44577 8.02955 1.64519C7.96822 1.8446 7.97557 2.05778 8.05051 2.25284C8.12546 2.4479 8.26396 2.61436 8.44531 2.72732C8.44531 2.72732 10.4513 3.99371 10.9062 6.62992C9.9165 6.11687 8.81518 5.77793 7.59961 5.77793C3.40764 5.77793 0 9.14009 0 13.2277C0 16.7358 1.71005 19.8747 3.7168 22.1557C4.72017 23.2962 5.80117 24.2267 6.83203 24.8922C7.8629 25.5577 8.806 26 9.80078 26C10.6178 26 11.2037 25.6672 11.707 25.3944C11.8734 25.3042 11.8694 25.2942 12 25.2138C12.1306 25.2942 12.1266 25.3042 12.293 25.3944C12.7963 25.6672 13.3822 26 14.1992 26C15.1177 26 16.0709 25.6555 17.1094 25.0784C18.1479 24.5013 19.2455 23.6671 20.2617 22.5845C22.2942 20.4194 24 17.2323 24 13.2277C24 9.14009 20.5924 5.77793 16.4004 5.77793C15.1183 5.77793 13.9602 6.1493 12.9297 6.71079C12.4639 3.03117 9.55469 1.1249 9.55469 1.1249C9.38855 1.01499 9.1918 0.955986 8.99023 0.955627ZM16.4004 7.70384C19.4844 7.70384 22 10.1643 22 13.2277C22 16.7081 20.5333 19.4239 18.7793 21.2924C17.9023 22.2267 16.9529 22.9425 16.1113 23.4102C15.2698 23.8778 14.5077 24.0741 14.1992 24.0741C14.1702 24.0741 13.6586 23.9254 13.2734 23.7167C12.8883 23.508 12.5938 23.2992 12.5938 23.2992L12 22.876V9.68242L12.6582 9.12947C13.6894 8.26129 14.9807 7.70384 16.4004 7.70384ZM15 13.4816C14.9192 13.4816 14.8379 13.5188 14.7734 13.5944C14.4514 13.9719 14 14.6525 14 15.4075C14 16.1624 14.4514 16.8431 14.7734 17.2206C14.9024 17.3717 15.0976 17.3717 15.2266 17.2206C15.4846 16.9191 16 16.2385 16 15.4075C16 14.5765 15.5486 13.9719 15.2266 13.5944C15.1621 13.5188 15.0808 13.4816 15 13.4816Z" fill="#5389FF"/>
</svg>
