<svg width="25" height="26" viewBox="0 0 25 26" fill="none" xmlns="http://www.w3.org/2000/svg">
<path d="M11.7807 0.00349524C6.36069 -0.134505 1.50392 3.82918 0.64592 9.18318C0.00391993 13.1912 1.53081 16.8725 4.23381 19.2515C5.06381 19.9815 5.49944 21.0616 5.49944 22.1676V25.9996H15.4994V24.441C15.4994 23.58 16.0496 22.8165 16.8666 22.5445L20.1322 21.4566C20.9482 21.1836 21.4994 20.4192 21.4994 19.5582V15.7437L23.767 14.9625C23.9775 14.904 24.1631 14.7782 24.2953 14.6044C24.4276 14.4305 24.4993 14.2181 24.4994 13.9996C24.4987 13.7695 24.4187 13.5467 24.2729 13.3687L24.2455 13.3355C24.236 13.3242 24.2262 13.3132 24.2162 13.3023L21.4584 9.99764C21.0576 4.48469 17.3612 0.14407 11.7807 0.00349524ZM11.1381 3.99959H11.8608C11.9878 3.99959 12.0948 4.09525 12.1088 4.22225L12.1381 4.4781C12.1741 4.8051 12.4196 5.0644 12.7416 5.1324C12.9506 5.1764 13.1578 5.23146 13.3588 5.29646C13.6718 5.39746 14.0134 5.29779 14.2084 5.03279L14.3608 4.82576C14.4358 4.72276 14.5769 4.69535 14.6869 4.75935L15.3119 5.11873C15.4219 5.18273 15.4684 5.32009 15.4174 5.43709L15.31 5.67732C15.178 5.97832 15.2632 6.32451 15.5072 6.54451C15.6642 6.68651 15.8125 6.83573 15.9545 6.99373C16.1745 7.23773 16.5227 7.32104 16.8237 7.18904L17.0639 7.08357C17.1809 7.03257 17.3163 7.07709 17.3803 7.18709L17.7416 7.81404C17.8056 7.92404 17.7753 8.06521 17.6733 8.14021L17.4682 8.29256C17.2032 8.48756 17.1016 8.82917 17.2026 9.14217C17.2676 9.34317 17.3226 9.5474 17.3666 9.7574C17.4346 10.0794 17.6929 10.3269 18.0209 10.3629L18.2768 10.3902C18.4028 10.4032 18.4994 10.5103 18.4994 10.6383V11.3609C18.4994 11.4879 18.4038 11.595 18.2768 11.609C18.2018 11.617 18.1139 11.6263 18.0209 11.6363C17.6939 11.6723 17.4336 11.9198 17.3666 12.2418C17.3226 12.4508 17.2676 12.656 17.2026 12.857C17.1016 13.17 17.2032 13.5116 17.4682 13.7066L17.6733 13.859C17.7763 13.934 17.8056 14.0751 17.7416 14.1851L17.3803 14.8121C17.3163 14.9221 17.1809 14.9666 17.0639 14.9156L16.8237 14.8101C16.5227 14.6781 16.1745 14.7614 15.9545 15.0054C15.8125 15.1624 15.6652 15.3127 15.5072 15.4547C15.2632 15.6747 15.178 16.0209 15.31 16.3219L15.4155 16.5621C15.4665 16.6791 15.4219 16.8165 15.3119 16.8804L14.685 17.2398C14.575 17.3038 14.4338 17.2754 14.3588 17.1734L14.2084 16.9664C14.0134 16.7014 13.6718 16.6007 13.3588 16.7027C13.1578 16.7677 12.9516 16.8228 12.7416 16.8668C12.4196 16.9348 12.1741 17.1931 12.1381 17.5211L12.1088 17.7769C12.0948 17.9039 11.9888 17.9996 11.8608 17.9996H11.1381C11.0111 17.9996 10.9041 17.9039 10.8901 17.7769L10.8608 17.5211C10.8248 17.1941 10.5792 16.9348 10.2572 16.8668C10.0482 16.8228 9.84106 16.7677 9.64006 16.7027C9.32706 16.6017 8.98545 16.7014 8.79045 16.9664L8.64006 17.1734C8.56506 17.2764 8.42389 17.3038 8.31389 17.2398L7.68694 16.8804C7.57694 16.8165 7.53242 16.6791 7.58342 16.5621L7.68889 16.3219C7.82089 16.0209 7.73562 15.6747 7.49162 15.4547C7.33462 15.3127 7.18636 15.1634 7.04436 15.0054C6.82436 14.7614 6.47622 14.6781 6.17522 14.8101L5.93498 14.9156C5.81798 14.9666 5.68258 14.9221 5.61858 14.8121L5.25725 14.1851C5.19325 14.0751 5.22361 13.934 5.32561 13.859L5.53069 13.7066C5.79569 13.5116 5.89731 13.17 5.79631 12.857C5.73131 12.656 5.67625 12.4518 5.63225 12.2418C5.56425 11.9198 5.30595 11.6723 4.97795 11.6363L4.72209 11.609C4.59509 11.595 4.49944 11.4889 4.49944 11.3609V10.6383C4.49944 10.5113 4.59411 10.4053 4.76311 10.3863L4.97795 10.3609C5.30495 10.3249 5.56525 10.0784 5.63225 9.75545C5.67625 9.54645 5.73131 9.34121 5.79631 9.14021C5.89731 8.82721 5.79569 8.48365 5.53069 8.28865L5.32561 8.13826C5.22261 8.06226 5.19325 7.92209 5.25725 7.81209L5.61858 7.18514C5.68258 7.07514 5.81798 7.03062 5.93498 7.08162L6.17522 7.18709C6.47622 7.31909 6.82436 7.23578 7.04436 6.99178C7.18636 6.83478 7.33362 6.68456 7.49162 6.54256C7.73562 6.32256 7.82089 5.97637 7.68889 5.67537L7.58147 5.43514C7.53047 5.31814 7.57694 5.18078 7.68694 5.11678L8.31194 4.7574C8.42194 4.6934 8.56311 4.72181 8.63811 4.82381L8.79045 5.03084C8.98545 5.29584 9.32706 5.39551 9.64006 5.29451C9.84106 5.22951 10.0472 5.17445 10.2572 5.13045C10.5792 5.06345 10.8248 4.80415 10.8608 4.47615L10.8901 4.22029C10.9041 4.09529 11.0101 3.99959 11.1381 3.99959ZM11.4994 6.99959C9.29044 6.99959 7.49944 8.79059 7.49944 10.9996C7.49944 13.2086 9.29044 14.9996 11.4994 14.9996C13.7084 14.9996 15.4994 13.2086 15.4994 10.9996C15.4994 8.79059 13.7084 6.99959 11.4994 6.99959ZM11.4994 8.99959C12.6044 8.99959 13.4994 9.89459 13.4994 10.9996C13.4994 12.1046 12.6044 12.9996 11.4994 12.9996C10.3944 12.9996 9.49944 12.1046 9.49944 10.9996C9.49944 9.89459 10.3944 8.99959 11.4994 8.99959Z" fill="#5389FF"/>
</svg>
