<svg width="23" height="22" viewBox="0 0 23 22" fill="none" xmlns="http://www.w3.org/2000/svg">
<path d="M2.5 0C1.395 0 0.5 0.895 0.5 2V20C0.5 21.105 1.395 22 2.5 22H4.05664C3.71264 21.409 3.5 20.732 3.5 20V2C3.5 1.268 3.71264 0.591 4.05664 0H2.5ZM7.5 0C6.395 0 5.5 0.895 5.5 2V20C5.5 21.105 6.395 22 7.5 22H20.5C21.605 22 22.5 21.105 22.5 20V2C22.5 0.895 21.605 0 20.5 0H7.5ZM12.7871 4H15.2129L15.0117 13H12.9883L12.7871 4ZM14.0039 15.6484C14.9379 15.6484 15.5 16.1498 15.5 17.0078C15.5 17.8508 14.9379 18.3516 14.0039 18.3516C13.0619 18.3516 12.5 17.8508 12.5 17.0078C12.5 16.1498 13.0619 15.6484 14.0039 15.6484Z" fill="#5389FF"/>
</svg>
