<svg width="23" height="23" viewBox="0 0 23 23" fill="none" xmlns="http://www.w3.org/2000/svg">
<path d="M3.5 0.5C1.85503 0.5 0.5 1.85503 0.5 3.5V19.5C0.5 21.145 1.85503 22.5 3.5 22.5H16C16.2652 22.4999 16.5195 22.3946 16.707 22.207L22.207 16.707C22.3946 16.5195 22.4999 16.2652 22.5 16V3.5C22.5 1.85503 21.145 0.5 19.5 0.5H3.5ZM3.5 2.5H19.5C20.065 2.5 20.5 2.93497 20.5 3.5V15.5H17.5C16.395 15.5 15.5 16.395 15.5 17.5V20.5H3.5C2.93497 20.5 2.5 20.065 2.5 19.5V3.5C2.5 2.93497 2.93497 2.5 3.5 2.5ZM6.5 7.5C6.36749 7.49813 6.23593 7.52261 6.11296 7.57202C5.98999 7.62143 5.87807 7.6948 5.7837 7.78784C5.68933 7.88088 5.61439 7.99176 5.56324 8.11401C5.5121 8.23627 5.48576 8.36748 5.48576 8.5C5.48576 8.63253 5.5121 8.76373 5.56324 8.88599C5.61439 9.00824 5.68933 9.11912 5.7837 9.21216C5.87807 9.3052 5.98999 9.37857 6.11296 9.42798C6.23593 9.47739 6.36749 9.50187 6.5 9.5H10.5C10.6325 9.50187 10.7641 9.47739 10.887 9.42798C11.01 9.37857 11.1219 9.3052 11.2163 9.21216C11.3107 9.11912 11.3856 9.00824 11.4368 8.88599C11.4879 8.76373 11.5142 8.63253 11.5142 8.5C11.5142 8.36748 11.4879 8.23627 11.4368 8.11401C11.3856 7.99176 11.3107 7.88088 11.2163 7.78784C11.1219 7.6948 11.01 7.62143 10.887 7.57202C10.7641 7.52261 10.6325 7.49813 10.5 7.5H6.5ZM14.5 7.5C14.3675 7.49813 14.2359 7.52261 14.113 7.57202C13.99 7.62143 13.8781 7.6948 13.7837 7.78784C13.6893 7.88088 13.6144 7.99176 13.5632 8.11401C13.5121 8.23627 13.4858 8.36748 13.4858 8.5C13.4858 8.63253 13.5121 8.76373 13.5632 8.88599C13.6144 9.00824 13.6893 9.11912 13.7837 9.21216C13.8781 9.3052 13.99 9.37857 14.113 9.42798C14.2359 9.47739 14.3675 9.50187 14.5 9.5H16.5C16.6325 9.50187 16.7641 9.47739 16.887 9.42798C17.01 9.37857 17.1219 9.3052 17.2163 9.21216C17.3107 9.11912 17.3856 9.00824 17.4368 8.88599C17.4879 8.76373 17.5142 8.63253 17.5142 8.5C17.5142 8.36748 17.4879 8.23627 17.4368 8.11401C17.3856 7.99176 17.3107 7.88088 17.2163 7.78784C17.1219 7.6948 17.01 7.62143 16.887 7.57202C16.7641 7.52261 16.6325 7.49813 16.5 7.5H14.5ZM6.5 11.5C6.36749 11.4981 6.23593 11.5226 6.11296 11.572C5.98999 11.6214 5.87807 11.6948 5.7837 11.7878C5.68933 11.8809 5.61439 11.9918 5.56324 12.114C5.5121 12.2363 5.48576 12.3675 5.48576 12.5C5.48576 12.6325 5.5121 12.7637 5.56324 12.886C5.61439 13.0082 5.68933 13.1191 5.7837 13.2122C5.87807 13.3052 5.98999 13.3786 6.11296 13.428C6.23593 13.4774 6.36749 13.5019 6.5 13.5H14.5C14.6325 13.5019 14.7641 13.4774 14.887 13.428C15.01 13.3786 15.1219 13.3052 15.2163 13.2122C15.3107 13.1191 15.3856 13.0082 15.4368 12.886C15.4879 12.7637 15.5142 12.6325 15.5142 12.5C15.5142 12.3675 15.4879 12.2363 15.4368 12.114C15.3856 11.9918 15.3107 11.8809 15.2163 11.7878C15.1219 11.6948 15.01 11.6214 14.887 11.572C14.7641 11.5226 14.6325 11.4981 14.5 11.5H6.5Z" fill="#5389FF"/>
</svg>
