<svg width="31" height="30" viewBox="0 0 31 30" fill="none" xmlns="http://www.w3.org/2000/svg">
<path d="M25.207 8.793L18.707 2.293C18.519 2.105 18.265 2 18 2H7.5C6.395 2 5.5 2.895 5.5 4V26C5.5 27.105 6.395 28 7.5 28H23.5C24.605 28 25.5 27.105 25.5 26V9.5C25.5 9.235 25.395 8.981 25.207 8.793ZM18.5 21H10.5C9.948 21 9.5 20.552 9.5 20C9.5 19.448 9.948 19 10.5 19H18.5C19.052 19 19.5 19.448 19.5 20C19.5 20.552 19.052 21 18.5 21ZM20.5 17H10.5C9.948 17 9.5 16.552 9.5 16C9.5 15.448 9.948 15 10.5 15H20.5C21.052 15 21.5 15.448 21.5 16C21.5 16.552 21.052 17 20.5 17ZM18.5 10C17.948 10 17.5 9.552 17.5 9V3.904L23.596 10H18.5Z" fill="#5389FF"/>
</svg>
