<svg width="22" height="22" viewBox="0 0 22 22" fill="none" xmlns="http://www.w3.org/2000/svg">
<path d="M11 0C4.93573 0 0 4.93573 0 11C0 17.0643 4.93573 22 11 22C17.0643 22 22 17.0643 22 11C22 4.93573 17.0643 0 11 0ZM11 1.83333C16.0735 1.83333 20.1667 5.92653 20.1667 11C20.1667 16.0735 16.0735 20.1667 11 20.1667C5.92653 20.1667 1.83333 16.0735 1.83333 11C1.83333 5.92653 5.92653 1.83333 11 1.83333ZM6.875 9.16667C6.51033 9.16667 6.16059 9.31153 5.90273 9.5694C5.64487 9.82726 5.5 10.177 5.5 10.5417C5.5 10.9063 5.64487 11.2561 5.90273 11.5139C6.16059 11.7718 6.51033 11.9167 6.875 11.9167C7.23967 11.9167 7.58941 11.7718 7.84727 11.5139C8.10513 11.2561 8.25 10.9063 8.25 10.5417C8.25 10.177 8.10513 9.82726 7.84727 9.5694C7.58941 9.31153 7.23967 9.16667 6.875 9.16667ZM15.125 9.16667C14.7603 9.16667 14.4106 9.31153 14.1527 9.5694C13.8949 9.82726 13.75 10.177 13.75 10.5417C13.75 10.9063 13.8949 11.2561 14.1527 11.5139C14.4106 11.7718 14.7603 11.9167 15.125 11.9167C15.4897 11.9167 15.8394 11.7718 16.0973 11.5139C16.3551 11.2561 16.5 10.9063 16.5 10.5417C16.5 10.177 16.3551 9.82726 16.0973 9.5694C15.8394 9.31153 15.4897 9.16667 15.125 9.16667ZM8.24463 14.6595C8.05453 14.6702 7.87248 14.7398 7.72373 14.8586C7.57499 14.9775 7.46694 15.1397 7.41458 15.3227C7.36222 15.5058 7.36816 15.7006 7.43156 15.8801C7.49496 16.0596 7.61269 16.215 7.76839 16.3245C8.50567 16.8604 9.60972 17.4167 11 17.4167C12.3903 17.4167 13.4948 16.8608 14.2316 16.3245C14.329 16.2537 14.4115 16.1643 14.4743 16.0616C14.5371 15.9588 14.5791 15.8447 14.5978 15.7257C14.6166 15.6068 14.6117 15.4853 14.5834 15.3682C14.5552 15.2511 14.5042 15.1407 14.4333 15.0434C14.3624 14.946 14.273 14.8636 14.1702 14.8008C14.0674 14.738 13.9533 14.696 13.8343 14.6773C13.7153 14.6586 13.5939 14.6636 13.4768 14.6919C13.3597 14.7201 13.2494 14.7712 13.152 14.8421C12.6294 15.2225 11.9014 15.5833 11 15.5833C10.0986 15.5833 9.37024 15.223 8.84619 14.8421C8.6984 14.7312 8.52054 14.6676 8.33594 14.6595C8.30552 14.658 8.27505 14.658 8.24463 14.6595Z" fill="#5389FF"/>
</svg>
