<svg width="14" height="20" viewBox="0 0 14 20" fill="none" xmlns="http://www.w3.org/2000/svg">
<path d="M5.66016 3.8901e-05C5.55976 0.00106386 5.45718 0.0218639 5.35938 0.0656638L3.57595 0.8641C3.18473 1.0385 3.00536 1.50857 3.17491 1.91097L3.88129 3.57972C1.52818 5.18668 0 7.91054 0 10.9641C0 13.6118 1.15598 15.9927 2.96832 17.6156C2.17713 17.691 1.55556 18.3664 1.55556 19.2V20H14V19.2C14 18.316 13.3039 17.6 12.4444 17.6H9.51714L12.7923 15.9156C12.9513 15.8365 13.0794 15.7041 13.1555 15.5402C13.2317 15.3762 13.2513 15.1905 13.2111 15.0136C13.171 14.8367 13.0735 14.6791 12.9347 14.5667C12.7959 14.4543 12.6241 14.3939 12.4475 14.3953C12.3253 14.3963 12.2051 14.4268 12.0966 14.4844L6.03841 17.6H5.80447C5.24548 17.3505 4.72667 17.0253 4.25347 16.6422C4.59098 16.4958 4.88141 16.2542 5.09131 15.9455C5.30121 15.6367 5.42204 15.2732 5.43989 14.8969L11.2368 11.9156C11.3958 11.8365 11.5239 11.7041 11.6 11.5402C11.6761 11.3762 11.6957 11.1905 11.6556 11.0136C11.6155 10.8367 11.518 10.6791 11.3792 10.5667C11.2404 10.4543 11.0686 10.3939 10.8919 10.3953C10.7698 10.3963 10.6496 10.4268 10.541 10.4844L4.88238 13.3953C4.7017 13.207 4.48648 13.0574 4.24919 12.9552C4.0119 12.853 3.75725 12.8003 3.5 12.8C3.21748 12.8 2.93834 12.8633 2.68203 12.9856C2.42572 13.1078 2.19838 13.286 2.01584 13.5078C1.72371 12.7148 1.55556 11.8597 1.55556 10.9641C1.55556 8.55974 2.71508 6.42165 4.5178 5.08597L5.35786 7.07034L8.551 5.62034L6.37565 0.478163C6.24848 0.176364 5.96134 -0.00303613 5.66016 3.8901e-05ZM9.20725 7.05315L6.00651 8.54846L6.89214 9.38908C7.12003 9.60508 7.45061 9.66011 7.73372 9.52971L8.75152 9.0594C9.02919 8.9314 9.20725 8.6472 9.20725 8.3344V7.05315Z" fill="#5389FF"/>
</svg>
