<svg width="16" height="19" viewBox="0 0 16 19" fill="none" xmlns="http://www.w3.org/2000/svg">
<path d="M12.349 0.502739C11.5236 0.608738 9.46933 1.11953 9.33333 3.58084C9.326 3.72017 9.46624 3.84281 9.62891 3.83214C12.0902 3.67148 12.5714 1.54978 12.6654 0.764455C12.684 0.608457 12.5296 0.479406 12.349 0.502739ZM5.99349 1.16159C5.8495 1.16133 5.7093 1.2077 5.59386 1.29375C5.47841 1.3798 5.39392 1.50092 5.35303 1.63897C5.31214 1.77703 5.31705 1.92462 5.36701 2.05966C5.41697 2.1947 5.50931 2.30994 5.63021 2.38814C5.63021 2.38814 6.96753 3.26487 7.27083 5.08994C6.611 4.73475 5.87679 4.5001 5.06641 4.5001C2.27176 4.5001 0 6.82776 0 9.65762C0 12.0863 1.14004 14.2594 2.47786 15.8386C3.14678 16.6281 3.86744 17.2723 4.55469 17.7331C5.24193 18.1938 5.87067 18.5 6.53385 18.5C7.07853 18.5 7.46912 18.2696 7.80469 18.0807C7.91562 18.0183 7.91292 18.0114 8 17.9557C8.08708 18.0114 8.08438 18.0183 8.19531 18.0807C8.53089 18.2696 8.92147 18.5 9.46615 18.5C10.0785 18.5 10.7139 18.2615 11.4062 17.862C12.0986 17.4624 12.8303 16.8849 13.5078 16.1354C14.8628 14.6365 16 12.43 16 9.65762C16 6.82776 13.7282 4.5001 10.9336 4.5001C10.0789 4.5001 9.30679 4.75721 8.61979 5.14593C8.30924 2.5985 6.36979 1.27877 6.36979 1.27877C6.25903 1.20268 6.12787 1.16184 5.99349 1.16159ZM10.9336 5.83343C12.9896 5.83343 14.6667 7.53685 14.6667 9.65762C14.6667 12.0672 13.6889 13.9473 12.5195 15.2409C11.9349 15.8877 11.3019 16.3833 10.7409 16.707C10.1799 17.0308 9.6718 17.1667 9.46615 17.1667C9.44682 17.1667 9.10572 17.0638 8.84896 16.9193C8.5922 16.7748 8.39583 16.6302 8.39583 16.6302L8 16.3373V7.20321L8.4388 6.8204C9.1263 6.21935 9.9871 5.83343 10.9336 5.83343ZM10 9.8334C9.94617 9.8334 9.89196 9.85919 9.84896 9.91152C9.63429 10.1729 9.33333 10.6441 9.33333 11.1667C9.33333 11.6894 9.63429 12.1606 9.84896 12.4219C9.93496 12.5266 10.065 12.5266 10.151 12.4219C10.323 12.2133 10.6667 11.7421 10.6667 11.1667C10.6667 10.5914 10.3657 10.1729 10.151 9.91152C10.108 9.85919 10.0538 9.8334 10 9.8334Z" fill="#FFBB70"/>
</svg>
