<svg width="22" height="22" viewBox="0 0 22 22" fill="none" xmlns="http://www.w3.org/2000/svg">
<path d="M11 0.853516C10.3273 0.853516 9.68208 1.12076 9.20638 1.59646C8.73069 2.07215 8.46344 2.71733 8.46344 3.39007C8.46344 4.06281 8.73069 4.70799 9.20638 5.18369C9.68208 5.65938 10.3273 5.92663 11 5.92663C11.6727 5.92663 12.3179 5.65938 12.7936 5.18369C13.2693 4.70799 13.5366 4.06281 13.5366 3.39007C13.5366 2.71733 13.2693 2.07215 12.7936 1.59646C12.3179 1.12076 11.6727 0.853516 11 0.853516ZM11 5.92663L1.71086 5.91507C0.776559 5.91422 0.0182079 6.67015 0.0165169 7.60445L2.83149e-06 16.9052C-0.00168821 17.8386 0.754285 18.5962 1.68774 18.5978L8.46344 18.6061V10.4168C8.46344 9.96275 7.98583 9.66564 7.57829 9.86687L3.76851 11.7561C3.34913 11.9658 2.84283 11.7947 2.63399 11.3779C2.42515 10.9602 2.59448 10.4522 3.01216 10.2434L7.55022 7.97437C8.02033 7.73931 8.53619 7.61766 9.06125 7.61766H12.9354C13.4614 7.61766 13.9805 7.74096 14.4514 7.97602L18.9878 10.2434C19.4055 10.4522 19.5749 10.9602 19.366 11.3779C19.2172 11.673 18.9183 11.8453 18.608 11.8453C18.4812 11.8453 18.3524 11.8161 18.2315 11.7561L14.4217 9.86853C14.0142 9.66729 13.5366 9.96275 13.5366 10.4168V18.6127L20.2891 18.621C21.2234 18.6218 21.9818 17.8667 21.9835 16.9332L22 7.63253C22.0017 6.69823 21.2457 5.93903 20.3123 5.93819L11 5.92663ZM13.5366 18.6127L11.6771 18.6111L11.791 20.3302C11.8215 20.7893 12.203 21.146 12.663 21.146C13.1449 21.146 13.5366 20.7543 13.5366 20.2724V18.6127ZM11.6771 18.6111L11.4211 14.7748C11.405 14.5542 11.2224 14.3818 11 14.3818C10.7776 14.3818 10.5941 14.555 10.5789 14.7765L10.3229 18.6077L11.6771 18.6111ZM10.3229 18.6077L8.46344 18.6061V20.2724C8.46344 20.7543 8.85509 21.146 9.33704 21.146C9.797 21.146 10.1785 20.7884 10.209 20.3302L10.3229 18.6077Z" fill="#5389FF"/>
</svg>
