<svg width="18" height="18" viewBox="0 0 18 18" fill="none" xmlns="http://www.w3.org/2000/svg">
<path d="M9 0.5C8.44958 0.5 7.9217 0.723883 7.5325 1.1224C7.14329 1.52091 6.92464 2.06141 6.92464 2.625C6.92464 3.18859 7.14329 3.72909 7.5325 4.1276C7.9217 4.52612 8.44958 4.75 9 4.75C9.55042 4.75 10.0783 4.52612 10.4675 4.1276C10.8567 3.72909 11.0754 3.18859 11.0754 2.625C11.0754 2.06141 10.8567 1.52091 10.4675 1.1224C10.0783 0.723883 9.55042 0.5 9 0.5ZM9 4.75L1.39979 4.74032C0.635366 4.73961 0.0148974 5.37289 0.0135138 6.1556L2.31667e-06 13.9473C-0.00138126 14.7293 0.617142 15.3639 1.38088 15.3653L6.92464 15.3722V8.51164C6.92464 8.13126 6.53386 7.88236 6.20042 8.05094L3.08332 9.63363C2.7402 9.80929 2.32596 9.66602 2.15508 9.31681C1.98421 8.9669 2.12275 8.54133 2.4645 8.36637L6.17745 6.46549C6.56209 6.26858 6.98415 6.16667 7.41375 6.16667H10.5835C11.0138 6.16667 11.4386 6.26996 11.8239 6.46688L15.5355 8.36637C15.8772 8.54133 16.0158 8.9669 15.8449 9.31681C15.7232 9.56402 15.4786 9.70833 15.2247 9.70833C15.121 9.70833 15.0156 9.68392 14.9167 9.63363L11.7996 8.05233C11.4661 7.88374 11.0754 8.13126 11.0754 8.51164V15.3778L16.6002 15.3847C17.3646 15.3854 17.9851 14.7528 17.9865 13.9708L18 6.17912C18.0014 5.39641 17.3829 4.76039 16.6191 4.75968L9 4.75ZM11.0754 15.3778L9.55397 15.3764L9.6472 16.8166C9.6721 17.2012 9.98427 17.5 10.3606 17.5C10.7549 17.5 11.0754 17.1719 11.0754 16.7681V15.3778ZM9.55397 15.3764L9.34454 12.1626C9.3314 11.9777 9.18194 11.8333 9 11.8333C8.81806 11.8333 8.66791 11.9784 8.65546 12.164L8.44603 15.3736L9.55397 15.3764ZM8.44603 15.3736L6.92464 15.3722V16.7681C6.92464 17.1719 7.24508 17.5 7.63939 17.5C8.01573 17.5 8.3279 17.2005 8.3528 16.8166L8.44603 15.3736Z" fill="#FF7F95"/>
</svg>
