<svg width="23" height="24" viewBox="0 0 23 24" fill="none" xmlns="http://www.w3.org/2000/svg">
<path d="M8.57446 0.501291C8.33827 0.511376 8.10823 0.579836 7.90484 0.700573C7.70144 0.821309 7.531 0.990576 7.40869 1.1933C7.28638 1.39602 7.21601 1.6259 7.20382 1.86248C7.19164 2.09906 7.23804 2.33498 7.33887 2.54924L10.3718 9.23545L8.30756 7.11457C8.22549 7.02999 8.13334 6.95587 8.03319 6.89387L2.70636 3.60407C2.46246 3.44905 2.17751 3.37148 1.88886 3.38151C1.57943 3.39198 1.2817 3.50255 1.04021 3.69669C0.798709 3.89082 0.62642 4.15807 0.549107 4.45848C0.471795 4.75889 0.493616 5.07631 0.611304 5.36326C0.728993 5.65021 0.936225 5.89127 1.20201 6.05038L6.37766 9.24667L8.13398 11.0515H4.82104C4.4409 11.0516 4.07635 11.2029 3.80756 11.4723L0.940704 14.345C0.803136 14.4774 0.693305 14.6359 0.617644 14.8113C0.541983 14.9868 0.502013 15.1755 0.500074 15.3666C0.498135 15.5577 0.534267 15.7473 0.606353 15.9242C0.678438 16.1011 0.78503 16.2619 0.919884 16.397C1.05474 16.5321 1.21514 16.6389 1.39171 16.7112C1.56827 16.7834 1.75744 16.8196 1.94815 16.8177C2.13885 16.8157 2.32725 16.7757 2.50231 16.6999C2.67737 16.624 2.83558 16.514 2.96766 16.3761L5.41457 13.9242H7.21009C8.79355 13.9242 10.0769 15.2102 10.0769 16.797C10.0769 18.3837 8.79355 19.6697 7.21009 19.6697H6.25447H6.09022L5.06368 18.6392C3.89496 17.4681 1.99931 17.4681 0.830584 18.6392L0.733529 18.7364C0.463089 19.0074 0.463089 19.4473 0.733529 19.7183L3.66758 22.6584C4.20464 23.1975 4.93386 23.5 5.69454 23.5H6.25447H14.855H22.5V15.8394H18.6775L16.7663 11.0515V2.91207C16.769 2.71982 16.7332 2.52897 16.661 2.35084C16.5888 2.17271 16.4817 2.01091 16.3459 1.87505C16.2101 1.73918 16.0485 1.632 15.8707 1.55987C15.6928 1.48774 15.5023 1.45212 15.3105 1.45513C14.9306 1.46108 14.5687 1.61785 14.3041 1.89103C14.0395 2.16421 13.894 2.53144 13.8994 2.91207V10.0696L9.94816 1.35974C9.83217 1.09462 9.63895 0.870795 9.39382 0.717609C9.14869 0.564423 8.86309 0.489023 8.57446 0.501291Z" fill="#5389FF"/>
</svg>
