<svg width="12" height="12" viewBox="0 0 12 12" fill="none" xmlns="http://www.w3.org/2000/svg">
<path d="M1.09091 0C0.488182 0 0 0.488182 0 1.09091V10.9091C0 11.5118 0.488182 12 1.09091 12H1.93999C1.75235 11.6776 1.63636 11.3084 1.63636 10.9091V1.09091C1.63636 0.691636 1.75235 0.322364 1.93999 0H1.09091ZM3.81818 0C3.21545 0 2.72727 0.488182 2.72727 1.09091V10.9091C2.72727 11.5118 3.21545 12 3.81818 12H10.9091C11.5118 12 12 11.5118 12 10.9091V1.09091C12 0.488182 11.5118 0 10.9091 0H3.81818ZM6.70206 2.18182H8.02521L7.91548 7.09091H6.81179L6.70206 2.18182ZM7.36577 8.53551C7.87522 8.53551 8.18182 8.80899 8.18182 9.27699C8.18182 9.73681 7.87522 10.0099 7.36577 10.0099C6.85195 10.0099 6.54545 9.73681 6.54545 9.27699C6.54545 8.80899 6.85195 8.53551 7.36577 8.53551Z" fill="#F09E3A"/>
</svg>
