<svg width="30" height="27" viewBox="0 0 30 27" fill="none" xmlns="http://www.w3.org/2000/svg">
<path d="M12.5125 0.0146489C12.3225 0.0146489 12.1439 0.0144145 11.9539 0.0244145C5.33394 0.334415 0.212535 5.94543 0.512535 12.5654C0.812535 19.0054 6.123 24.0146 12.493 24.0146C12.683 24.0146 12.8736 24.0149 13.0536 24.0049C13.5036 23.9849 13.9439 23.934 14.3739 23.874C14.2239 23.564 14.093 23.245 13.993 22.915C13.883 22.615 13.7935 22.3054 13.7235 21.9854C13.8335 21.9754 13.9421 21.9455 14.0321 21.8955C13.9321 21.9155 13.8237 21.9343 13.7137 21.9443L13.4735 21.9756H13.4637C13.0937 21.9056 12.8021 21.5956 12.7821 21.2256L12.4129 15.9756C12.4029 15.7656 12.2228 15.6045 12.0028 15.6045C11.7828 15.6045 11.6028 15.7656 11.5828 15.9756L11.2235 21.2256C11.2035 21.4956 11.0433 21.734 10.8133 21.874C10.6833 21.944 10.5221 21.9951 10.3621 21.9951C10.0621 21.9951 9.78339 21.8345 9.64339 21.6045C9.55339 21.4745 9.50277 21.325 9.50277 21.165V10.9756C9.50277 10.5556 9.3323 10.1447 9.0223 9.84473L4.97347 5.9541L4.81332 5.8252C4.78332 5.8052 4.75347 5.77535 4.72347 5.73535C4.58347 5.60535 4.50277 5.40434 4.50277 5.19434C4.50277 4.75434 4.88261 4.40527 5.34261 4.40527C5.52261 4.40527 5.70285 4.46543 5.83285 4.56543C5.84285 4.57543 5.86386 4.58473 5.87386 4.59473L10.1727 8.03418C10.4727 8.27418 10.853 8.40527 11.243 8.40527H12.7625C13.1525 8.40527 13.5231 8.27418 13.8231 8.03418L18.1239 4.59473C18.2639 4.47473 18.4534 4.40527 18.6434 4.40527C18.8534 4.39527 19.0422 4.4552 19.1922 4.5752C19.2422 4.6152 19.2831 4.6541 19.3231 4.7041C19.6131 5.0441 19.5522 5.5552 19.1922 5.8252L19.0223 5.9541L14.9832 9.84473C14.6732 10.1447 14.493 10.5556 14.493 10.9756V15.9248C15.973 13.0248 18.9739 11.0346 22.4539 11.0146H22.5028C22.8228 11.0146 23.1437 11.0354 23.4637 11.0654C23.8037 11.1054 24.1435 11.1554 24.4735 11.2354C24.0635 4.90535 18.8025 0.0146489 12.5125 0.0146489ZM12.0438 2.02441H12.1336H12.2625C13.5125 2.14441 14.493 3.16504 14.493 4.41504C14.493 5.73504 13.3828 6.81543 12.0028 6.81543C10.6228 6.81543 9.50277 5.73504 9.50277 4.41504C9.50277 3.26504 10.3437 2.3052 11.4637 2.0752C11.4737 2.0652 11.4828 2.06543 11.5028 2.06543C11.6828 2.04543 11.8638 2.03441 12.0438 2.02441ZM22.1727 12.9854C22.0427 12.9854 21.9427 13.0741 21.9227 13.2041L21.8934 13.4658C21.8634 13.7858 21.6138 14.0443 21.2938 14.1143C21.0838 14.1543 20.8727 14.2144 20.6727 14.2744C20.3627 14.3744 20.0231 14.2746 19.8231 14.0146L19.6727 13.8057C19.6027 13.7057 19.4624 13.6754 19.3524 13.7354L18.7235 14.1045C18.6135 14.1645 18.5639 14.305 18.6239 14.415L18.7235 14.6553C18.8535 14.9553 18.7723 15.3044 18.5223 15.5244C18.3723 15.6644 18.2228 15.8156 18.0828 15.9756C17.8628 16.2156 17.5137 16.3048 17.2137 16.1748L16.9735 16.0654C16.8535 16.0154 16.7132 16.055 16.6532 16.165L16.2938 16.7959C16.2338 16.9059 16.2621 17.044 16.3621 17.124L16.5633 17.2744C16.8333 17.4644 16.9328 17.814 16.8328 18.124C16.7628 18.324 16.7129 18.5254 16.6629 18.7354C16.6029 19.0654 16.3425 19.3047 16.0125 19.3447L15.8036 19.3643C15.6336 19.3843 15.5321 19.494 15.5321 19.624V20.3447C15.5321 20.4747 15.6325 20.5747 15.7625 20.5947L16.0125 20.624C16.3025 20.654 16.5434 20.8543 16.6434 21.1143C16.6534 21.1543 16.6627 21.1856 16.6727 21.2256C16.7127 21.4356 16.7628 21.6447 16.8328 21.8447C16.8628 21.9347 16.8739 22.0243 16.8739 22.1143C16.8639 22.3443 16.7531 22.5543 16.5731 22.6943L16.3621 22.8447C16.2621 22.9147 16.2338 23.055 16.2938 23.165L16.4032 23.3643L16.6532 23.7959C16.7132 23.9059 16.8535 23.9555 16.9735 23.8955L17.2137 23.7959C17.5137 23.6659 17.8628 23.7454 18.0828 23.9854C18.2228 24.1454 18.3723 24.2946 18.5223 24.4346C18.7723 24.6546 18.8535 25.0057 18.7235 25.3057L18.6239 25.5459C18.5639 25.6659 18.6135 25.7943 18.7235 25.8643L19.3524 26.2256C19.4624 26.2856 19.6027 26.2553 19.6727 26.1553L19.8231 25.9541C20.0231 25.6841 20.3627 25.5846 20.6727 25.6846C20.8727 25.7546 21.0838 25.8045 21.2938 25.8545C21.6138 25.9145 21.8634 26.1749 21.8934 26.5049L21.9227 26.7646C21.9427 26.8846 22.0427 26.9854 22.1727 26.9854H22.8934C23.0234 26.9854 23.1334 26.8849 23.1434 26.7549L23.1727 26.5049C23.2127 26.1749 23.4523 25.9147 23.7723 25.8447C23.9823 25.8047 24.1934 25.7546 24.3934 25.6846C24.7034 25.5846 25.053 25.6843 25.243 25.9443L25.3934 26.1553C25.4734 26.2553 25.6135 26.2856 25.7235 26.2256L26.3426 25.8643C26.4526 25.7943 26.5039 25.6659 26.4539 25.5459L26.3426 25.3057C26.2126 25.0057 26.2938 24.6546 26.5438 24.4346C26.7038 24.2946 26.853 24.1454 26.993 23.9854C27.213 23.7454 27.5521 23.6659 27.8621 23.7959L28.1024 23.8955C28.2124 23.9455 28.3529 23.9059 28.4129 23.7959L28.7723 23.165C28.8423 23.055 28.8139 22.9147 28.7039 22.8447L28.5028 22.6943C28.2328 22.4943 28.1332 22.1547 28.2332 21.8447C28.3032 21.6347 28.3532 21.4356 28.4032 21.2256C28.4732 20.9056 28.7336 20.6543 29.0536 20.6143C29.1536 20.6043 29.2333 20.5947 29.3133 20.5947C29.4433 20.5747 29.5321 20.4747 29.5321 20.3447V19.624C29.5321 19.494 29.4433 19.384 29.3133 19.374L29.0536 19.3447C28.7336 19.3047 28.4732 19.0651 28.4032 18.7451C28.3632 18.5351 28.303 18.324 28.243 18.124C28.133 17.814 28.2328 17.4644 28.5028 17.2744L28.7137 17.124C28.8137 17.044 28.8423 16.9059 28.7723 16.7959L28.4129 16.1748C28.3529 16.0648 28.2124 16.0154 28.1024 16.0654L27.8621 16.1748C27.5521 16.3048 27.213 16.2256 26.993 15.9756C26.853 15.8156 26.7038 15.6644 26.5438 15.5244C26.2938 15.3044 26.2126 14.9653 26.3426 14.6553L26.4539 14.415C26.5039 14.305 26.4526 14.1645 26.3426 14.1045L25.7235 13.7451C25.6135 13.6751 25.4734 13.7057 25.3934 13.8057L25.243 14.0146C25.053 14.2746 24.7034 14.3744 24.3934 14.2744C24.3634 14.2644 24.3238 14.2551 24.2938 14.2451C24.1238 14.1951 23.9621 14.1443 23.7821 14.1143C23.6021 14.0743 23.4426 13.9747 23.3426 13.8447C23.2526 13.7347 23.1927 13.6058 23.1727 13.4658L23.1434 13.2041C23.1334 13.0741 23.0234 12.9854 22.8934 12.9854H22.4539H22.1727ZM22.5321 15.9854C22.6121 15.9854 22.6923 15.9851 22.7723 15.9951C23.1123 16.0151 23.4428 16.0748 23.7528 16.1748C25.3628 16.6848 26.5321 18.2054 26.5321 19.9854C26.5321 22.1954 24.7421 23.9854 22.5321 23.9854C21.0721 23.9854 19.7926 23.2042 19.0926 22.0342C18.9226 21.7542 18.7922 21.4443 18.6922 21.1143C18.5922 20.7543 18.5321 20.3754 18.5321 19.9854C18.5321 18.0854 19.8536 16.495 21.6336 16.085C21.9236 16.025 22.2221 15.9854 22.5321 15.9854ZM22.5321 18.9854C22.4321 18.9854 22.3232 19.0042 22.2332 19.0342C21.8532 19.1542 21.5738 19.4855 21.5438 19.8955C21.5338 19.9255 21.5321 19.9554 21.5321 19.9854C21.5321 20.5354 21.9821 20.9854 22.5321 20.9854C23.0821 20.9854 23.5321 20.5354 23.5321 19.9854C23.5321 19.4354 23.0821 18.9854 22.5321 18.9854Z" fill="#5389FF"/>
</svg>
