<svg width="25" height="24" viewBox="0 0 25 24" fill="none" xmlns="http://www.w3.org/2000/svg">
<path d="M7.5 0C6.395 0 5.5 0.895 5.5 2V5C5.5 6.105 6.395 7 7.5 7H10L12.5 9.5L15 7H17.5C18.605 7 19.5 6.105 19.5 5V2C19.5 0.895 18.605 0 17.5 0H7.5ZM6.5 9.00195C4.077 9.00195 2.11133 10.4603 2.11133 13.0723C2.11133 14.1763 2.73242 15.0371 2.73242 15.0371C2.73242 15.0371 2.44922 15.1737 2.44922 15.7637C2.44922 16.9097 3.18555 17.1836 3.18555 17.1836C3.26455 17.8796 4.109 18.8187 4.5 19.2207V20.3457C3.568 21.7707 1.454 21.525 0.5 24H12.5C11.546 21.525 9.432 21.7697 8.5 20.3457V19.2227C8.891 18.8207 9.73545 17.8805 9.81445 17.1855C9.81445 17.1855 10.5508 16.6766 10.5508 15.7656C10.5508 15.1336 10.2676 15.0371 10.2676 15.0371C10.2676 15.0371 10.7754 14.0762 10.7754 13.1582C10.7754 11.3182 9.85178 9.90234 8.30078 9.90234C8.30078 9.90234 7.641 9.00195 6.5 9.00195ZM18.5 9.00195C16.077 9.00195 14.1113 10.4603 14.1113 13.0723C14.1113 14.1763 14.7324 15.0371 14.7324 15.0371C14.7324 15.0371 14.4492 15.1737 14.4492 15.7637C14.4492 16.9097 15.1855 17.1836 15.1855 17.1836C15.2645 17.8796 16.109 18.8187 16.5 19.2207V20.3457C15.894 21.2717 14.7891 21.4948 13.8281 22.2148C14.0241 22.5308 14.2092 22.8753 14.3652 23.2793L14.6445 24H24.5C23.546 21.525 21.432 21.7697 20.5 20.3457V19.2227C20.891 18.8207 21.7355 17.8805 21.8145 17.1855C21.8145 17.1855 22.5508 16.6766 22.5508 15.7656C22.5508 15.1336 22.2676 15.0371 22.2676 15.0371C22.2676 15.0371 22.7754 14.0762 22.7754 13.1582C22.7754 11.3182 21.8518 9.90234 20.3008 9.90234C20.3008 9.90234 19.641 9.00195 18.5 9.00195Z" fill="#5389FF"/>
</svg>
