<svg width="22" height="22" viewBox="0 0 22 22" fill="none" xmlns="http://www.w3.org/2000/svg">
<path d="M7 0C4.75 0 2.93523 0.879756 1.75195 2.21094C0.56868 3.54212 0 5.27778 0 7C0 9.57927 0.460946 11.2217 0.957031 12.4219C1.45312 13.622 1.88528 14.2967 2.00977 15.1445V15.1465C2.18444 16.3341 2.4109 17.8811 2.91211 19.2344C3.16271 19.911 3.47868 20.55 3.96875 21.0762C4.45882 21.6023 5.18837 22 6 22C7.2599 22 8.28108 21.3135 8.85547 20.4668C9.42986 19.6201 9.6965 18.6496 9.92773 17.748C10.159 16.8465 10.3542 15.9988 10.5762 15.5C10.6872 15.2506 10.7995 15.1036 10.8594 15.0508C10.9192 14.998 10.9011 15 11 15C11.099 15 11.0808 14.998 11.1406 15.0508C11.2005 15.1036 11.3128 15.2506 11.4238 15.5C11.6458 15.9988 11.841 16.8465 12.0723 17.748C12.3035 18.6496 12.5701 19.6201 13.1445 20.4668C13.7189 21.3135 14.7401 22 16 22C16.8116 22 17.5412 21.6023 18.0312 21.0762C18.5213 20.55 18.8373 19.911 19.0879 19.2344C19.5891 17.8811 19.8156 16.3341 19.9902 15.1465V15.1445C20.1147 14.2967 20.5469 13.622 21.043 12.4219C21.5391 11.2218 22 9.57927 22 7C22 5.27778 21.4313 3.54212 20.248 2.21094C19.0648 0.879756 17.25 0 15 0C13.3889 0 12.257 0.271039 11.5039 0.572266C11.2454 0.67567 11.0359 0.788916 10.8535 0.898438C9.83961 0.38535 8.56459 0 7 0ZM7 2C10.785 2 12.1348 4.50195 12.1348 4.50195C12.2007 4.61562 12.2883 4.71519 12.3927 4.79498C12.4971 4.87477 12.6162 4.93322 12.7431 4.96698C12.8701 5.00074 13.0025 5.00915 13.1327 4.99174C13.2629 4.97433 13.3885 4.93143 13.5021 4.8655C13.6158 4.79957 13.7153 4.7119 13.7951 4.60749C13.8748 4.50308 13.9332 4.38398 13.9669 4.257C14.0007 4.13001 14.009 3.99763 13.9916 3.8674C13.9741 3.73718 13.9312 3.61167 13.8652 3.49805C13.8652 3.49805 13.5031 2.93034 12.7852 2.25586C13.2999 2.11756 14.0128 2 15 2C16.75 2 17.9352 2.62024 18.752 3.53906C19.5687 4.45788 20 5.72222 20 7C20 9.35173 19.62 10.6308 19.1953 11.6582C18.7706 12.6856 18.2023 13.5443 18.0098 14.8555C17.8365 16.0336 17.6035 17.4844 17.2129 18.5391C17.0175 19.0667 16.7798 19.4837 16.5664 19.7129C16.353 19.942 16.2304 20 16 20C15.3514 20 15.1167 19.8115 14.8008 19.3457C14.4848 18.8799 14.2274 18.1004 14.0098 17.252C13.7921 16.4035 13.6141 15.5012 13.252 14.6875C13.0709 14.2807 12.839 13.8808 12.4648 13.5508C12.1381 13.2626 11.6826 13.0668 11.207 13.0195C11.1389 13.0058 11.0695 12.9993 11 13C10.9298 12.9992 10.8598 13.0057 10.791 13.0195C10.3162 13.0672 9.86142 13.263 9.53516 13.5508C9.16101 13.8808 8.9291 14.2807 8.74805 14.6875C8.38593 15.5012 8.20787 16.4035 7.99023 17.252C7.7726 18.1004 7.51517 18.8799 7.19922 19.3457C6.88326 19.8115 6.6486 20 6 20C5.76963 20 5.64702 19.942 5.43359 19.7129C5.22017 19.4837 4.98251 19.0667 4.78711 18.5391C4.39652 17.4844 4.16354 16.0336 3.99023 14.8555V14.8535C3.79742 13.5436 3.22912 12.685 2.80469 11.6582C2.38002 10.6308 2 9.35173 2 7C2 5.72222 2.43132 4.45788 3.24805 3.53906C4.06477 2.62024 5.25 2 7 2Z" fill="#5389FF"/>
</svg>
