<svg width="22" height="22" viewBox="0 0 22 22" fill="none" xmlns="http://www.w3.org/2000/svg">
<path d="M2.75007 9.79256e-05C1.24217 9.79256e-05 9.83515e-05 1.24217 9.83515e-05 2.75007V4.58339C-0.00723492 5.08939 0.398229 5.50525 0.904224 5.51258C1.41022 5.51991 1.82608 5.11537 1.83342 4.60846V4.58339V2.75007C1.83342 2.23216 2.23216 1.83341 2.75007 1.83341H4.58339C5.08939 1.84075 5.50525 1.43528 5.51258 0.929289C5.51992 0.423293 5.11537 0.00743119 4.60846 9.79256e-05H4.58339H2.75007ZM17.4166 9.79256e-05C16.9106 -0.00723534 16.4948 0.398228 16.4874 0.904224C16.4801 1.41022 16.8846 1.82608 17.3915 1.83341H17.4166H19.2499C19.7678 1.83341 20.1666 2.23216 20.1666 2.75007V4.58339C20.1593 5.08939 20.5647 5.50525 21.0707 5.51258C21.5767 5.51991 21.9926 5.11537 21.9999 4.60846V4.58339V2.75007C21.9999 1.24217 20.7578 9.79256e-05 19.2499 9.79256e-05H17.4166ZM11.0018 4.57981C5.54767 4.57981 2.01933 10.4836 1.95516 10.5936C1.87266 10.7128 1.82625 10.8498 1.82625 10.9964C1.82625 11.1156 1.8534 11.2355 1.91756 11.3455H1.92651C1.93568 11.373 4.89685 17.413 11.0018 17.413C17.0792 17.413 20.0315 11.4278 20.0681 11.3545C20.0773 11.3545 20.0771 11.3455 20.0771 11.3455C20.1412 11.2355 20.1773 11.1156 20.1773 10.9964C20.1773 10.8498 20.1309 10.7128 20.0484 10.5936C20.0118 10.5386 19.1148 9.03499 17.5473 7.55C15.9798 6.05584 13.7243 4.57981 11.0018 4.57981ZM11.0018 6.50443C13.3668 6.50443 15.2825 8.51227 15.2825 10.9964C15.2825 13.4714 13.3668 15.4884 11.0018 15.4884C8.63681 15.4884 6.72107 13.4714 6.72107 10.9964C6.72107 8.51227 8.63681 6.50443 11.0018 6.50443ZM11 9.09328C9.98618 9.09328 9.16489 9.91456 9.16489 10.9284C9.16489 11.9422 9.98618 12.7635 11 12.7635C12.0138 12.7635 12.8351 11.9422 12.8351 10.9284C12.8351 9.91456 12.0138 9.09328 11 9.09328ZM0.902434 16.4874C0.396439 16.4957 -0.00723492 16.9115 9.83515e-05 17.4166V19.2499C9.83515e-05 20.7578 1.24217 21.9999 2.75007 21.9999H4.58339C5.08939 22.0072 5.50525 21.6018 5.51258 21.0958C5.51992 20.5898 5.11537 20.1739 4.60846 20.1666H4.58339H2.75007C2.23216 20.1666 1.83342 19.7678 1.83342 19.2499V17.4166C1.84075 16.9106 1.43528 16.4948 0.929289 16.4874H0.902434ZM21.0689 16.4874C20.5638 16.4957 20.1593 16.9115 20.1666 17.4166V19.2499C20.1666 19.7678 19.7678 20.1666 19.2499 20.1666H17.4166C16.9106 20.1593 16.4948 20.5647 16.4874 21.0707C16.4801 21.5767 16.8855 21.9926 17.3915 21.9999H17.4166H19.2499C20.7578 21.9999 21.9999 20.7578 21.9999 19.2499V17.4166C22.0072 16.9106 21.6018 16.4948 21.0958 16.4874H21.0689Z" fill="#5389FF"/>
</svg>
