<svg width="30" height="93" viewBox="0 0 30 93" fill="none" xmlns="http://www.w3.org/2000/svg">
<path d="M16.4057 0.954682C11.8471 0.426848 9.78376 15.734 7.48049 29.8416C6.23288 37.3752 4.69737 45.2927 3.54573 51.9146C2.39409 58.5365 -0.580964 83.3927 1.86627 90.7344C2.92193 93.9494 25.3309 93.1337 27.4902 91.5981C31.0411 89.0549 29.6015 67.8456 28.306 53.0663C25.9067 41.262 25.5228 32.9126 24.0833 23.4596C22.7877 14.8223 19.7646 1.38655 16.4057 1.00267V0.954682Z" fill="#F3EEEA"/>
<mask id="mask0_44_15619" style="mask-type:luminance" maskUnits="userSpaceOnUse" x="0" y="0" width="30" height="93">
<path d="M16.4024 0.952156C12.6596 0.664247 10.5962 9.44548 7.47723 30.175C6.32559 37.7086 4.69411 45.2902 3.54247 51.9121C1.47912 63.9083 -0.200346 86.8451 1.863 90.7319C3.01464 93.8989 25.4716 93.3231 27.4869 91.5956C31.3257 89.0044 29.1664 62.2768 28.3027 53.0637C25.7115 40.2998 25.2796 31.8064 23.8401 22.3054C22.5445 13.6682 19.7134 1.24007 16.4024 0.952156Z" fill="white"/>
</mask>
<g mask="url(#mask0_44_15619)">
<g opacity="0.2">
<path opacity="0.05" d="M7.76573 75.4247C8.34155 69.4745 8.67741 63.1885 6.08623 57.7662C5.51041 56.5186 4.35878 55.175 3.06319 55.5589C1.95954 55.8948 1.62366 57.2864 1.43172 58.39C0.136131 66.7874 -1.20746 75.2327 -0.871568 83.6781C-0.727614 87.2289 -0.103794 91.1637 2.63134 93.323C3.59104 94.0908 6.27819 95.2904 7.38184 94.1388C8.29355 93.1791 7.23787 90.6359 7.1419 89.4842C6.66205 84.7817 7.28587 80.0312 7.71773 75.3287L7.76573 75.4247Z" fill="#C3AA9D"/>
<path opacity="0.1" d="M7.52593 75.4673C8.10175 69.5171 8.48563 63.3271 5.99042 57.9528C5.4146 56.7052 4.31093 55.3616 3.01534 55.7935C1.95967 56.1294 1.62381 57.4729 1.43187 58.6246C0.136274 66.926 -1.11134 75.3233 -0.82343 83.7207C-0.679475 87.2236 -0.103651 91.1583 2.63149 93.3177C3.59119 94.0854 6.23032 95.285 7.28599 94.1334C8.1977 93.2217 7.09405 90.6305 6.9501 89.5268C6.47025 84.8723 7.09407 80.1218 7.52593 75.4673Z" fill="#C3AA9D"/>
<path opacity="0.14" d="M7.33392 75.4696C7.86176 69.5674 8.34159 63.4254 5.89436 58.0991C5.31854 56.8515 4.21493 55.5559 2.96732 55.9397C1.91165 56.2756 1.57576 57.6192 1.4318 58.7708C0.184197 67.0242 -1.06344 75.3736 -0.775533 83.723C-0.631578 87.2259 -0.0557377 91.0647 2.58343 93.224C3.49514 93.9918 6.08631 95.1434 7.14198 94.0397C8.00571 93.128 6.85406 90.5368 6.75809 89.4332C6.27824 84.7787 6.85407 80.1241 7.28593 75.4696H7.33392Z" fill="#C3AA9D"/>
<path opacity="0.19" d="M7.14221 75.5172C7.67004 69.663 8.24588 63.5689 5.84663 58.2906C5.3188 57.091 4.21515 55.7474 2.96755 56.1313C1.95987 56.4672 1.62397 57.8107 1.43203 58.9144C0.184426 67.1198 -1.01522 75.3732 -0.727309 83.6746C-0.583355 87.1295 -0.00752419 90.9683 2.58366 93.1276C3.49537 93.8954 6.03857 95.047 7.04626 93.9434C7.90998 93.0316 6.71034 90.4884 6.61437 89.3848C6.18251 84.7782 6.71035 80.1237 7.14221 75.5172Z" fill="#C3AA9D"/>
<path opacity="0.24" d="M6.90222 75.5188C7.43005 69.7126 8.05385 63.6665 5.70259 58.4362C5.17476 57.2365 4.11908 55.893 2.91946 56.3248C1.91178 56.6607 1.5759 58.0043 1.43194 59.1079C0.232318 67.2654 -0.967316 75.4228 -0.679407 83.6762C-0.535452 87.1311 -0.00762677 90.9219 2.53557 93.0333C3.3993 93.753 5.89451 94.9527 6.95017 93.849C7.8139 92.9373 6.51831 90.3941 6.42234 89.2904C5.99047 84.7319 6.51834 80.0773 6.90222 75.5188Z" fill="#C3AA9D"/>
<path opacity="0.29" d="M6.71048 75.566C7.23832 69.8078 7.9101 63.8577 5.65481 58.6273C5.12698 57.4277 4.07131 56.1321 2.91967 56.516C1.91199 56.8519 1.62407 58.1475 1.48011 59.2511C0.28049 67.3126 -0.871149 75.47 -0.58324 83.6275C-0.48727 87.0344 0.0885661 90.8252 2.58378 92.9365C3.44751 93.6563 5.89474 94.8079 6.90243 93.7523C7.71817 92.8406 6.42257 90.2974 6.3266 89.2417C5.89473 84.6831 6.37457 80.0766 6.80644 75.566H6.71048Z" fill="#C3AA9D"/>
<path opacity="0.33" d="M6.51762 75.5685C7.04545 69.8583 7.81319 63.9562 5.5579 58.7738C5.03007 57.5742 4.02239 56.2786 2.87076 56.6625C1.91106 56.9984 1.57519 58.294 1.43123 59.3976C0.279595 67.4111 -0.87207 75.4726 -0.584161 83.582C-0.488191 86.9889 0.0876347 90.7318 2.53486 92.8431C3.39859 93.5629 5.74984 94.7145 6.75752 93.6588C7.57326 92.7471 6.1817 90.2519 6.08574 89.1483C5.65387 84.6377 6.13374 80.0791 6.51762 75.5685Z" fill="#C3AA9D"/>
<path opacity="0.38" d="M6.27774 75.5642C6.75759 69.9019 7.62131 64.0478 5.41401 58.9134C4.93416 57.7138 3.9265 56.4662 2.77486 56.8501C1.81516 57.186 1.52725 58.4815 1.38329 59.5372C0.279642 67.5027 -0.872013 75.5162 -0.584104 83.5297C-0.488134 86.8886 0.0877076 90.6314 2.43897 92.6948C3.25471 93.4145 5.60597 94.5662 6.56567 93.4625C7.38141 92.5508 5.94186 90.0556 5.84589 88.9999C5.41403 84.5373 5.84587 79.9788 6.27774 75.5162V75.5642Z" fill="#C3AA9D"/>
<path opacity="0.43" d="M6.08597 75.6155C6.56582 70.0013 7.47756 64.1951 5.36622 59.1087C4.88638 57.9571 3.87866 56.6615 2.82299 57.0454C1.91128 57.3813 1.62338 58.6289 1.47942 59.7325C0.375772 67.6021 -0.727888 75.5676 -0.439979 83.581C-0.344009 86.94 0.183838 90.6348 2.5351 92.6982C3.35084 93.4179 5.60615 94.5696 6.56585 93.4659C7.33361 92.6022 5.89404 90.059 5.79807 89.0033C5.41419 84.5887 5.79809 80.0301 6.22995 75.6155H6.08597Z" fill="#C3AA9D"/>
<path opacity="0.48" d="M5.84586 75.6122C6.32571 70.046 7.33337 64.2878 5.22204 59.2494C4.74219 58.0977 3.7825 56.8021 2.72684 57.186C1.81512 57.5219 1.52722 58.7695 1.38327 59.8732C0.327598 67.6947 -0.776062 75.6122 -0.536137 83.5297C-0.440167 86.8407 0.0876592 90.5355 2.34295 92.5509C3.11071 93.2706 5.366 94.3743 6.27771 93.3186C7.04547 92.4549 5.50995 89.9597 5.41398 88.904C5.0301 84.4894 5.41399 79.9788 5.79787 75.6122H5.84586Z" fill="#C3AA9D"/>
<path opacity="0.52" d="M5.65392 75.6625C6.13377 70.1443 7.18944 64.4821 5.17408 59.4436C4.69423 58.292 3.78251 57.0444 2.72684 57.4283C1.86311 57.7642 1.57522 59.0118 1.43126 60.0675C0.375597 67.841 -0.680105 75.6625 -0.44018 83.5321C-0.34421 86.795 0.183642 90.4419 2.39095 92.5052C3.15871 93.225 5.31804 94.3287 6.22975 93.273C6.94953 92.4093 5.414 89.9141 5.31803 88.9064C4.93415 84.5397 5.31804 80.0772 5.70192 75.7105L5.65392 75.6625Z" fill="#C3AA9D"/>
<path opacity="0.57" d="M5.46286 75.6631C5.89472 70.1449 7.09433 64.5786 5.07897 59.5882C4.59912 58.4365 3.73539 57.1889 2.67972 57.5728C1.81599 57.9087 1.52811 59.1563 1.43214 60.212C0.424459 67.9375 -0.631232 75.7111 -0.391307 83.4846C-0.295338 86.7476 0.18451 90.3465 2.34383 92.3619C3.11159 93.0816 5.22292 94.1853 6.08665 93.1296C6.80642 92.2659 5.17494 89.8187 5.07897 88.763C4.69509 84.4443 5.07897 79.9818 5.41486 75.6631H5.46286Z" fill="#C3AA9D"/>
<path opacity="0.62" d="M5.22229 75.7106C5.65415 70.2403 6.90177 64.722 4.93439 59.7796C4.50253 58.6279 3.59084 57.3803 2.63114 57.7642C1.8154 58.1001 1.52748 59.2997 1.38352 60.3554C0.375839 67.985 -0.631857 75.7106 -0.391932 83.4361C-0.295963 86.6511 0.183874 90.25 2.29521 92.2654C3.01498 92.9851 5.07834 94.0408 5.94207 93.0331C6.66184 92.1694 4.98237 89.7222 4.8864 88.7145C4.50252 84.3958 4.8864 79.9812 5.22229 75.7106Z" fill="#C3AA9D"/>
<path opacity="0.67" d="M5.03015 75.7121C5.46201 70.2898 6.75757 64.8195 4.88616 59.9251C4.4543 58.8214 3.5906 57.5738 2.6309 57.9577C1.81516 58.2936 1.57523 59.4932 1.43128 60.5489C0.471582 68.1305 -0.536103 75.7601 -0.296179 83.4376C-0.200209 86.6526 0.279607 90.2035 2.29497 92.1709C3.01475 92.8427 5.03014 93.9463 5.84588 92.9387C6.51767 92.0749 4.7902 89.6277 4.74221 88.62C4.40632 84.3494 4.74224 79.9827 5.03015 75.7121Z" fill="#C3AA9D"/>
<path opacity="0.71" d="M4.83841 75.7595C5.27028 70.3852 6.66184 64.9629 4.83841 60.1165C4.40655 59.0128 3.59081 57.7652 2.63111 58.1491C1.86335 58.437 1.57542 59.6846 1.47945 60.6923C0.51975 68.2259 -0.43994 75.8075 -0.200016 83.4371C-0.104046 86.6041 0.327812 90.155 2.34318 92.1224C3.06295 92.7942 4.98235 93.8978 5.79809 92.8901C6.46988 92.0264 4.69444 89.6272 4.59847 88.6195C4.26258 84.3968 4.55048 80.0302 4.88637 75.8075L4.83841 75.7595Z" fill="#C3AA9D"/>
<path opacity="0.76" d="M4.59886 75.7564C4.98274 70.43 6.47025 65.0557 4.69481 60.2573C4.26295 59.1536 3.44722 57.954 2.53551 58.2899C1.76775 58.5778 1.52784 59.8254 1.38388 60.8331C0.472168 68.3187 -0.439564 75.8044 -0.247625 83.386C-0.151655 86.553 0.280229 90.0559 2.24761 91.9753C2.9194 92.6471 4.83878 93.7027 5.60654 92.695C6.27833 91.8793 4.4069 89.4321 4.35892 88.4244C4.02303 84.2497 4.31095 79.8831 4.59886 75.7084V75.7564Z" fill="#C3AA9D"/>
<path opacity="0.81" d="M4.40682 75.8067C4.7907 70.5283 6.32622 65.25 4.59877 60.4515C4.21489 59.3478 3.39914 58.1482 2.53542 58.5321C1.76766 58.82 1.52775 60.0196 1.43178 61.0273C0.520071 68.417 -0.343666 75.9026 -0.151726 83.3883C-0.0557567 86.5073 0.376107 90.0102 2.24752 91.9296C2.91931 92.6014 4.74273 93.657 5.51049 92.6493C6.1343 91.8336 4.26289 89.3864 4.16692 88.4267C3.83103 84.252 4.07093 79.9334 4.40682 75.8067Z" fill="#C3AA9D"/>
<path opacity="0.86" d="M4.16696 75.8072C4.55084 70.5769 6.18232 65.3465 4.45486 60.596C4.07098 59.4924 3.30323 58.2928 2.4395 58.6766C1.71973 58.9645 1.4798 60.1642 1.38383 61.1719C0.520102 68.5135 -0.343624 75.9032 -0.151685 83.3409C-0.0557148 86.4599 0.328154 89.8668 2.19956 91.7862C2.82337 92.458 4.64681 93.5137 5.36659 92.506C5.99039 91.6902 4.023 89.291 3.97502 88.2833C3.63912 84.1566 3.87905 79.886 4.16696 75.7593V75.8072Z" fill="#C3AA9D"/>
<path opacity="0.9" d="M3.97522 75.8546C4.3591 70.6722 6.03855 65.4898 4.40707 60.7873C4.02319 59.6836 3.30343 58.532 2.4397 58.8679C1.71993 59.1558 1.52799 60.3554 1.38403 61.3631C0.520303 68.6568 -0.295465 75.9985 -0.103526 83.3402C-0.00755577 86.4112 0.376329 89.8182 2.15177 91.7375C2.77557 92.4093 4.50303 93.465 5.2228 92.4573C5.79862 91.6416 3.83125 89.2423 3.73528 88.2826C3.44737 84.2039 3.63931 79.9333 3.92722 75.8546H3.97522Z" fill="#C3AA9D"/>
<path opacity="0.95" d="M3.78318 75.8562C4.11907 70.7218 5.89452 65.5875 4.31102 60.9329C3.92714 59.8773 3.20736 58.6776 2.39161 59.0615C1.71983 59.3494 1.47991 60.549 1.38394 61.5087C0.568193 68.7065 -0.247565 76.0002 -0.0556255 83.2939C0.0403443 86.3649 0.424219 89.7239 2.15167 91.5953C2.77548 92.2671 4.45496 93.2747 5.12675 92.315C5.70257 91.4993 3.68721 89.1 3.59124 88.1403C3.30333 84.0616 3.49526 79.839 3.73519 75.8082L3.78318 75.8562Z" fill="#C3AA9D"/>
<path d="M3.54339 75.9035C3.87929 70.8171 5.75069 65.7307 4.21518 61.1242C3.87928 60.0685 3.15952 58.9169 2.39177 59.2528C1.71998 59.5407 1.52805 60.6923 1.43208 61.7C0.61634 68.8497 -0.151423 76.0954 0.0405166 83.3412C0.136486 86.3642 0.520341 89.7232 2.15183 91.5946C2.72765 92.2664 4.35916 93.274 5.03095 92.3143C5.60677 91.4986 3.49542 89.1473 3.44744 88.1876C3.15953 84.1569 3.30348 79.9822 3.59139 75.9515L3.54339 75.9035Z" fill="#C3AA9D"/>
</g>
<g opacity="0.8">
<path opacity="0.05" d="M0.999788 61.2644C2.00747 61.9362 8.48543 59.6809 15.9231 59.8248C23.4087 59.9688 28.831 62.8479 30.1266 62.1281C31.4222 61.4083 29.6948 41.5906 27.8234 27.7229C25.9519 13.8073 21.6333 -0.492188 16.9308 -0.492188C12.2282 -0.492188 7.90961 16.6864 5.46238 31.3218C3.01516 45.9572 -0.295804 60.4486 0.999788 61.3124V61.2644Z" fill="#F1E8D4"/>
<path opacity="0.1" d="M1.04758 60.7376C2.00728 61.4094 8.48523 59.1541 15.9229 59.2981C23.3605 59.4421 28.8308 62.2732 30.1264 61.6014C31.422 60.8816 29.6946 41.4477 27.8232 27.5801C25.9517 13.7604 21.6811 -0.539062 16.9306 -0.539062C12.1801 -0.539062 7.90941 16.5915 5.46218 31.131C3.01495 45.6704 -0.248021 59.8739 0.999586 60.7376H1.04758Z" fill="#F1E8D4"/>
<path opacity="0.14" d="M1.04773 60.2098C2.00743 60.8816 8.48538 58.6263 15.923 58.7703C23.3607 58.9142 28.783 61.7453 30.0786 61.0255C31.3742 60.3058 29.6467 41.2078 27.7753 27.4361C25.9039 13.6645 21.6332 -0.539062 16.9307 -0.539062C12.2282 -0.539062 7.90957 16.4956 5.51033 30.987C3.0631 45.4784 -0.199904 59.3461 1.09569 60.1618L1.04773 60.2098Z" fill="#F1E8D4"/>
<path opacity="0.19" d="M1.0958 59.682C2.0555 60.3058 8.53347 58.1465 15.9231 58.2904C23.3608 58.4344 28.7351 61.2655 30.0307 60.5457C31.3263 59.8259 29.5988 41.0638 27.7274 27.3402C25.856 13.6165 21.5853 -0.539062 16.8828 -0.539062C12.1803 -0.539062 7.90967 16.4476 5.46244 30.8431C3.01521 45.2865 -0.247753 58.8182 1.04784 59.634L1.0958 59.682Z" fill="#F1E8D4"/>
<path opacity="0.24" d="M1.14352 59.153C2.10322 59.7768 8.5332 57.6175 15.9229 57.7615C23.3125 57.9054 28.7348 60.7365 29.9825 60.0168C31.278 59.297 29.5506 40.9188 27.7272 27.2431C25.8557 13.5674 21.6331 -0.492188 16.9306 -0.492188C12.228 -0.492188 7.95737 16.3985 5.55812 30.794C3.15888 45.1414 -0.15207 58.3853 1.14352 59.201V59.153Z" fill="#F1E8D4"/>
<path opacity="0.29" d="M1.14429 58.6263C2.10398 59.2501 8.53397 57.0908 15.9236 57.2347C23.3133 57.3787 28.6876 60.1618 29.9832 59.49C31.2788 58.7703 29.5513 40.7279 27.7279 27.1002C25.9045 13.4725 21.6338 -0.539062 16.9313 -0.539062C12.2288 -0.539062 8.00612 16.3036 5.55889 30.6031C3.15964 44.9026 -0.103321 57.8106 1.14429 58.6263Z" fill="#F1E8D4"/>
<path opacity="0.33" d="M1.19143 58.0974C2.15113 58.7212 8.53312 56.5618 15.9228 56.7058C23.3125 56.8498 28.6868 59.6329 29.9344 58.9611C31.23 58.2413 29.5025 40.5349 27.6791 27.0032C25.8556 13.4714 21.585 -0.492188 16.9305 -0.492188C12.2759 -0.492188 8.00528 16.2545 5.60604 30.5061C3.20679 44.7576 -0.0561619 57.3296 1.23943 58.1453L1.19143 58.0974Z" fill="#F1E8D4"/>
<path opacity="0.38" d="M1.23957 57.5717C2.19927 58.1955 8.58125 56.0362 15.9229 56.1802C23.2646 56.3241 28.6389 59.1073 29.8865 58.3875C31.1821 57.7157 29.4547 40.2972 27.6313 26.8134C25.8078 13.3297 21.5372 -0.585938 16.8826 -0.585938C12.2281 -0.585938 8.00541 16.1128 5.55818 30.2683C3.15894 44.4719 -0.104013 56.66 1.19158 57.5238L1.23957 57.5717Z" fill="#F1E8D4"/>
<path opacity="0.43" d="M1.28793 57.0428C2.24763 57.6666 8.62964 55.5073 15.9233 55.6512C23.265 55.7952 28.5913 58.5783 29.8869 57.8585C31.1345 57.1868 29.4551 40.1521 27.6317 26.7164C25.8082 13.2806 21.5856 -0.539062 16.931 -0.539062C12.2765 -0.539062 8.05382 16.0637 5.65457 30.1713C3.25533 44.2788 0.0403258 56.1791 1.28793 57.0428Z" fill="#F1E8D4"/>
<path opacity="0.48" d="M1.28793 56.563C2.24763 57.1868 8.58165 55.0274 15.9233 55.1714C23.217 55.3153 28.5914 58.0505 29.839 57.3787C31.0866 56.7069 29.4071 40.0082 27.5837 26.6204C25.7602 13.2326 21.5376 -0.539062 16.883 -0.539062C12.2285 -0.539062 8.00583 16.0157 5.65457 30.0753C3.25533 44.1349 0.0403258 55.6992 1.28793 56.563Z" fill="#F1E8D4"/>
<path opacity="0.52" d="M1.33593 56.034C2.29563 56.6578 8.62964 54.5465 15.9233 54.6424C23.217 54.7864 28.5434 57.5215 29.791 56.8498C31.0386 56.178 29.3591 39.8151 27.5357 26.5233C25.7122 13.2315 21.4896 -0.492188 16.883 -0.492188C12.2765 -0.492188 8.05382 15.9666 5.65457 29.9782C3.25533 43.9898 0.0403258 55.2183 1.28793 56.082L1.33593 56.034Z" fill="#F1E8D4"/>
<path opacity="0.57" d="M1.38414 55.5062C2.34384 56.13 8.67784 54.0186 15.9236 54.1626C23.2173 54.3065 28.4956 57.0417 29.7912 56.3699C31.0388 55.6981 29.3593 39.6712 27.5359 26.4273C25.7125 13.1835 21.5378 -0.492188 16.8832 -0.492188C12.2287 -0.492188 8.05405 15.9186 5.70279 29.8343C3.35153 43.7499 0.0885525 54.6904 1.38414 55.5062Z" fill="#F1E8D4"/>
<path opacity="0.62" d="M1.38381 54.9783C2.34351 55.6021 8.62952 53.4908 15.9232 53.6348C23.1689 53.7787 28.4953 56.5139 29.7429 55.7941C30.9905 55.1223 29.311 39.4792 27.4876 26.2834C25.6641 13.0875 21.4895 -0.492188 16.8829 -0.492188C12.2764 -0.492188 8.1017 15.8227 5.70246 29.6903C3.3512 43.5579 0.136204 54.1626 1.38381 54.9783Z" fill="#F1E8D4"/>
<path opacity="0.67" d="M1.43167 54.4516C2.39136 55.0754 8.67737 52.9641 15.9231 53.108C23.1688 53.252 28.4472 55.9392 29.6948 55.2674C30.9424 54.5956 29.2629 39.2884 27.4874 26.1405C25.664 12.9927 21.4893 -0.539062 16.8828 -0.539062C12.2762 -0.539062 8.10153 15.7278 5.75028 29.4995C3.39902 43.3191 0.184058 53.5879 1.43167 54.4036V54.4516Z" fill="#F1E8D4"/>
<path opacity="0.71" d="M1.47951 53.9227C2.43921 54.5465 8.72524 52.4351 15.923 52.5791C23.1687 52.723 28.447 55.4102 29.6947 54.7384C30.9423 54.0666 29.2628 39.0953 27.4873 26.0435C25.6639 12.9916 21.4892 -0.492188 16.9307 -0.492188C12.3721 -0.492188 8.19741 15.6787 5.79816 29.4504C3.4469 43.222 0.231907 53.1549 1.47951 53.9707V53.9227Z" fill="#F1E8D4"/>
<path opacity="0.76" d="M1.47962 53.396C2.43932 54.0198 8.67736 51.9084 15.8751 52.0524C23.0728 52.1963 28.3512 54.8835 29.5988 54.2117C30.8464 53.5399 29.1669 38.9525 27.3915 25.9006C25.616 12.8487 21.4414 -0.539062 16.8348 -0.539062C12.2283 -0.539062 8.10153 15.5839 5.75028 29.2596C3.39902 42.9352 0.184058 52.5802 1.43167 53.396H1.47962Z" fill="#F1E8D4"/>
<path opacity="0.81" d="M1.52753 52.867C2.48723 53.4908 8.72526 51.3795 15.923 51.5234C23.1207 51.6674 28.3511 54.3066 29.5987 53.6828C30.8463 53.0589 29.1668 38.7595 27.3914 25.8035C25.6159 12.8476 21.4412 -0.492188 16.8827 -0.492188C12.3241 -0.492188 8.14944 15.5348 5.79818 29.1625C3.44692 42.7902 0.279923 52.0993 1.52753 52.915V52.867Z" fill="#F1E8D4"/>
<path opacity="0.86" d="M1.57538 52.3414C2.53508 52.9652 8.72512 50.9018 15.9229 50.9978C23.1206 51.1418 28.3509 53.7809 29.5985 53.1091C30.8461 52.4374 29.1667 38.5217 27.3912 25.6138C25.6158 12.7059 21.4411 -0.585938 16.8825 -0.585938C12.324 -0.585938 8.19729 15.345 5.84603 28.9248C3.49477 42.5045 0.327775 51.4777 1.57538 52.2934V52.3414Z" fill="#F1E8D4"/>
<path opacity="0.9" d="M1.62323 51.8124C2.58293 52.4363 8.773 50.3729 15.9227 50.4689C23.0725 50.6128 28.3028 53.252 29.5504 52.5802C30.798 51.9084 29.1186 38.3287 27.3431 25.5167C25.5677 12.6568 21.441 -0.539062 16.8824 -0.539062C12.3239 -0.539062 8.19716 15.3439 5.89389 28.8277C3.54263 42.3114 0.375626 50.9967 1.62323 51.8124Z" fill="#F1E8D4"/>
<path opacity="0.95" d="M1.62396 51.2846C2.58366 51.9084 8.77372 49.8451 15.9235 49.989C23.0732 50.133 28.3036 52.7722 29.5032 52.1004C30.7508 51.4286 29.0713 38.2327 27.2959 25.4208C25.5205 12.6568 21.3937 -0.539062 16.8832 -0.539062C12.3726 -0.539062 8.24587 15.248 5.89461 28.6837C3.54335 42.1195 0.424337 50.4689 1.62396 51.2846Z" fill="#F1E8D4"/>
<path d="M1.67215 50.7557C2.63185 51.3315 8.77392 49.3161 15.9237 49.4601C23.0254 49.604 28.2558 52.1952 29.5034 51.5714C30.751 50.8996 29.0715 38.0397 27.2961 25.3237C25.5207 12.6077 21.3939 -0.492188 16.8833 -0.492188C12.3728 -0.492188 8.24607 15.2469 5.9428 28.6346C3.59154 42.0224 0.472536 50.0359 1.72014 50.8037L1.67215 50.7557Z" fill="#F1E8D4"/>
</g>
<g style="mix-blend-mode:multiply" opacity="0.8">
<path opacity="0.05" d="M25.9522 89.575C24.1287 91.1585 4.93478 91.9263 3.54322 89.1432C0.904055 83.7689 3.73516 62.7035 4.88679 59.2486C5.99045 55.8896 7.478 46.0048 8.77359 32.7609C10.0692 19.5651 13.668 8.28864 17.075 8.57655C20.146 8.81647 22.4973 20.7167 23.6969 28.7302C24.9925 37.5594 26.0481 56.1296 26.576 60.0643C28.4954 75.1796 27.8236 87.9915 25.9522 89.575ZM29.9349 59.3925C29.599 42.8377 27.5836 33.0488 25.9522 23.3079C24.4646 14.4307 21.2497 0.707022 17.4588 0.467097C13.1882 0.179188 8.62963 14.7186 5.99046 29.21C4.5989 36.9356 2.96741 51.3791 1.67182 58.1929C0.376224 65.0068 -1.63914 88.1355 0.136301 92.5501C1.43189 95.8131 26.9599 95.1893 29.2631 93.4138C31.5664 91.6384 30.3188 75.9473 29.9829 59.3925H29.9349Z" fill="url(#paint0_linear_44_15619)"/>
<path opacity="0.1" d="M26.0954 89.7212C24.224 91.3527 4.83811 92.0724 3.44655 89.2413C0.807377 83.867 3.54249 62.8496 4.69413 59.2028C5.79778 55.6519 7.33332 45.4311 8.58093 32.4752C9.97249 19.2314 13.6193 7.81098 17.0742 8.09889C20.1453 8.33881 22.6405 20.527 23.8401 28.5884C25.1837 37.4176 26.1434 55.508 26.6712 60.0185C28.5426 75.3257 27.8708 88.0897 25.9994 89.7212H26.0954ZM29.9822 59.3947C29.6463 42.8399 27.5829 33.051 25.9514 23.2621C24.4639 14.3849 21.2489 0.613245 17.4581 0.37332C13.1875 0.0854108 8.62891 14.7208 5.98974 29.2122C4.59818 36.9378 2.87073 51.3333 1.57514 58.1471C0.279546 64.961 -1.63987 88.1377 0.0875819 92.5523C1.38317 95.8153 26.9111 95.1915 29.2144 93.416C31.5177 91.6406 30.3181 75.9495 29.9822 59.3947Z" fill="url(#paint1_linear_44_15619)"/>
<path opacity="0.14" d="M26.1918 89.8634C24.3204 91.4949 4.6946 92.2147 3.35102 89.3836C0.75984 84.0573 3.35105 62.9919 4.50269 59.2011C5.60634 55.5063 7.14186 44.9016 8.43745 32.2816C9.82901 18.9898 13.6198 7.4254 17.1227 7.71331C20.2417 7.95323 22.8329 20.4293 24.0805 28.4908C25.4241 37.368 26.2878 54.9304 26.9116 60.0648C28.735 75.516 28.1112 88.3279 26.2398 89.9114L26.1918 89.8634ZM30.0306 59.393C29.6948 42.8382 27.5354 33.0493 25.9039 23.2604C24.4164 14.3832 21.2014 0.56356 17.4106 0.27565C13.1399 -0.0122589 8.58138 14.6711 5.94221 29.1626C4.55065 36.8881 2.72725 51.2836 1.43166 58.0974C0.136066 64.9113 -1.73535 88.088 0.0400922 92.5026C1.33568 95.7656 26.8636 95.1418 29.1669 93.3663C31.4702 91.5909 30.3186 75.8998 30.0306 59.345V59.393Z" fill="url(#paint2_linear_44_15619)"/>
<path opacity="0.19" d="M26.2876 90.0565C24.4162 91.688 4.59843 92.3597 3.20687 89.5286C0.615688 84.2023 3.11091 63.137 4.26255 59.2022C5.3662 55.3634 6.90172 44.4228 8.2453 32.0427C9.68485 18.7029 13.6196 6.99463 17.1225 7.23456C20.2415 7.47448 22.9767 20.1905 24.2243 28.3479C25.5679 37.2731 26.3836 54.2597 27.0554 60.0179C28.8788 75.661 28.207 88.425 26.3356 90.0565H26.2876ZM30.1264 59.3941C29.7905 42.8393 27.5832 33.0504 25.9517 23.2615C24.4642 14.3843 21.2492 0.516672 17.4584 0.228762C13.1877 -0.0591471 8.62917 14.6722 5.99 29.1637C4.59844 36.8892 2.72704 51.2367 1.38346 58.0506C0.0878671 64.8644 -1.68759 88.0891 0.0878467 92.5037C1.38344 95.7667 26.9114 95.1429 29.2147 93.3674C31.5179 91.592 30.4623 75.9489 30.1264 59.3461V59.3941Z" fill="url(#paint3_linear_44_15619)"/>
<path opacity="0.24" d="M26.4314 90.2015C24.512 91.833 4.50232 92.5048 3.11076 89.6737C0.519575 84.3474 2.9188 63.282 4.07044 59.2033C5.22208 55.1726 6.75761 43.8961 8.10119 31.8039C9.58872 18.4161 13.6195 6.51588 17.1703 6.80379C20.3373 7.04371 23.1684 20.0476 24.416 28.205C25.7596 37.1302 26.4794 53.637 27.2472 59.971C29.0706 75.8061 28.3508 88.57 26.4794 90.2015H26.4314ZM30.1742 59.3952C29.8383 42.8404 27.583 33.0515 25.9515 23.2626C24.464 14.3854 21.249 0.421798 17.4582 0.181874C13.1876 -0.106035 8.62901 14.6733 5.98984 29.2127C4.59828 36.9383 2.6309 51.2858 1.33531 58.0996C0.0397132 64.9135 -1.63976 88.1861 0.135683 92.5528C1.43127 95.8158 26.9592 95.1919 29.2625 93.4165C31.5658 91.6411 30.5581 75.998 30.2222 59.3952H30.1742Z" fill="url(#paint4_linear_44_15619)"/>
<path opacity="0.29" d="M26.5273 90.3477C24.6079 91.9792 4.35826 92.6509 2.9667 89.7719C0.375516 84.4455 2.67879 63.4282 3.83043 59.1575C4.98207 54.9828 6.51758 43.3705 7.90914 31.5662C9.44465 18.1304 13.6193 6.08621 17.1702 6.37412C20.3372 6.61405 23.3603 19.9059 24.5599 28.0633C25.9515 37.0365 26.5752 53.0154 27.343 59.9253C29.1184 75.9042 28.4467 88.6682 26.5273 90.2997V90.3477ZM30.2221 59.3974C29.8862 42.8426 27.535 33.0057 25.9035 23.2648C24.4159 14.3876 21.2009 0.376007 17.4101 0.0880978C13.1395 -0.199812 8.58091 14.6755 5.94174 29.1669C4.55018 36.8925 2.48684 51.192 1.19125 58.0059C-0.104346 64.8197 -1.68784 88.0924 0.0396189 92.507C1.33521 95.77 26.8632 95.1462 29.1664 93.3707C31.4697 91.5953 30.51 75.9522 30.2221 59.3494V59.3974Z" fill="url(#paint5_linear_44_15619)"/>
<path opacity="0.33" d="M26.6236 90.4888C24.7042 92.1203 4.21467 92.7921 2.82311 89.913C0.231923 84.5867 2.43924 63.5693 3.59088 59.1547C4.74252 54.7881 6.32601 42.8398 7.66959 31.3235C9.25309 17.8397 13.5238 5.65153 17.1226 5.93944C20.3376 6.17937 23.4566 19.7591 24.7042 27.9645C26.0958 36.9857 26.6716 52.3888 27.4873 59.9704C29.2628 76.1413 28.543 88.8573 26.6236 90.5368V90.4888ZM30.3185 59.3946C29.9826 42.8398 27.5833 33.0029 25.9518 23.262C24.4643 14.3848 21.2493 0.325213 17.4585 0.0373035C13.1879 -0.250606 8.6293 14.6727 5.99013 29.1641C4.59857 36.8897 2.43923 51.1892 1.14364 57.9551C-0.151949 64.7689 -1.68747 88.0896 0.0879695 92.4562C1.38356 95.7192 26.9115 95.0954 29.2148 93.3199C31.5181 91.5445 30.6544 75.9014 30.3185 59.3466V59.3946Z" fill="url(#paint6_linear_44_15619)"/>
<path opacity="0.38" d="M26.7676 90.6819C24.8483 92.3133 4.16676 92.9851 2.72721 90.106C0.136027 84.8277 2.19937 63.7623 3.399 59.2038C4.55063 54.6932 6.18212 42.4091 7.5257 31.1806C9.15719 17.6489 13.5718 5.31674 17.1707 5.55666C20.3857 5.79659 23.6486 19.6162 24.8962 27.8696C26.2878 36.9388 26.7676 51.8141 27.6793 59.9715C29.4548 76.2864 28.735 89.0504 26.7676 90.6819ZM30.3665 59.3957C30.0306 42.8409 27.5834 33.004 25.9519 23.2631C24.4643 14.3859 21.2494 0.23034 17.4586 -0.00958437C13.1879 -0.297494 8.62935 14.6738 5.99018 29.1652C4.59862 36.8908 2.39132 51.1423 1.04775 57.9562C-0.295829 64.77 -1.68741 88.0907 0.0880277 92.5053C1.38362 95.7683 26.9116 95.1444 29.2149 93.369C31.5181 91.5936 30.7024 75.9505 30.3665 59.3957Z" fill="url(#paint7_linear_44_15619)"/>
<path opacity="0.43" d="M26.8639 90.8249C24.8965 92.4564 4.02307 93.1282 2.63151 90.2011C0.0403271 84.9228 2.00768 63.8574 3.20731 59.1549C4.35894 54.5004 6.03843 41.8324 7.382 30.8918C9.06147 17.3121 13.572 4.78803 17.2189 5.07594C20.4819 5.31587 23.8408 19.4234 25.0884 27.7248C26.48 36.794 26.9119 51.1894 27.8236 59.9227C29.599 76.4295 28.8312 89.1455 26.9119 90.8249H26.8639ZM30.4147 59.3948C30.0788 42.84 27.5357 33.0031 25.9042 23.2622C24.4166 14.385 21.2016 0.181486 17.4108 -0.0584381C13.1402 -0.346347 8.58161 14.7209 5.94244 29.2123C4.55088 36.9379 2.2476 51.1414 0.952011 57.9553C-0.343581 64.7691 -1.68716 88.1378 0.0882813 92.5524C1.38387 95.8154 26.9118 95.1916 29.2151 93.4161C31.5184 91.6407 30.7506 75.9976 30.4627 59.4428L30.4147 59.3948Z" fill="url(#paint8_linear_44_15619)"/>
<path opacity="0.48" d="M26.9599 90.97C24.9925 92.6495 3.8791 93.2733 2.48754 90.3462C-0.0556614 85.0679 1.76779 64.0505 2.96742 59.156C4.11905 54.3095 5.79851 41.3536 7.19007 30.701C8.91753 17.0733 13.5241 4.40525 17.2189 4.69316C20.4819 4.93309 23.9848 19.3286 25.2804 27.6299C26.6719 36.7471 27.0558 50.5667 28.0155 59.9718C29.7909 76.6225 29.0232 89.3865 27.0558 91.018L26.9599 90.97ZM30.4627 59.4439C30.1268 42.8891 27.5357 33.0522 25.9042 23.3113C24.4167 14.4341 21.2016 0.182584 17.4108 -0.105326C13.1402 -0.393235 8.58162 14.722 5.94246 29.2134C4.55089 36.939 2.15166 51.1425 0.856069 57.9564C-0.439523 64.7702 -1.68712 88.1389 0.0403346 92.5535C1.33593 95.8165 26.8639 95.1927 29.1672 93.4172C31.4704 91.6418 30.7986 75.9987 30.4627 59.4439Z" fill="url(#paint9_linear_44_15619)"/>
<path opacity="0.52" d="M27.104 91.1123C25.1366 92.7917 3.78332 93.3675 2.39176 90.4405C-0.151436 85.1621 1.57603 64.1447 2.77565 59.1063C3.92729 54.1159 5.65473 40.7761 6.99831 30.4114C8.77375 16.7357 13.5242 3.92371 17.2191 4.21162C20.53 4.45154 24.1289 19.1349 25.4245 27.4843C26.8641 36.6494 27.104 49.9412 28.1597 59.9221C29.8871 76.7648 29.1193 89.4808 27.1519 91.1602L27.104 91.1123ZM30.5589 59.4422C30.223 42.8874 27.5838 33.0505 25.9523 23.2616C24.4648 14.3844 21.2498 0.0849148 17.459 -0.202995C13.1884 -0.490904 8.6298 14.6723 5.99063 29.1638C4.59907 36.8893 2.10384 51.0449 0.808253 57.8587C-0.487339 64.6726 -1.68697 88.0892 0.0884722 92.5038C1.38406 95.7668 26.912 95.143 29.2153 93.3675C31.5186 91.5921 30.8948 75.949 30.5589 59.3942V59.4422Z" fill="url(#paint10_linear_44_15619)"/>
<path opacity="0.57" d="M27.1991 91.3053C25.1838 92.9848 3.68656 93.5606 2.24701 90.6335C-0.296187 85.3551 1.33529 64.3378 2.53491 59.1554C3.68655 53.973 5.46198 40.3453 6.80556 30.2205C8.62899 16.5448 13.4755 3.54092 17.2183 3.78085C20.5292 4.02077 24.2721 18.9441 25.5677 27.3414C27.0072 36.5065 27.1992 49.3185 28.3028 59.8752C30.0303 76.9098 29.2625 89.6258 27.2471 91.2573L27.1991 91.3053ZM30.6061 59.4433C30.2702 42.8885 27.535 33.0516 25.9036 23.2627C24.416 14.3855 21.201 -0.00995764 17.4102 -0.249882C13.1396 -0.537791 8.581 14.6734 5.94183 29.2128C4.55027 36.9384 2.00708 51.0939 0.663502 57.8598C-0.63209 64.6737 -1.73573 88.1383 0.0397118 92.5049C1.3353 95.7679 26.8633 95.1441 29.1665 93.3686C31.4698 91.5932 30.894 75.9501 30.6061 59.3953V59.4433Z" fill="url(#paint11_linear_44_15619)"/>
<path opacity="0.62" d="M27.2957 91.4475C25.2803 93.127 3.5432 93.7028 2.10365 90.7277C-0.43955 85.4974 1.09593 64.432 2.29556 59.1057C3.44719 53.7794 5.27063 39.7678 6.6142 29.9789C8.5336 16.2552 13.476 3.05936 17.2189 3.34727C20.5778 3.5872 24.4166 18.7984 25.7122 27.1958C27.1518 36.4089 27.2957 48.645 28.3993 59.8255C30.1268 77.0041 29.3111 89.7201 27.2957 91.3995V91.4475ZM30.6546 59.4416C30.3187 42.8868 27.5356 33.0499 25.9041 23.261C24.4166 14.3838 21.2016 -0.0596538 17.4108 -0.347563C13.1401 -0.635472 8.58159 14.6717 5.94242 29.1631C4.55086 36.8887 1.91168 50.9963 0.616093 57.8101C-0.679499 64.624 -1.68718 88.0886 0.0882559 92.5032C1.38385 95.7662 26.9118 95.1424 29.2151 93.3669C31.5184 91.5915 31.0385 75.9964 30.7026 59.3936L30.6546 59.4416Z" fill="url(#paint12_linear_44_15619)"/>
<path opacity="0.67" d="M27.3918 91.5926C25.3764 93.272 3.39935 93.8479 1.95981 90.8728C-0.583393 85.6425 0.856174 64.6251 2.0558 59.1068C3.25542 53.6365 5.03084 39.2891 6.4224 29.7401C8.38978 15.9684 13.4282 2.6286 17.219 2.9165C20.5779 3.15643 24.5607 18.6555 25.9043 27.1009C27.3438 36.362 27.3918 48.0703 28.5914 59.8746C30.3189 77.2451 29.5032 89.9131 27.4398 91.5926H27.3918ZM30.7507 59.4427C30.4148 42.8879 27.5837 33.051 25.9522 23.2621C24.4647 14.3849 21.2497 -0.106541 17.4589 -0.39445C13.1883 -0.68236 8.62972 14.6728 5.99056 29.1642C4.59899 36.8898 1.86387 50.9974 0.568277 57.7632C-0.727316 64.5771 -1.63906 88.0897 0.0883983 92.4563C1.38399 95.7193 26.9119 95.0955 29.2152 93.32C31.5185 91.5446 31.0866 75.9495 30.7507 59.3467V59.4427Z" fill="url(#paint13_linear_44_15619)"/>
<path opacity="0.71" d="M27.5356 91.7856C25.4723 93.4651 3.30325 94.0409 1.8637 91.0658C-0.679497 85.8355 0.66408 64.8181 1.8637 59.1559C3.06332 53.4937 4.88677 38.8103 6.23034 29.5972C8.24571 15.7776 13.428 2.2938 17.2189 2.58171C20.6258 2.82164 24.7045 18.6087 26.0481 27.054C27.4876 36.3631 27.4876 47.4956 28.7352 59.9236C30.4627 77.4381 29.599 90.1541 27.5836 91.8336L27.5356 91.7856ZM30.7986 59.4438C30.4627 42.889 27.5356 33.0521 25.9041 23.2632C24.4166 14.386 21.2016 -0.201413 17.4108 -0.441338C13.1401 -0.729247 8.58158 14.6739 5.94241 29.1653C4.55085 36.8909 1.71973 50.9505 0.424141 57.7643C-0.871451 64.5782 -1.73515 88.0908 0.0402895 92.5054C1.33588 95.7684 26.8638 95.1445 29.1671 93.3691C31.4704 91.5937 31.0865 75.9986 30.7506 59.3958L30.7986 59.4438Z" fill="url(#paint14_linear_44_15619)"/>
<path opacity="0.76" d="M27.6318 91.9307C25.5685 93.6101 3.20753 94.186 1.76798 91.1629C-0.727229 85.9325 0.472362 64.9152 1.624 59.109C2.82362 53.3028 4.69506 38.2836 6.03864 29.3104C8.10199 15.4428 13.3803 1.81504 17.2191 2.05497C20.626 2.29489 24.8487 18.3698 26.1923 26.8631C27.6798 36.1722 27.5839 46.8249 28.8315 59.8288C30.5589 77.5352 29.6952 90.2032 27.6318 91.9307ZM30.8468 59.4449C30.5109 42.8901 27.5359 33.0052 25.9044 23.2643C24.4168 14.3871 21.2018 -0.248312 17.411 -0.488237C13.1404 -0.776146 8.58182 14.723 5.94265 29.2144C4.55108 36.94 1.672 50.9516 0.328424 57.7654C-0.967169 64.5793 -1.73491 88.1398 0.0405259 92.5545C1.33612 95.8174 26.8641 95.1936 29.1674 93.4182C31.4706 91.6427 31.1827 76.0477 30.8468 59.4929V59.4449Z" fill="url(#paint15_linear_44_15619)"/>
<path opacity="0.81" d="M27.7277 92.071C25.6644 93.7504 3.0635 94.2783 1.62396 91.3032C-0.871258 86.1208 0.184432 65.1035 1.38405 59.1053C2.58368 53.1552 4.50307 37.7521 5.84665 29.1148C8.00597 15.1992 13.3323 1.37952 17.219 1.66743C20.674 1.90735 24.9926 18.2222 26.3362 26.7635C27.8237 36.1206 27.6798 46.2454 28.9754 59.8731C30.7028 77.7715 29.7911 90.4395 27.7277 92.119V92.071ZM30.9427 59.4412C30.6068 42.8865 27.5838 33.0016 25.9523 23.2606C24.4648 14.3834 21.2498 -0.299949 17.459 -0.587858C13.1883 -0.875767 8.62977 14.6713 5.9906 29.1628C4.59904 36.8883 1.62397 50.8999 0.32838 57.7138C-0.967212 64.5276 -1.639 88.0882 0.136436 92.5028C1.43203 95.7658 26.96 95.142 29.2633 93.3666C31.5665 91.5911 31.3266 75.996 30.9907 59.4412H30.9427Z" fill="url(#paint16_linear_44_15619)"/>
<path opacity="0.86" d="M27.8711 92.216C25.8078 93.9435 2.96698 94.4233 1.52743 91.4003C-0.967785 86.2179 -0.00808573 65.2005 1.19154 59.0585C2.39116 52.9164 4.35855 37.1773 5.70213 28.828C7.90943 14.8644 13.3797 0.900772 17.2185 1.18868C20.6734 1.42861 25.136 18.0314 26.5276 26.5727C28.0151 35.9777 27.8232 45.5267 29.1667 59.7782C30.9422 77.8205 29.9825 90.4886 27.8711 92.216ZM30.9901 59.4423C30.6543 42.8875 27.5352 33.0027 25.9038 23.2617C24.4162 14.3845 21.2012 -0.346836 17.4104 -0.634745C13.1398 -0.922654 8.5812 14.6724 5.94203 29.1639C4.55047 36.8894 1.47945 50.853 0.183858 57.6669C-1.11173 64.4808 -1.68757 88.0893 0.087868 92.5039C1.38346 95.7669 26.9114 95.1431 29.2147 93.3677C31.518 91.5922 31.326 75.9971 30.9901 59.4423Z" fill="url(#paint17_linear_44_15619)"/>
<path opacity="0.9" d="M27.9673 92.4079C25.856 94.1354 2.82321 94.6152 1.38366 91.5922C-1.11156 86.4098 -0.247847 65.3925 0.951775 59.1064C2.1514 52.8204 4.16677 36.7455 5.46237 28.636C7.76564 14.6244 13.2839 0.516881 17.1707 0.804791C20.6736 1.04472 25.2322 17.9354 26.6237 26.5247C28.1112 35.9297 27.8713 44.9989 29.2629 59.8262C30.9903 78.0605 30.0306 90.7285 27.9193 92.4079H27.9673ZM31.0383 59.4903C30.7024 42.9355 27.5354 33.0506 25.9039 23.3097C24.4164 14.4325 21.2014 -0.394832 17.4106 -0.634757C13.1399 -0.922666 8.58138 14.7204 5.94221 29.2598C4.55065 36.9854 1.38364 50.949 0.088046 57.7149C-1.20755 64.5287 -1.73538 88.1853 0.088046 92.5519C1.38364 95.8149 26.9116 95.1911 29.2149 93.4156C31.5181 91.6402 31.4222 76.0451 31.0863 59.4903H31.0383Z" fill="url(#paint18_linear_44_15619)"/>
<path opacity="0.95" d="M28.0635 92.5513C25.9521 94.2787 2.72747 94.7586 1.23994 91.6876C-1.25527 86.5052 -0.487516 65.4878 0.712106 59.0578C1.91173 52.5799 3.97506 36.217 5.27066 28.3955C7.62191 14.3359 13.2841 0.0844142 17.1709 0.324339C20.6738 0.564263 25.3763 17.7429 26.7679 26.3321C28.2554 35.7852 27.9195 44.3265 29.3591 59.7296C31.0865 78.1078 30.0789 90.7758 27.9675 92.5033L28.0635 92.5513ZM31.1345 59.4897C30.7986 42.9349 27.5836 33.05 25.9521 23.2611C24.4646 14.3839 21.2496 -0.491402 17.4588 -0.779311C13.1882 -1.06722 8.62961 14.6718 5.99044 29.1633C4.59887 36.8888 1.3839 50.8044 0.0403208 57.6183C-1.25527 64.4321 -1.68716 88.0887 0.0882792 92.5033C1.38387 95.7663 26.9118 95.1425 29.2151 93.367C31.5184 91.5916 31.4704 75.9965 31.1345 59.4417V59.4897Z" fill="url(#paint19_linear_44_15619)"/>
<path d="M28.2072 92.6963C26.0958 94.4238 2.63122 94.9036 1.14369 91.8326C-1.35153 86.6502 -0.679726 65.6809 0.519897 59.0589C1.71952 52.437 3.83085 35.6903 5.12644 28.1567C7.57367 14.0491 13.2839 -0.394336 17.2186 -0.106427C20.7695 0.133498 25.616 17.552 26.9596 26.2373C28.4951 35.7383 28.0632 43.7038 29.5507 59.7787C31.2782 78.3489 30.2705 90.9689 28.1592 92.6963H28.2072ZM31.1822 59.4908C30.8463 42.936 27.5834 33.0511 25.9039 23.2622C24.4164 14.385 21.2014 -0.538289 17.4106 -0.826198C13.1399 -1.11411 8.58135 14.6729 5.94218 29.1644C4.55061 36.8899 1.23966 50.7576 -0.0559354 57.5714C-1.35153 64.3853 -1.68743 88.0898 0.0880135 92.4564C1.38361 95.7194 26.9116 95.0956 29.2148 93.3202C31.5181 91.5447 31.5181 75.9496 31.1822 59.3948V59.4908Z" fill="url(#paint20_linear_44_15619)"/>
</g>
<g style="mix-blend-mode:multiply" opacity="0.4">
<path opacity="0.05" d="M17.7468 94.4728C18.7545 94.0409 18.7065 82.0447 18.8505 76.0945C19.0424 70.1444 18.4666 67.3133 18.0827 64.8181C17.6029 61.6031 16.6432 48.1673 17.315 40.1059C17.9868 31.9964 17.8428 21.8236 17.5549 14.8658C17.267 7.90801 14.6758 -2.2168 14.6758 -2.2168L29.1672 -1.64098C29.1672 -1.64098 31.7104 40.5377 32.2383 54.8852C32.8141 69.2327 32.2383 93.8969 31.7104 94.3288C31.1346 94.7607 17.7468 94.4728 17.7468 94.4728Z" fill="#C4C0B4"/>
<path opacity="0.1" d="M17.9386 94.4728C18.8983 94.0409 18.8983 82.0926 19.0902 76.1425C19.2342 70.1924 18.7064 67.0734 18.3225 64.5782C17.8427 61.3632 16.883 48.1194 17.5068 40.1059C18.1306 31.9964 17.8426 21.8236 17.6027 14.8658C17.3148 7.90801 14.7236 -2.2168 14.7236 -2.2168L29.0711 -1.64098C29.0711 -1.64098 31.5663 40.5377 32.1421 54.8852C32.718 69.2327 32.1901 93.8969 31.6623 94.3288C31.0865 94.7607 17.9866 94.5207 17.9866 94.5207L17.9386 94.4728Z" fill="#C4C0B4"/>
<path opacity="0.14" d="M18.1783 94.5196C19.138 94.0878 19.186 82.1875 19.3299 76.2374C19.4739 70.2873 18.9461 66.9283 18.5622 64.4331C18.0823 61.2181 17.1706 48.1662 17.7464 40.2007C18.3222 32.0913 17.9384 21.8705 17.6505 14.9127C17.3626 7.95489 14.8193 -2.16992 14.8193 -2.16992L28.9749 -1.5941C28.9749 -1.5941 31.4701 40.5846 31.9979 54.9321C32.5738 69.2796 32.0459 93.9438 31.5181 94.3757C30.9903 94.8075 18.1303 94.5676 18.1303 94.5676L18.1783 94.5196Z" fill="#C4C0B4"/>
<path opacity="0.19" d="M18.3698 94.5207C19.3295 94.0889 19.4255 82.2366 19.5694 76.2865C19.7134 70.3364 19.1855 66.7375 18.8497 64.1943C18.3698 60.9793 17.4581 48.1194 17.9859 40.1539C18.5138 32.0444 18.0339 21.8236 17.746 14.8658C17.4581 7.90801 14.9629 -2.2168 14.9629 -2.2168L28.9265 -1.64098C28.9265 -1.64098 31.3737 40.5377 31.9495 54.8852C32.4773 69.2327 31.9975 93.8969 31.4697 94.3288C30.9418 94.7607 18.3698 94.5687 18.3698 94.5687V94.5207Z" fill="#C4C0B4"/>
<path opacity="0.24" d="M18.5625 94.5207C19.5222 94.0889 19.6661 82.2366 19.8101 76.3345C19.954 70.3843 19.4742 66.5456 19.0903 64.0023C18.6104 60.7874 17.6988 48.1194 18.2266 40.2018C18.7064 32.0924 18.1306 21.8236 17.8427 14.8658C17.5548 7.90801 15.0596 -2.2168 15.0596 -2.2168L28.8792 -1.64098C28.8792 -1.64098 31.3264 40.5377 31.8543 54.8852C32.3821 69.2327 31.9503 93.8969 31.4224 94.3288C30.8946 94.7607 18.5625 94.5687 18.5625 94.5687V94.5207Z" fill="#C4C0B4"/>
<path opacity="0.29" d="M18.8021 94.5698C19.7138 94.138 19.9058 82.3337 20.0498 76.3836C20.1937 70.4334 19.7139 66.3547 19.33 63.7635C18.8981 60.5485 17.9864 48.0725 18.4182 40.2029C18.8501 32.0935 18.1783 21.7768 17.8904 14.8189C17.6025 7.86114 15.1553 -2.26367 15.1553 -2.26367L28.783 -1.68785C28.783 -1.68785 31.1823 40.4909 31.7581 54.8383C32.2859 69.1858 31.854 93.8501 31.3262 94.2819C30.7984 94.7138 18.7541 94.5219 18.7541 94.5219L18.8021 94.5698Z" fill="#C4C0B4"/>
<path opacity="0.33" d="M18.9935 94.5687C19.9053 94.1368 20.1452 82.3806 20.2891 76.4304C20.4331 70.4803 19.9532 66.1137 19.6173 63.5705C19.1855 60.3555 18.2738 48.0714 18.7056 40.2498C19.0895 32.1404 18.2738 21.8236 18.0339 14.8658C17.7459 7.90801 15.3467 -2.2168 15.3467 -2.2168L28.7825 -1.64098C28.7825 -1.64098 31.1817 40.5377 31.7095 54.8852C32.2374 69.2327 31.8055 93.8969 31.2777 94.3288C30.7498 94.7607 18.9935 94.6167 18.9935 94.6167V94.5687Z" fill="#C4C0B4"/>
<path opacity="0.38" d="M19.2342 94.5698C20.1459 94.138 20.4338 82.4296 20.5777 76.4795C20.7217 70.5294 20.2418 65.9229 19.906 63.3796C19.4741 60.1647 18.6103 48.0725 18.9462 40.2509C19.2821 32.1415 18.3704 21.7768 18.1305 14.8189C17.8906 7.86114 15.4434 -2.26367 15.4434 -2.26367L28.7352 -1.68785C28.7352 -1.68785 31.1344 40.4909 31.6622 54.8383C32.1901 69.1858 31.7582 93.8501 31.2304 94.2819C30.7026 94.7138 19.2342 94.5698 19.2342 94.5698Z" fill="#C4C0B4"/>
<path opacity="0.43" d="M19.4259 94.6167C20.3376 94.1848 20.6255 82.5245 20.7694 76.5744C20.9134 70.6243 20.4335 65.7778 20.0976 63.1866C19.6658 59.9716 18.802 48.0714 19.1379 40.2978C19.4258 32.1884 18.4182 21.8236 18.1782 14.8658C17.9383 7.90801 15.5391 -2.2168 15.5391 -2.2168L28.639 -1.64098C28.639 -1.64098 30.9902 40.5377 31.518 54.8852C32.0459 69.2327 31.614 93.8969 31.1342 94.3288C30.6063 94.7607 19.4259 94.6167 19.4259 94.6167Z" fill="#C4C0B4"/>
<path opacity="0.48" d="M19.6662 94.6167C20.5299 94.1848 20.9138 82.5725 21.0578 76.6224C21.2017 70.6722 20.7699 65.5858 20.434 62.9947C20.0021 59.7797 19.1384 48.0714 19.4263 40.3458C19.7142 32.2364 18.5626 21.8236 18.3226 14.8658C18.0827 7.90801 15.7314 -2.2168 15.7314 -2.2168L28.6874 -1.64098C28.6874 -1.64098 31.0386 40.5377 31.5665 54.8852C32.0943 69.2327 31.7104 93.8969 31.1826 94.3288C30.7027 94.7607 19.7622 94.6647 19.7622 94.6647L19.6662 94.6167Z" fill="#C4C0B4"/>
<path opacity="0.52" d="M19.858 94.6636C20.7217 94.2317 21.1536 82.6674 21.2976 76.7172C21.4415 70.7671 21.0096 65.3928 20.6737 62.8016C20.2419 59.5866 19.4261 48.0703 19.6661 40.3927C19.906 32.2832 18.6584 21.8705 18.3705 14.9127C18.0826 7.95489 15.7793 -2.16992 15.7793 -2.16992L28.5433 -1.5941C28.5433 -1.5941 30.8466 40.5846 31.3744 54.9321C31.9022 69.2796 31.5183 93.9438 30.9905 94.3757C30.5106 94.8075 19.858 94.7116 19.858 94.7116V94.6636Z" fill="#C4C0B4"/>
<path opacity="0.57" d="M20.0977 94.6647C20.9614 94.2328 21.3933 82.6685 21.5372 76.7663C21.6812 70.8162 21.2493 65.202 20.9134 62.6108C20.5295 59.3958 19.6658 48.0714 19.8578 40.3938C20.0497 32.2843 18.7061 21.8236 18.4182 14.8658C18.1783 7.90801 15.875 -2.2168 15.875 -2.2168L28.4471 -1.64098C28.4471 -1.64098 30.7503 40.5377 31.2781 54.8852C31.806 69.2327 31.4221 93.8969 30.9423 94.3288C30.4624 94.7607 20.0497 94.7127 20.0497 94.7127L20.0977 94.6647Z" fill="#C4C0B4"/>
<path opacity="0.62" d="M20.29 94.6658C21.1538 94.2339 21.6336 82.7176 21.7776 76.7674C21.9216 70.8173 21.4897 64.9632 21.2018 62.372C20.8179 59.157 20.0021 48.0245 20.1461 40.3949C20.29 32.2854 18.8025 21.7768 18.5626 14.8189C18.3227 7.86114 16.0674 -2.26367 16.0674 -2.26367L28.4955 -1.68785C28.4955 -1.68785 30.7507 40.4909 31.2786 54.8383C31.8064 69.1858 31.4225 93.8501 30.9427 94.2819C30.4628 94.7138 20.338 94.6658 20.338 94.6658H20.29Z" fill="#C4C0B4"/>
<path opacity="0.67" d="M20.5297 94.7127C21.3454 94.2808 21.9213 82.8124 22.0652 76.8623C22.2092 70.9122 21.7773 64.8181 21.4894 62.1789C21.1055 59.0119 20.2898 48.0234 20.3857 40.4418C20.4817 32.3323 18.8982 21.8236 18.6583 14.8658C18.4184 7.90801 16.1631 -2.2168 16.1631 -2.2168L28.3992 -1.64098C28.3992 -1.64098 30.6545 40.5377 31.1823 54.8852C31.7102 69.2327 31.3263 93.8969 30.8464 94.3288C30.3666 94.7607 20.5297 94.7127 20.5297 94.7127Z" fill="#C4C0B4"/>
<path opacity="0.71" d="M20.7214 94.7127C21.5371 94.2808 22.1609 82.8604 22.2569 76.9103C22.4009 70.9602 22.017 64.6262 21.6811 61.987C21.2972 58.82 20.5295 47.9754 20.5774 40.4898C20.6254 32.3803 18.946 21.8236 18.706 14.8658C18.4661 7.90801 16.2588 -2.2168 16.2588 -2.2168L28.303 -1.64098C28.303 -1.64098 30.5583 40.5377 31.0381 54.8852C31.566 69.2327 31.1821 93.8969 30.7502 94.3288C30.2704 94.7607 20.7214 94.7607 20.7214 94.7607V94.7127Z" fill="#C4C0B4"/>
<path opacity="0.76" d="M20.9611 94.7607C21.7768 94.3288 22.4006 82.9564 22.5445 77.0062C22.6405 71.0561 22.3046 64.4342 21.9688 61.795C21.5849 58.628 20.8171 47.9754 20.8171 40.4898C20.8171 32.3803 19.0417 21.8236 18.8017 14.8658C18.5618 7.90801 16.3545 -2.2168 16.3545 -2.2168L28.2548 -1.64098C28.2548 -1.64098 30.4621 40.5377 30.9899 54.8852C31.5177 69.2327 31.1818 93.8969 30.702 94.3288C30.2222 94.7607 20.9611 94.7607 20.9611 94.7607Z" fill="#C4C0B4"/>
<path opacity="0.81" d="M21.1535 94.7607C21.9693 94.3288 22.6411 83.0044 22.737 77.0542C22.833 71.1041 22.4971 64.2423 22.2092 61.6031C21.8253 58.4361 21.0576 47.9754 21.0576 40.5377C21.0576 32.4283 19.1382 21.8236 18.8983 14.8658C18.6583 7.90801 16.499 -2.2168 16.499 -2.2168L28.2073 -1.64098C28.2073 -1.64098 30.4146 40.5377 30.8945 54.8852C31.4223 69.2327 31.0864 93.8969 30.6066 94.3288C30.1747 94.7607 21.1535 94.8086 21.1535 94.8086V94.7607Z" fill="#C4C0B4"/>
<path opacity="0.86" d="M21.3932 94.7607C22.161 94.3288 22.9288 83.0044 23.0247 77.1022C23.1207 71.1521 22.7848 64.0503 22.4969 61.3632C22.113 58.1962 21.3932 47.9274 21.2973 40.5377C21.2013 32.4283 19.2339 21.8236 18.946 14.8658C18.7061 7.90801 16.5947 -2.2168 16.5947 -2.2168L28.1111 -1.64098C28.1111 -1.64098 30.2704 40.5377 30.7982 54.8852C31.2781 69.2327 30.9902 93.8969 30.5583 94.3288C30.1265 94.7607 21.3932 94.8086 21.3932 94.8086V94.7607Z" fill="#C4C0B4"/>
<path opacity="0.9" d="M21.5849 94.8086C22.3527 94.3768 23.1204 83.1003 23.2644 77.1502C23.3603 71.2001 23.0724 63.8584 22.7365 61.1712C22.4006 58.0042 21.6329 47.9274 21.5369 40.5857C21.393 32.4763 19.2816 21.8236 19.0417 14.8658C18.8018 7.90801 16.6904 -2.2168 16.6904 -2.2168L28.0629 -1.64098C28.0629 -1.64098 30.2222 40.5377 30.702 54.8852C31.1819 69.2327 30.894 93.8969 30.4621 94.3288C30.0302 94.7607 21.5369 94.8086 21.5369 94.8086H21.5849Z" fill="#C4C0B4"/>
<path opacity="0.95" d="M21.8254 94.8098C22.5932 94.3779 23.4089 83.1494 23.5049 77.1993C23.6008 71.2492 23.3129 63.6196 23.025 60.9804C22.6891 57.8134 21.9693 47.9285 21.7774 40.5868C21.5855 32.4774 19.3781 21.7768 19.1382 14.819C18.8983 7.86114 16.835 -2.26367 16.835 -2.26367L28.0154 -1.68785C28.0154 -1.68785 30.1268 40.4909 30.6546 54.8384C31.1344 69.1858 30.8465 93.8501 30.4147 94.2819C29.9828 94.7138 21.7774 94.8098 21.7774 94.8098H21.8254Z" fill="#C4C0B4"/>
<path d="M22.0169 94.8098C22.7847 94.3779 23.6484 83.1974 23.7444 77.2473C23.8403 71.2972 23.5524 63.4276 23.2645 60.7405C22.9286 57.5735 22.2088 47.8805 22.0169 40.5868C21.825 32.4774 19.4737 21.7768 19.2338 14.819C18.9939 7.86114 16.9785 -2.26367 16.9785 -2.26367L27.9671 -1.68785C27.9671 -1.68785 30.0784 40.4909 30.5582 54.8384C31.0381 69.1858 30.7502 93.8501 30.3663 94.2819C29.9344 94.7138 22.0169 94.8098 22.0169 94.8098Z" fill="#C4C0B4"/>
</g>
<g opacity="0.2">
<path opacity="0.05" d="M22.3053 51.4763C23.5529 49.5569 26.6239 51.3323 28.0155 53.2517C29.4071 55.1711 29.9829 57.7143 30.3668 60.2095C31.8063 69.1827 31.6144 78.4438 31.4225 87.5609C31.4225 89.7682 31.2785 92.1674 30.1269 93.8949C28.9272 95.6703 26.8639 96.2462 24.9925 96.0062C23.8888 95.8623 21.2976 95.3344 20.5779 94.2308C19.8581 93.1271 20.5779 91.1598 20.7698 89.9122C21.3936 85.6415 21.8735 81.3708 22.1614 77.1002C22.7852 68.5589 21.1057 53.3477 22.3533 51.4763H22.3053Z" fill="#C3AA9D"/>
<path opacity="0.1" d="M22.4007 51.8633C23.6003 49.9918 26.6233 51.7193 28.0149 53.6387C29.3585 55.5101 29.9343 58.0533 30.3182 60.5485C31.7098 69.4257 31.5658 78.5908 31.3739 87.612C31.3739 89.8193 31.2299 92.1706 30.0782 93.898C28.9266 95.6255 26.8633 96.2493 25.0399 96.0094C23.9362 95.8654 21.393 95.3376 20.6732 94.2339C19.9534 93.1303 20.6732 91.2109 20.8172 89.9633C21.441 85.7406 21.8728 81.5179 22.2087 77.2953C22.8325 68.8499 21.1531 53.7827 22.4007 51.9112V51.8633Z" fill="#C3AA9D"/>
<path opacity="0.14" d="M22.5451 52.2971C23.7447 50.4737 26.7198 52.1532 28.0633 54.0726C29.4069 55.944 29.9347 58.4392 30.3186 60.8864C31.7102 69.6677 31.5183 78.6888 31.3743 87.662C31.3743 89.8213 31.2303 92.1726 30.1267 93.8521C28.975 95.5795 26.9597 96.1553 25.1363 95.9154C24.0806 95.7715 21.5374 95.2436 20.8656 94.1879C20.1458 93.1323 20.8656 91.1649 21.0095 89.9653C21.5854 85.7906 22.0652 81.6159 22.3531 77.3932C22.9769 69.0439 21.2975 54.1206 22.5451 52.2971Z" fill="#C3AA9D"/>
<path opacity="0.19" d="M22.6409 52.6796C23.8406 50.9042 26.7676 52.5357 28.0632 54.4071C29.4068 56.2785 29.9346 58.7257 30.3185 61.125C31.7101 69.8102 31.5181 78.7354 31.3262 87.6126C31.3262 89.772 31.1822 92.0752 30.0786 93.7547C28.9269 95.4342 26.9596 96.058 25.1841 95.818C24.1285 95.6741 21.6812 95.1942 20.9615 94.0906C20.2897 93.0349 20.9615 91.1155 21.1054 89.9159C21.6812 85.7892 22.1611 81.6625 22.449 77.4878C23.0728 69.2344 21.4413 54.4551 22.5929 52.6796H22.6409Z" fill="#C3AA9D"/>
<path opacity="0.24" d="M22.7845 53.1103C23.9841 51.3828 26.8152 53.0143 28.1588 54.8377C29.4544 56.6611 29.9822 59.1084 30.3661 61.5076C31.7097 70.0969 31.5657 78.9261 31.3738 87.7074C31.3738 89.8187 31.2298 92.122 30.1262 93.7535C29.0225 95.4329 27.0551 96.0087 25.2797 95.7688C24.224 95.6249 21.8248 95.145 21.105 94.0894C20.4332 93.0337 21.105 91.1623 21.249 89.9627C21.8248 85.8839 22.2567 81.8052 22.5925 77.6785C23.2164 69.5211 21.5849 54.8377 22.7365 53.1103H22.7845Z" fill="#C3AA9D"/>
<path opacity="0.29" d="M22.8809 53.4927C24.0325 51.8133 26.8637 53.3968 28.1593 55.1722C29.4548 56.9956 29.9827 59.3949 30.3186 61.7461C31.6621 70.2395 31.4702 78.9727 31.3262 87.658C31.3262 89.7693 31.1823 92.0246 30.1266 93.6561C29.023 95.3356 27.1036 95.9114 25.3761 95.6715C24.3684 95.5275 21.9692 95.0476 21.2974 93.992C20.6256 92.9363 21.2974 91.1129 21.4414 89.9133C22.0172 85.8825 22.449 81.8518 22.7369 77.7731C23.3128 69.7116 21.7292 55.1722 22.8809 53.4927Z" fill="#C3AA9D"/>
<path opacity="0.33" d="M23.0246 53.9247C24.1763 52.2932 26.9594 53.8287 28.207 55.6042C29.4546 57.3796 29.9824 59.7789 30.3183 62.1301C31.6139 70.5275 31.4699 79.1648 31.278 87.7541C31.278 89.8174 31.134 92.0727 30.0784 93.7042C28.9747 95.3357 27.1033 95.9115 25.4239 95.6716C24.4162 95.5276 22.0649 95.0478 21.3931 93.9921C20.7213 92.9844 21.3931 91.113 21.5371 89.9614C22.1129 85.9786 22.5448 81.9959 22.8327 77.9651C23.4085 69.9996 21.825 55.6042 22.9766 53.9727L23.0246 53.9247Z" fill="#C3AA9D"/>
<path opacity="0.38" d="M23.1202 54.3118C24.2719 52.7283 26.959 54.2158 28.2066 55.9912C29.4542 57.7667 29.9341 60.1179 30.3179 62.4212C31.6135 70.7226 31.4216 79.2639 31.2776 87.7093C31.2776 89.7726 31.1337 91.9799 30.126 93.5634C29.0703 95.1949 27.1989 95.7707 25.5195 95.5308C24.5598 95.3868 22.2085 94.907 21.5847 93.8993C20.9609 92.8916 21.5847 91.0682 21.7286 89.9166C22.2565 85.9818 22.6884 82.047 22.9763 78.0643C23.5521 70.1948 21.9686 55.9433 23.1202 54.3598V54.3118Z" fill="#C3AA9D"/>
<path opacity="0.43" d="M23.2647 54.7431C24.4164 53.2076 27.0556 54.6471 28.2552 56.3746C29.4548 58.102 29.9826 60.4533 30.3185 62.7565C31.5661 70.962 31.4222 79.4073 31.2782 87.7567C31.2782 89.772 31.1343 91.9793 30.1266 93.5628C29.0709 95.1463 27.2475 95.7222 25.616 95.4822C24.6563 95.3383 22.353 94.8584 21.7292 93.8507C21.1054 92.8431 21.7292 91.0676 21.8732 89.916C22.401 86.0292 22.8329 82.0944 23.1208 78.2077C23.6966 70.4341 22.1131 56.3266 23.2647 54.7431Z" fill="#C3AA9D"/>
<path opacity="0.48" d="M23.3606 55.1259C24.5122 53.5904 27.1034 55.0299 28.303 56.7574C29.5027 58.4848 29.9825 60.7881 30.3184 63.0434C31.566 71.1528 31.422 79.5022 31.2301 87.7556C31.2301 89.771 31.0861 91.9303 30.0784 93.4658C29.0708 95.0493 27.2473 95.6251 25.6159 95.3852C24.6562 95.2412 22.4489 94.7614 21.7771 93.8017C21.1533 92.794 21.7771 91.0186 21.921 89.9149C22.4489 86.0761 22.8807 82.1894 23.1207 78.3026C23.6485 70.577 22.113 56.6614 23.2646 55.1259H23.3606Z" fill="#C3AA9D"/>
<path opacity="0.52" d="M23.5049 55.5552C24.6085 54.0677 27.1517 55.4593 28.3513 57.1387C29.5509 58.8662 29.9828 61.1215 30.3187 63.3768C31.5183 71.3902 31.3744 79.6436 31.2304 87.8011C31.2304 89.7684 31.1344 91.9278 30.1268 93.4633C29.1191 95.0468 27.3437 95.5746 25.7602 95.3347C24.8484 95.1907 22.6411 94.7589 22.0173 93.7512C21.3935 92.7915 22.0173 91.0161 22.1613 89.9124C22.6891 86.1216 23.073 82.2828 23.3609 78.444C23.8887 70.8144 22.4012 56.9948 23.5049 55.5552Z" fill="#C3AA9D"/>
<path opacity="0.57" d="M23.6004 55.9892C24.704 54.5496 27.1993 55.8932 28.3509 57.5727C29.5025 59.2521 29.9824 61.5074 30.3183 63.7147C31.5179 71.6322 31.374 79.7897 31.23 87.8511C31.23 89.8185 31.134 91.9298 30.1263 93.4174C29.1187 94.9529 27.3912 95.5287 25.8557 95.2888C24.944 95.1448 22.7847 94.713 22.1609 93.7053C21.5371 92.7456 22.1609 91.0181 22.3048 89.9145C22.8327 86.1717 23.2165 82.3809 23.4564 78.59C23.9843 71.0564 22.4967 57.3807 23.6004 55.9892Z" fill="#C3AA9D"/>
<path opacity="0.62" d="M23.7441 56.3723C24.8478 54.9808 27.247 56.2764 28.3987 57.9558C29.5503 59.6353 29.9822 61.8426 30.3181 64.0019C31.4697 71.8235 31.3258 79.8849 31.1818 87.8504C31.1818 89.7698 31.0858 91.8811 30.1261 93.3687C29.1664 94.9042 27.439 95.432 25.9035 95.1921C24.9918 95.0482 22.8804 94.6163 22.3046 93.6566C21.7288 92.6969 22.3046 90.9694 22.4486 89.9138C22.9764 86.2189 23.3603 82.4761 23.6002 78.7333C24.128 71.2956 22.6405 57.7639 23.7441 56.3723Z" fill="#C3AA9D"/>
<path opacity="0.67" d="M23.8408 56.8056C24.9445 55.462 27.2957 56.7096 28.3994 58.3411C29.503 59.9726 29.9829 62.1799 30.2708 64.3392C31.4224 72.0648 31.2785 80.0303 31.1345 87.8998C31.1345 89.8192 31.0386 91.8825 30.0789 93.3701C29.1192 94.8576 27.4397 95.4334 25.9522 95.1935C25.0884 95.0495 22.9771 94.6177 22.4013 93.658C21.8255 92.6983 22.4013 91.0188 22.5452 89.9631C23.0251 86.3163 23.409 82.6215 23.6969 78.9266C24.2247 71.5849 22.7372 58.1971 23.8408 56.8536V56.8056Z" fill="#C3AA9D"/>
<path opacity="0.71" d="M23.9841 57.1888C25.0878 55.8932 27.3911 57.0928 28.4947 58.7243C29.5984 60.3558 30.0302 62.5151 30.3181 64.6264C31.4698 72.256 31.3258 80.1255 31.1818 87.8991C31.1818 89.7705 31.0859 91.8339 30.1742 93.2734C29.2145 94.7609 27.583 95.2888 26.1434 95.0488C25.2797 94.9049 23.2164 94.473 22.6405 93.5613C22.0647 92.6496 22.6405 90.9701 22.7845 89.8665C23.2643 86.2676 23.6482 82.6207 23.8881 78.9739C24.368 71.7282 22.9285 58.4844 24.0321 57.1888H23.9841Z" fill="#C3AA9D"/>
<path opacity="0.76" d="M24.0808 57.624C25.1365 56.3764 27.3918 57.528 28.4954 59.1115C29.5511 60.695 29.9829 62.8543 30.3188 64.9656C31.4225 72.4993 31.2785 80.2728 31.1346 87.9504C31.1346 89.8218 31.0386 91.8372 30.1269 93.2767C29.2152 94.7643 27.5837 95.2441 26.1441 95.0522C25.2804 94.9082 23.313 94.4764 22.7372 93.5646C22.1614 92.6529 22.7372 90.9735 22.8812 89.9178C23.361 86.3669 23.6969 82.768 23.9848 79.1692C24.4647 72.0194 23.0251 58.8716 24.1288 57.624H24.0808Z" fill="#C3AA9D"/>
<path opacity="0.81" d="M24.2246 58.0052C25.2802 56.8056 27.4875 57.9092 28.5432 59.4927C29.5988 61.0762 30.0307 63.1876 30.3186 65.2509C31.4223 72.6886 31.2783 80.3662 31.1344 87.8998C31.1344 89.7232 31.0384 91.7386 30.1267 93.1301C29.215 94.5697 27.6315 95.0975 26.2399 94.9056C25.4242 94.7616 23.4568 94.3298 22.881 93.418C22.3531 92.5063 22.881 90.8748 23.0249 89.8192C23.5048 86.3163 23.8406 82.7654 24.0806 79.1665C24.5604 72.1128 23.1689 59.1088 24.2246 57.9092V58.0052Z" fill="#C3AA9D"/>
<path opacity="0.86" d="M24.3201 58.4372C25.3758 57.2856 27.5351 58.3413 28.5427 59.9248C29.5504 61.5083 29.9823 63.5716 30.2702 65.635C31.3259 72.9766 31.1819 80.5103 31.0859 87.9959C31.0859 89.8193 30.99 91.7867 30.1263 93.1783C29.2625 94.6178 27.727 95.0977 26.2875 94.9057C25.4717 94.7618 23.5523 94.3779 23.0245 93.4662C22.4967 92.5545 23.0245 90.971 23.1685 89.9153C23.6483 86.4604 23.9842 82.9575 24.2241 79.4066C24.704 72.4488 23.3124 59.5889 24.3681 58.4372H24.3201Z" fill="#C3AA9D"/>
<path opacity="0.9" d="M24.4646 58.8216C25.5203 57.718 27.5836 58.7257 28.5913 60.2612C29.599 61.7967 30.0309 63.8601 30.3188 65.8754C31.3745 73.1211 31.2305 80.5588 31.0865 87.9485C31.0865 89.7239 30.9906 91.6913 30.1268 93.0829C29.2631 94.5224 27.7756 95.0023 26.384 94.8103C25.5683 94.6664 23.6969 94.2825 23.169 93.3708C22.6412 92.507 23.169 90.8755 23.313 89.8679C23.7449 86.413 24.0807 83.006 24.3207 79.5031C24.8005 72.6413 23.409 59.9253 24.4646 58.8216Z" fill="#C3AA9D"/>
<path opacity="0.95" d="M24.5597 59.2556C25.6154 58.2 27.6307 59.1597 28.6384 60.6952C29.6461 62.2307 30.03 64.2461 30.3179 66.2614C31.3256 73.4112 31.2296 80.7529 31.0856 88.0466C31.0856 89.822 30.9897 91.7414 30.1739 93.085C29.3102 94.4765 27.8707 94.9564 26.5271 94.7645C25.7593 94.6685 23.8879 94.2366 23.3601 93.3729C22.8323 92.5092 23.3601 90.9257 23.4561 89.918C23.8879 86.5111 24.2238 83.1041 24.4637 79.6972C24.8956 72.9313 23.552 60.3593 24.6077 59.2556H24.5597Z" fill="#C3AA9D"/>
<path d="M24.7043 59.6358C25.7119 58.5801 27.7273 59.5398 28.687 61.0273C29.6467 62.5148 30.0306 64.5302 30.3185 66.4976C31.3262 73.5514 31.1822 80.7971 31.0862 87.9948C31.0862 89.7223 30.9903 91.6417 30.1745 92.9852C29.3588 94.3768 27.9192 94.8567 26.5757 94.6647C25.8079 94.5687 23.9845 94.1369 23.5046 93.2732C22.9768 92.4094 23.5046 90.8739 23.6006 89.8662C24.0324 86.5073 24.3684 83.1483 24.5603 79.7894C24.9922 73.0715 23.6486 60.6914 24.7043 59.6358Z" fill="#C3AA9D"/>
</g>
</g>
<g opacity="0.3">
<path opacity="0.05" d="M4.74342 87.5182C4.40752 87.2783 4.8394 77.3454 5.1273 74.8502C5.41521 72.355 6.18296 68.2763 6.27893 65.8291C6.3749 63.3338 9.30199 61.6544 11.3174 61.2705C13.3327 60.8866 15.732 61.3665 16.1158 62.2302C16.4997 63.0939 17.2195 67.9404 17.6994 68.1323C18.1792 68.3243 19.2349 63.7657 19.7147 62.902C20.1946 62.0383 23.9374 62.3262 24.3213 63.2859C24.7051 64.2456 25.4729 71.4913 25.5689 75.2821C25.6648 79.0729 25.7608 87.2783 25.185 87.5662C24.6092 87.8541 20.5304 88.5259 16.8836 88.7179C13.2847 88.9098 12.7569 88.8138 12.1811 88.334C11.6053 87.8541 12.2771 81.1842 12.0371 80.3205C11.7972 79.5048 10.5016 81.2322 10.3097 83.2476C10.1177 85.2629 9.9258 87.9501 9.44595 88.334C8.9661 88.7179 5.36721 88.0461 4.69542 87.5662L4.74342 87.5182Z" fill="white"/>
<path opacity="0.1" d="M4.8401 87.4199C4.50421 87.18 4.93604 77.2951 5.22395 74.8479C5.51186 72.4006 6.27965 68.3219 6.37562 65.8747C6.47159 63.4275 9.39867 61.7 11.3661 61.3641C13.3334 60.9802 15.7327 61.5081 16.1165 62.3238C16.5004 63.1875 17.2202 68.034 17.748 68.226C18.2279 68.4179 19.3315 63.7634 19.8114 62.9476C20.2912 62.0839 23.9381 62.3718 24.322 63.3315C24.7058 64.2912 25.4736 71.4409 25.5696 75.2317C25.6655 79.0226 25.7615 87.132 25.1857 87.4199C24.6099 87.7078 20.5791 88.3796 16.9803 88.5715C13.3814 88.7635 12.9495 88.6675 12.3737 88.1877C11.7979 87.7078 12.4697 80.942 12.1818 80.1262C11.9419 79.3585 10.5983 81.0859 10.4063 83.0533C10.2144 85.0207 9.97446 87.7558 9.5426 88.1397C9.06275 88.5236 5.55986 87.8998 4.93606 87.4199H4.8401Z" fill="white"/>
<path opacity="0.14" d="M4.88711 87.3256C4.55122 87.0857 4.98309 77.2968 5.271 74.8496C5.55891 72.4023 6.2787 68.3716 6.37467 65.9723C6.47064 63.5251 9.34973 61.8456 11.3171 61.4618C13.2845 61.0779 15.5878 61.6057 15.9716 62.4215C16.3555 63.2852 17.0753 68.1797 17.6511 68.3716C18.131 68.5155 19.2346 63.861 19.7145 63.0453C20.1943 62.1815 23.7452 62.4694 24.1291 63.4291C24.5129 64.3888 25.2327 71.4906 25.3287 75.2334C25.4247 78.9763 25.5206 87.0377 24.9448 87.3256C24.369 87.6135 20.3383 88.2853 16.7874 88.4293C13.2365 88.6212 12.8046 88.5252 12.2768 88.0934C11.701 87.6135 12.3728 80.7997 12.0369 80.0319C11.749 79.2642 10.3574 81.0396 10.1655 83.007C9.97354 84.9744 9.7336 87.7095 9.25376 88.0934C8.77391 88.4773 5.41495 87.8535 4.74316 87.3736L4.88711 87.3256Z" fill="white"/>
<path opacity="0.19" d="M4.98365 87.2327C4.64776 86.9928 5.07963 77.2999 5.36754 74.8526C5.65545 72.4534 6.3752 68.4227 6.47117 66.0234C6.56714 63.6242 9.44623 61.9447 11.4136 61.5608C13.381 61.1769 15.6363 61.7048 16.0202 62.5685C16.404 63.3842 17.1718 68.3747 17.7956 68.5666C18.2755 68.7106 19.3791 64.008 19.859 63.1443C20.3388 62.3286 23.7937 62.6165 24.1776 63.5282C24.5615 64.4399 25.2813 71.5417 25.3772 75.2365C25.4732 78.9313 25.5692 86.9448 24.9933 87.2327C24.4175 87.5206 20.4348 88.1444 16.8839 88.3364C13.333 88.5283 12.9971 88.4803 12.4693 88.0005C11.8935 87.5206 12.5653 80.6588 12.1814 79.891C11.8455 79.1713 10.4539 80.9467 10.262 82.8661C10.07 84.7855 9.83011 87.5686 9.35026 87.9525C8.87041 88.3364 5.65544 87.7126 4.98365 87.2327Z" fill="white"/>
<path opacity="0.24" d="M5.07935 87.1326C4.74346 86.8927 5.17533 77.2477 5.46324 74.8485C5.75115 72.4492 6.47094 68.4665 6.56691 66.0672C6.66288 63.668 9.49397 61.9885 11.4614 61.6526C13.3807 61.2687 15.5881 61.7966 15.9719 62.6603C16.3558 63.524 17.1236 68.4665 17.7954 68.6584C18.2752 68.8024 19.4268 64.0519 19.8587 63.1881C20.3386 62.3724 23.6975 62.6603 24.0814 63.572C24.4652 64.4837 25.185 71.4895 25.281 75.1843C25.377 78.8792 25.473 86.7967 24.8971 87.0846C24.3213 87.3725 20.3865 87.9963 16.8836 88.1882C13.3807 88.3802 13.0929 88.3322 12.565 87.8524C11.9892 87.3725 12.661 80.4147 12.2291 79.6949C11.8932 79.0231 10.4057 80.7506 10.2137 82.718C10.0218 84.6374 9.7819 87.4205 9.30205 87.7564C8.8222 88.1403 5.70316 87.5165 5.07935 87.0846V87.1326Z" fill="white"/>
<path opacity="0.29" d="M5.12721 87.0375C4.79131 86.7976 5.22318 77.2486 5.51109 74.8494C5.799 72.4501 6.51876 68.5154 6.61473 66.1641C6.7107 63.7648 9.54181 62.1334 11.4612 61.7975C13.3806 61.4136 15.5399 61.9894 15.9238 62.8052C16.3077 63.6209 17.1234 68.6593 17.7952 68.8513C18.2751 68.9952 19.4267 64.1487 19.9066 63.333C20.3864 62.5172 23.6494 62.8052 24.0333 63.7169C24.4171 64.6286 25.1369 71.5864 25.2329 75.2332C25.3289 78.8801 25.4248 86.7496 24.849 87.0375C24.3212 87.3254 20.3864 87.9492 16.8835 88.1412C13.4286 88.3331 13.1887 88.2851 12.6128 87.8053C12.085 87.3254 12.7088 80.3196 12.229 79.5999C11.8451 78.9761 10.3576 80.7035 10.1656 82.6229C9.97369 84.5423 9.68577 87.3254 9.25391 87.6613C8.82205 87.9972 5.79899 87.4694 5.12721 86.9895V87.0375Z" fill="white"/>
<path opacity="0.33" d="M5.22389 86.9393C4.88799 86.6994 5.31986 77.2464 5.60777 74.8951C5.89568 72.5439 6.61547 68.6571 6.71144 66.2578C6.80741 63.8586 9.59054 62.2751 11.5099 61.8912C13.4293 61.5073 15.4927 62.0832 15.8765 62.8989C16.2604 63.7146 17.0762 68.801 17.7959 68.993C18.2758 69.1369 19.4754 64.2425 19.9073 63.4267C20.3392 62.611 23.6021 62.8989 23.938 63.8106C24.3219 64.7223 25.0417 71.6322 25.1376 75.231C25.2336 78.8779 25.3296 86.6514 24.7537 86.9393C24.2259 87.2272 20.2911 87.851 16.8842 88.043C13.4293 88.2349 13.2854 88.1869 12.7096 87.7551C12.1337 87.3232 12.8055 80.2214 12.2777 79.5017C11.8458 78.8779 10.3103 80.6533 10.1184 82.5727C9.92642 84.4921 9.6385 87.2752 9.20664 87.6111C8.77478 87.995 5.84769 87.4192 5.22389 86.9393Z" fill="white"/>
<path opacity="0.38" d="M5.31959 86.8464C4.98369 86.6065 5.41557 77.2014 5.70348 74.8982C5.99139 72.5469 6.71114 68.7081 6.80711 66.3569C6.90308 64.0056 9.68619 62.3741 11.5576 62.0382C13.429 61.7023 15.4924 62.2302 15.8283 63.0459C16.1642 63.8616 17.0759 68.948 17.7957 69.14C18.2755 69.236 19.4751 64.3415 19.907 63.5258C20.3389 62.71 23.5059 62.9979 23.8418 63.9096C24.1777 64.8213 24.8974 71.6352 24.9934 75.2341C25.0894 78.8329 25.1853 86.5585 24.6095 86.8464C24.0817 87.1343 20.1949 87.7581 16.788 87.9501C13.381 88.142 13.2851 88.094 12.7093 87.6622C12.1334 87.2303 12.8052 80.0805 12.2294 79.3608C11.7976 78.7849 10.214 80.5604 10.0221 82.4798C9.83015 84.3512 9.54225 87.1823 9.0624 87.5182C8.63054 87.8541 5.8474 87.3263 5.2236 86.8944L5.31959 86.8464Z" fill="white"/>
<path opacity="0.43" d="M5.36731 86.7512C5.03141 86.5113 5.46328 77.2023 5.7032 74.899C5.99111 72.5957 6.66287 68.7569 6.75884 66.4057C6.85481 64.0544 9.63796 62.4709 11.5094 62.135C13.3808 61.7991 15.3481 62.3749 15.732 63.1427C16.0679 63.9584 16.9796 69.0928 17.7474 69.2847C18.2272 69.3807 19.4269 64.4383 19.9067 63.6225C20.3386 62.8068 23.4096 63.0947 23.7455 64.0064C24.0814 64.9181 24.8012 71.684 24.8972 75.2349C24.9931 78.7858 25.0891 86.4633 24.5613 86.7512C24.0334 87.0392 20.1946 87.663 16.7877 87.8069C13.3808 87.9988 13.3328 87.9509 12.8049 87.519C12.2771 87.0871 12.9009 79.8414 12.2771 79.1696C11.7973 78.6418 10.1658 80.4172 9.97385 82.2886C9.78191 84.1601 9.49398 86.9912 9.01413 87.3271C8.58227 87.663 5.94312 87.1351 5.31931 86.7033L5.36731 86.7512Z" fill="white"/>
<path opacity="0.48" d="M5.46301 86.6531C5.12712 86.4131 5.55898 77.2 5.7989 74.8968C6.08681 72.5935 6.75861 68.8027 6.85458 66.4994C6.95055 64.1961 9.68567 62.6126 11.5571 62.2287C13.4285 61.8929 15.3479 62.4687 15.6838 63.2364C16.0197 64.0042 16.9794 69.2345 17.7471 69.4265C18.227 69.5225 19.4746 64.484 19.9065 63.7163C20.3383 62.9005 23.3134 63.2364 23.6493 64.1002C23.9852 64.9639 24.7049 71.7298 24.8009 75.2327C24.8969 78.7835 24.9929 86.3652 24.465 86.6531C23.9372 86.941 20.1464 87.5168 16.7874 87.7087C13.4285 87.9007 13.4285 87.9007 12.9007 87.4208C12.3728 86.989 12.9966 79.6952 12.3249 79.0714C11.845 78.5916 10.1176 80.367 9.9736 82.2384C9.82965 84.1099 9.44575 86.941 9.01388 87.2769C8.58202 87.6128 6.03882 87.1329 5.41502 86.6531H5.46301Z" fill="white"/>
<path opacity="0.52" d="M5.55969 86.5584C5.2238 86.3185 5.65566 77.1534 5.89558 74.8981C6.13551 72.5948 6.85529 68.852 6.95126 66.5487C7.04723 64.2454 9.78237 62.7099 11.6058 62.326C13.4292 61.9901 15.3006 62.5659 15.6845 63.3817C16.0204 64.1494 16.9801 69.4278 17.8438 69.5717C18.3237 69.6677 19.5713 64.5813 20.0032 63.7656C20.435 62.9498 23.3141 63.2857 23.65 64.1494C23.9859 65.0132 24.7057 71.6831 24.8016 75.186C24.8976 78.6889 24.9936 86.2225 24.4657 86.5104C23.9379 86.7983 20.1471 87.3741 16.8362 87.5661C13.5252 87.758 13.5732 87.758 13.0454 87.3262C12.5175 86.8943 13.1413 79.5526 12.4695 78.9288C11.9417 78.449 10.2142 80.2724 10.0223 82.0958C9.83035 83.9192 9.49447 86.7983 9.0626 87.1342C8.63074 87.4701 6.23149 86.9903 5.60769 86.5584H5.55969Z" fill="white"/>
<path opacity="0.57" d="M5.65539 86.4591C5.3195 86.2192 5.75136 77.15 5.99129 74.8947C6.23121 72.6394 6.95099 68.8966 7.04696 66.6413C7.14293 64.386 9.83008 62.8025 11.6535 62.4666C13.4769 62.1308 15.3004 62.7066 15.6363 63.5223C15.9722 64.2901 16.9798 69.5684 17.8436 69.7603C18.2754 69.8563 19.571 64.7219 20.0029 63.9062C20.4347 63.1384 23.2178 63.4263 23.5537 64.2901C23.8896 65.1538 24.6094 71.7757 24.7054 75.2306C24.8014 78.7335 24.8973 86.1712 24.3695 86.4591C23.8417 86.699 20.0988 87.3228 16.7879 87.5148C13.4769 87.7067 13.6209 87.7067 13.093 87.2748C12.5652 86.843 13.189 79.4053 12.4692 78.8295C11.9414 78.3976 10.118 80.2211 9.97404 82.0445C9.7821 83.8679 9.44619 86.747 9.01432 87.0829C8.58246 87.4188 6.32719 86.9389 5.70339 86.5071L5.65539 86.4591Z" fill="white"/>
<path opacity="0.62" d="M5.70325 86.3663C5.36735 86.1264 5.79921 77.1532 6.03914 74.8979C6.27906 72.6426 6.99881 68.9478 7.09478 66.6925C7.19074 64.4372 9.87792 62.9017 11.6534 62.5658C13.4768 62.2299 15.2042 62.8537 15.5401 63.6214C15.876 64.3892 16.8837 69.7155 17.7954 69.9075C18.2273 70.0034 19.5709 64.7731 20.0027 64.0053C20.4346 63.2376 23.1217 63.5255 23.4576 64.3892C23.7935 65.2529 24.5133 71.8269 24.5613 75.2818C24.6573 78.7367 24.7532 86.1264 24.2254 86.4143C23.6976 86.6542 20.0027 87.278 16.7397 87.4699C13.4768 87.6619 13.6687 87.6619 13.1409 87.23C12.613 86.7981 13.2369 79.3125 12.4691 78.7367C11.9413 78.3528 10.0698 80.1762 9.87791 81.9517C9.68597 83.7271 9.35009 86.6542 8.91822 86.9901C8.48636 87.326 6.32702 86.8461 5.7512 86.4143L5.70325 86.3663Z" fill="white"/>
<path opacity="0.67" d="M5.79902 86.2681C5.51111 86.0282 5.89499 77.103 6.13491 74.8957C6.37484 72.6884 7.09461 68.9935 7.14259 66.7862C7.23856 64.5789 9.87774 63.0434 11.6532 62.6595C13.4286 62.3236 15.1561 62.9474 15.492 63.7152C15.8278 64.483 16.8835 69.8573 17.7952 70.0012C18.2271 70.0972 19.5707 64.8189 20.0025 64.0511C20.4344 63.2833 23.0256 63.5712 23.3615 64.435C23.6974 65.2987 24.3692 71.7767 24.4651 75.2316C24.5611 78.6385 24.6571 86.0282 24.1292 86.2681C23.6014 86.508 19.9545 87.1318 16.6916 87.2758C13.4286 87.4677 13.6685 87.4677 13.1887 87.0358C12.6609 86.604 13.3326 79.0224 12.4689 78.4945C11.8931 78.1586 9.97373 79.9821 9.82977 81.7575C9.63783 83.5329 9.25392 86.412 8.82206 86.7959C8.39019 87.1318 6.37483 86.7 5.75103 86.2681H5.79902Z" fill="white"/>
<path opacity="0.71" d="M5.8957 86.1758C5.60779 85.9358 5.9917 77.1066 6.23162 74.8993C6.47155 72.692 7.14333 69.0452 7.2393 66.8379C7.33527 64.6305 9.97442 63.095 11.7499 62.7591C13.5253 62.4232 15.1568 63.047 15.4927 63.8148C15.8286 64.5826 16.8843 70.0048 17.844 70.1488C18.2758 70.1968 19.6194 64.9185 20.0513 64.1507C20.4831 63.3829 22.9783 63.6709 23.3142 64.5346C23.6501 65.3983 24.3219 71.8283 24.4179 75.2352C24.5138 78.6421 24.6098 85.9358 24.082 86.1758C23.5541 86.4157 19.9073 87.0395 16.6923 87.1834C13.4773 87.3274 13.7652 87.3754 13.2854 86.9915C12.8055 86.6076 13.4293 78.93 12.5176 78.4022C11.9418 78.0663 9.97444 79.8897 9.7825 81.7132C9.59056 83.4886 9.20668 86.3677 8.77482 86.7516C8.34295 87.0875 6.47154 86.6556 5.84774 86.2237L5.8957 86.1758Z" fill="white"/>
<path opacity="0.76" d="M5.94355 86.0763C5.65564 85.8364 6.03952 77.1031 6.27945 74.8958C6.51937 72.6885 7.19115 69.0896 7.28712 66.9303C7.38309 64.723 9.97428 63.2355 11.7497 62.8996C13.5252 62.5637 15.1087 63.2355 15.4446 63.9553C15.7805 64.723 16.8841 70.1933 17.8438 70.3373C18.2757 70.3852 19.6673 65.0589 20.0991 64.2912C20.531 63.5234 22.9302 63.8113 23.2661 64.675C23.602 65.5388 24.2738 71.9208 24.3698 75.2797C24.4657 78.6386 24.5137 85.8844 24.0339 86.1243C23.506 86.3642 19.9072 86.988 16.7402 87.132C13.5252 87.3239 13.9091 87.3719 13.4292 86.94C12.9494 86.5082 13.5731 78.7826 12.6134 78.3027C11.9896 78.0148 9.97431 79.8383 9.83035 81.6137C9.6864 83.3891 9.2545 86.2682 8.82264 86.6041C8.39077 86.94 6.61536 86.5082 6.03954 86.0763H5.94355Z" fill="white"/>
<path opacity="0.81" d="M6.03926 85.9837C5.75135 85.7438 6.13522 77.0585 6.37515 74.8992C6.61507 72.7399 7.28686 69.141 7.38283 66.9817C7.4788 64.8223 10.07 63.3348 11.7974 62.9989C13.5249 62.663 15.0604 63.3348 15.3963 64.1026C15.7322 64.8703 16.8359 70.3406 17.8435 70.4846C18.2754 70.5325 19.667 65.1103 20.0988 64.3905C20.5307 63.6227 22.834 63.9586 23.1699 64.7744C23.5058 65.5901 24.1775 71.9241 24.2735 75.2831C24.3695 78.594 24.4174 85.7917 23.9376 86.0317C23.4578 86.2716 19.8589 86.8474 16.6919 87.0393C13.5249 87.2313 13.9568 87.2793 13.4289 86.8474C12.9491 86.4155 13.5729 78.642 12.5652 78.2101C11.9414 77.9222 9.87802 79.7936 9.68608 81.5691C9.49414 83.3445 9.06228 86.2236 8.6784 86.5595C8.24654 86.8954 6.61507 86.4635 6.03926 86.0797V85.9837Z" fill="white"/>
<path opacity="0.86" d="M6.13496 85.8835C5.84705 85.6916 6.23093 77.0543 6.47085 74.895C6.71078 72.7357 7.38256 69.1848 7.47853 67.0735C7.5745 64.9141 10.1177 63.4266 11.8452 63.0907C13.5726 62.7548 15.0601 63.4266 15.396 64.1944C15.7319 64.9141 16.8836 70.4804 17.9392 70.6243C18.3711 70.6723 19.8107 65.2021 20.1945 64.4343C20.6264 63.7145 22.8817 64.0024 23.1696 64.8182C23.4575 65.6339 24.1773 71.9199 24.2253 75.2309C24.3213 78.5419 24.3692 85.6436 23.8894 85.8835C23.4095 86.1235 19.8586 86.6993 16.6916 86.8912C13.5246 87.0832 14.0525 87.1311 13.5246 86.6993C13.0448 86.2674 13.6686 78.3979 12.6129 78.014C11.9411 77.7741 9.82978 79.6455 9.68583 81.373C9.54188 83.1004 9.06203 86.0275 8.67815 86.3634C8.24629 86.6993 6.71078 86.3154 6.13496 85.8835Z" fill="white"/>
<path opacity="0.9" d="M6.18281 85.7914C5.8949 85.5994 6.27878 77.0581 6.5187 74.8988C6.75863 72.7875 7.4304 69.2366 7.47839 67.1252C7.57436 65.0139 10.1176 63.5264 11.797 63.1905C13.5245 62.8546 14.9161 63.5744 15.252 64.2941C15.5878 65.0139 16.7395 70.6281 17.8431 70.7721C18.275 70.7721 19.7146 65.3018 20.0984 64.5341C20.4823 63.7663 22.6896 64.1022 22.9775 64.9179C23.3134 65.7337 23.9372 71.9717 24.0332 75.2347C24.1292 78.4977 24.1772 85.5514 23.6973 85.7914C23.2175 86.0313 19.6666 86.6071 16.5955 86.7511C13.4765 86.895 14.0523 86.991 13.5245 86.5591C13.0446 86.1273 13.7164 78.1618 12.5648 77.8259C11.893 77.5859 9.68569 79.5053 9.54174 81.2328C9.39778 82.9603 8.91793 85.8873 8.48606 86.2232C8.0542 86.5591 6.66264 86.1752 6.08682 85.7434L6.18281 85.7914Z" fill="white"/>
<path opacity="0.95" d="M6.27949 85.6921C5.99158 85.5001 6.37546 77.0068 6.61538 74.8955C6.85531 72.7841 7.52712 69.2812 7.5751 67.2179C7.67107 65.1065 10.1663 63.667 11.8937 63.3311C13.5732 62.9952 14.9648 63.715 15.2527 64.4348C15.5886 65.1545 16.7882 70.8168 17.8918 70.9127C18.3237 70.9127 19.7633 65.3465 20.1951 64.6267C20.579 63.9069 22.6903 64.1948 22.9782 65.0106C23.3141 65.8263 23.938 71.9684 24.0339 75.2314C24.1299 78.4943 24.1779 85.4521 23.698 85.6921C23.2182 85.932 19.7153 86.5078 16.6442 86.6518C13.5732 86.7957 14.149 86.8917 13.6692 86.5078C13.1893 86.1239 13.8611 78.0625 12.6615 77.7266C11.9417 77.5346 9.73441 79.454 9.59046 81.1335C9.4465 82.813 8.96665 85.788 8.53479 86.1239C8.15091 86.4598 6.85531 86.1239 6.27949 85.6921Z" fill="white"/>
<path d="M6.37519 85.5509C6.08728 85.359 6.47116 76.9616 6.71109 74.8503C6.95101 72.7389 7.5748 69.332 7.67077 67.2207C7.76674 65.1093 10.262 63.6698 11.9414 63.3819C13.6209 63.046 14.9165 63.7658 15.2524 64.4855C15.5883 65.2053 16.7879 70.9155 17.9395 71.0115C18.3714 71.0115 19.8589 65.3973 20.2428 64.6775C20.6267 63.9577 22.6421 64.2456 22.93 65.0614C23.2659 65.8771 23.8897 71.9712 23.9856 75.1862C24.0816 78.4012 24.1296 85.311 23.6497 85.5509C23.1699 85.7908 19.715 86.3667 16.644 86.5106C13.5729 86.6546 14.2447 86.7505 13.7649 86.3667C13.285 85.9828 13.9568 77.8253 12.7092 77.5374C11.9894 77.3935 9.68613 79.3129 9.54218 80.9923C9.39822 82.6718 8.87038 85.6469 8.4865 85.9828C8.10262 86.3187 6.90303 85.9828 6.37519 85.5509Z" fill="white"/>
</g>
<path opacity="0.05" d="M6.75783 88.8611C7.18969 89.6768 9.97284 89.2929 10.8366 88.8611C11.7003 88.4292 11.2684 82.5271 11.1245 77.5846C10.9805 72.5942 11.2684 66.3082 10.8366 64.1009C10.4047 61.8936 10.3567 54.168 10.8366 47.882C11.2684 41.596 12.66 34.3502 13.5237 28.784C15.2512 18.0834 15.731 12.4211 15.2992 12.1332C14.8673 11.8453 12.0842 19.139 10.4047 29.0719C8.72522 39.1967 6.6139 54.5519 6.90181 59.3504C7.18972 64.1968 7.62158 66.2602 7.04576 72.1143C6.46994 77.9685 5.8941 87.2296 6.75783 88.8131V88.8611Z" fill="white"/>
<path opacity="0.1" d="M6.80569 88.7205C7.23755 89.5362 9.9727 89.1523 10.7884 88.7205C11.6042 88.2886 11.2203 82.4824 11.0763 77.54C10.9324 72.5975 11.2683 66.3595 10.8364 64.2002C10.4046 62.0409 10.3566 54.4593 10.7404 48.2212C11.1723 41.9832 12.4679 34.8814 13.3316 29.4111C15.0111 19.0464 15.491 13.3842 15.1071 13.0963C14.6752 12.8084 11.988 19.9581 10.3566 29.6511C8.67709 39.6319 6.66173 54.6512 6.94964 59.4017C7.23755 64.2002 7.6694 66.4075 7.09359 72.2137C6.51777 78.0198 5.94196 87.137 6.80569 88.7205Z" fill="white"/>
<path opacity="0.14" d="M6.85452 88.5743C7.28638 89.39 9.92554 89.0061 10.7413 88.5743C11.557 88.1424 11.1252 82.3842 11.0292 77.4898C10.8853 72.6433 11.2211 66.4532 10.7893 64.2939C10.3574 62.1346 10.2614 54.6969 10.6933 48.5549C11.1251 42.4128 12.3728 35.407 13.1885 29.9847C14.82 19.9559 15.3478 14.2457 14.916 13.9578C14.4841 13.6699 11.8929 20.6757 10.3094 30.1287C8.67795 40.0136 6.71056 54.649 6.99846 59.3515C7.28637 64.054 7.67025 66.4532 7.14241 72.1634C6.5666 77.8736 5.99079 86.8948 6.85452 88.4783V88.5743Z" fill="white"/>
<path opacity="0.19" d="M6.90225 88.4775C7.33411 89.2933 9.87728 88.9094 10.693 88.4775C11.5088 88.0456 11.0769 82.3354 10.933 77.537C10.789 72.7385 11.1249 66.6444 10.741 64.5331C10.3571 62.4217 10.1652 55.128 10.5971 49.0339C11.0289 42.9398 12.1806 36.03 12.9963 30.7037C14.5318 20.9628 15.1076 15.3006 14.7238 15.0126C14.2919 14.7247 11.7967 21.5866 10.2612 30.7997C8.67767 40.5406 6.75829 54.8401 7.0462 59.4946C7.33411 64.1492 7.71798 66.6924 7.19015 72.3546C6.66231 78.0168 6.0865 86.942 6.90225 88.4775Z" fill="white"/>
<path opacity="0.24" d="M6.95021 88.336C7.38207 89.1038 9.82932 88.7679 10.6451 88.336C11.4608 87.9042 11.0289 82.2419 10.885 77.4914C10.741 72.7409 11.1249 66.7428 10.693 64.6315C10.3091 62.5201 10.1172 55.3704 10.5011 49.3723C10.885 43.3742 11.9886 36.5603 12.8044 31.282C14.2919 21.877 14.9157 16.2147 14.4838 15.9268C14.1 15.6389 11.6528 22.4048 10.1652 31.33C8.58172 40.9749 6.75829 54.8906 7.0462 59.4971C7.33411 64.1036 7.71798 66.7908 7.19015 72.405C6.66231 77.9713 6.0865 86.8005 6.90225 88.336H6.95021Z" fill="white"/>
<path opacity="0.29" d="M6.99795 88.1904C7.42981 88.9582 9.82906 88.6223 10.5968 88.1904C11.4126 87.7586 10.9807 82.1443 10.8368 77.4898C10.6928 72.7873 11.0766 66.8372 10.6928 64.7738C10.3089 62.7105 10.069 55.7047 10.4529 49.7545C10.8367 43.8524 11.8924 37.1345 12.6602 31.9521C14.0997 22.883 14.7235 17.1728 14.3396 16.9329C13.9558 16.645 11.6045 23.2669 10.165 31.9521C8.62945 41.4531 6.85399 55.0329 7.1419 59.5914C7.42981 64.15 7.81368 66.9811 7.28585 72.4994C6.75801 78.0176 6.18221 86.7029 6.99795 88.2384V88.1904Z" fill="white"/>
<path opacity="0.33" d="M7.0458 88.0931C7.42968 88.8609 9.78092 88.525 10.5487 88.0931C11.3644 87.6612 10.9326 82.095 10.7886 77.4884C10.6447 72.8819 11.0285 66.9797 10.6447 64.9164C10.2608 62.853 9.97287 55.9912 10.4047 50.1371C10.7886 44.2829 11.7483 37.709 12.5161 32.5746C13.9076 23.8413 14.5794 18.1311 14.1475 17.8432C13.7637 17.5553 11.5084 24.0333 10.1648 32.4306C8.6773 41.8357 6.94984 55.0315 7.23775 59.4941C7.52566 64.0047 7.90952 66.9797 7.3337 72.45C6.80587 77.8723 6.23006 86.5096 7.0458 87.9971V88.0931Z" fill="white"/>
<path opacity="0.38" d="M7.09384 87.9494C7.47772 88.7172 9.73301 88.3813 10.5488 87.9494C11.3165 87.5655 10.9326 82.0473 10.7887 77.4887C10.6447 72.9301 11.0766 67.124 10.6447 65.1086C10.2609 63.0932 9.97293 56.3274 10.3568 50.5692C10.7407 44.811 11.6044 38.333 12.3722 33.2466C13.6678 24.8013 14.3876 19.1391 14.0037 18.8512C13.6198 18.5633 11.4605 24.9452 10.1649 33.0547C8.67737 42.3158 7.04586 55.1757 7.28578 59.5903C7.5257 64.0049 7.9096 67.2199 7.38177 72.5462C6.85394 77.9206 6.27812 86.4139 7.04588 87.9014L7.09384 87.9494Z" fill="white"/>
<path opacity="0.43" d="M7.14158 87.8069C7.52546 88.5747 9.73279 88.2388 10.5005 87.8069C11.2683 87.375 10.8364 81.9527 10.7404 77.4422C10.5965 72.9316 11.0284 67.1734 10.6445 65.206C10.2606 63.2386 9.92472 56.6167 10.3086 50.9065C10.6925 45.1963 11.4602 38.8623 12.228 33.8719C13.4756 25.7624 14.2434 20.0522 13.8595 19.8123C13.4756 19.5244 11.4123 25.7624 10.1647 33.632C8.72511 42.7971 7.1416 55.2731 7.38152 59.6398C7.62144 64.0064 8.00531 67.3653 7.47747 72.6437C6.94964 77.922 6.37382 86.3194 7.14158 87.8069Z" fill="white"/>
<path opacity="0.48" d="M7.18958 87.7134C7.57346 88.4332 9.68479 88.1453 10.4525 87.7134C11.2203 87.3295 10.7884 81.9072 10.6925 77.4446C10.5485 72.982 10.9804 67.3198 10.5965 65.3524C10.2126 63.3851 9.82873 56.9071 10.2126 51.2929C10.5965 45.6786 11.3163 39.4406 12.0361 34.4982C13.2357 26.7246 14.0034 21.0144 13.6195 20.7745C13.2357 20.5346 11.2683 26.5806 10.0687 34.2102C8.6771 43.2314 7.1416 55.3716 7.38152 59.6902C7.62144 64.0089 8.00531 67.5118 7.47747 72.7421C6.94964 77.9725 6.37382 86.2739 7.14158 87.7134H7.18958Z" fill="white"/>
<path opacity="0.52" d="M7.19028 87.566C7.57416 88.2858 9.58951 87.9979 10.3573 87.566C11.125 87.1822 10.6932 81.8079 10.5492 77.4412C10.4053 73.0746 10.8851 67.4604 10.5013 65.493C10.1174 63.5736 9.73347 57.2396 10.0694 51.6734C10.4053 46.1071 11.0771 40.013 11.7968 35.1186C12.9005 27.6329 13.7642 21.9707 13.3803 21.6828C12.9965 21.4429 11.1251 27.393 9.97341 34.7347C8.58185 43.6599 7.1423 55.4162 7.38223 59.6868C7.62215 63.9575 8.00601 67.6043 7.47818 72.7387C6.99833 77.8731 6.42251 86.0785 7.14229 87.5181L7.19028 87.566Z" fill="white"/>
<path opacity="0.57" d="M7.23799 87.4235C7.62187 88.1433 9.54126 87.8554 10.309 87.4235C11.0288 87.0396 10.6449 81.7133 10.501 77.3947C10.357 73.076 10.8369 67.5098 10.501 65.6384C10.1171 63.719 9.6852 57.5289 10.0691 52.0586C10.453 46.5884 11.0288 40.5902 11.7006 35.7438C12.7563 28.594 13.62 22.8838 13.2361 22.6439C12.8522 22.404 11.0768 28.2101 9.97313 35.3119C8.62955 44.0931 7.23797 55.5135 7.47789 59.6882C7.71782 63.8629 8.05373 67.7017 7.57388 72.7881C7.09403 77.8745 6.51822 85.936 7.23799 87.3755V87.4235Z" fill="white"/>
<path opacity="0.62" d="M7.28584 87.3267C7.66972 88.0465 9.54114 87.7586 10.2609 87.3267C10.9807 86.9428 10.5968 81.7125 10.4529 77.4418C10.3089 73.1712 10.7888 67.7009 10.4529 65.8295C10.117 63.9581 9.58914 57.912 9.97302 52.4897C10.3569 47.1154 10.8367 41.2132 11.5085 36.4627C12.5162 29.6489 13.4279 23.9387 13.044 23.6988C12.6602 23.4588 10.9807 29.1211 9.92502 35.9829C8.62943 44.6682 7.28586 55.7047 7.52578 59.8314C7.7657 63.9581 8.10158 67.9408 7.62173 72.9313C7.14188 77.9697 6.56607 85.9352 7.28584 87.3267Z" fill="white"/>
<path opacity="0.67" d="M7.33384 87.1842C7.71772 87.856 9.49315 87.6161 10.2129 87.2322C10.9327 86.8483 10.5488 81.6659 10.4049 77.4433C10.3089 73.2206 10.7887 67.8463 10.4049 65.9749C10.021 64.1035 9.49315 58.2013 9.87703 52.875C10.2609 47.5487 10.6448 41.7905 11.3166 37.088C12.2763 30.61 13.188 24.8998 12.8041 24.6599C12.4682 24.42 10.8368 29.9382 9.82907 36.5122C8.53348 45.0535 7.28586 55.7541 7.52578 59.8328C7.7657 63.9115 8.10158 68.0382 7.62173 72.9807C7.14188 77.9231 6.56607 85.7926 7.28584 87.1842H7.33384Z" fill="white"/>
<path opacity="0.71" d="M7.38169 87.0369C7.76557 87.7086 9.44505 87.4687 10.1648 87.0848C10.8846 86.701 10.4527 81.5666 10.3567 77.4399C10.2608 73.3132 10.7406 67.9389 10.3567 66.1155C10.0208 64.292 9.44504 58.4859 9.78093 53.2555C10.1168 48.0252 10.5007 42.3629 11.1245 37.7084C11.9882 31.5183 12.9479 25.8081 12.612 25.5682C12.2761 25.3283 10.7406 30.7506 9.78093 37.0366C8.53333 45.4819 7.33371 55.7987 7.57363 59.8294C7.81356 63.8602 8.14943 68.1308 7.66959 73.0253C7.18974 77.9197 6.61392 85.6933 7.33369 87.0369H7.38169Z" fill="white"/>
<path opacity="0.76" d="M7.42954 86.946C7.76543 87.6177 9.44489 87.3778 10.1167 86.9939C10.8365 86.6101 10.4046 81.5237 10.3086 77.445C10.2127 73.3662 10.6925 68.0879 10.3086 66.3125C9.92475 64.537 9.3489 58.8748 9.6848 53.6924C10.0207 48.5101 10.3086 42.9918 10.9324 38.4332C11.7482 32.5791 12.7558 26.8689 12.4199 26.629C12.084 26.389 10.6445 31.6674 9.73279 37.7135C8.53317 46.0149 7.38152 55.9957 7.62145 59.9785C7.86137 63.9612 8.19729 68.3758 7.71744 73.1743C7.23759 77.9728 6.66177 85.6504 7.38154 86.946H7.42954Z" fill="white"/>
<path opacity="0.81" d="M7.47822 86.7987C7.81412 87.4705 9.39762 87.2306 10.0694 86.8467C10.7412 86.5108 10.3573 81.4244 10.2614 77.3937C10.1654 73.3629 10.6452 68.1806 10.3094 66.4051C9.97346 64.6297 9.30165 59.1114 9.68552 54.025C10.0214 48.9386 10.2134 43.5163 10.8372 39.0058C11.6049 33.4875 12.6126 27.7773 12.2767 27.5374C11.9408 27.2975 10.5972 32.4318 9.73352 38.238C8.5339 46.4434 7.47824 56.0404 7.71816 59.9752C7.95809 63.8619 8.24598 68.4685 7.81412 73.219C7.33427 77.9695 6.75845 85.5031 7.47822 86.7987Z" fill="white"/>
<path opacity="0.86" d="M7.52624 86.703C7.86213 87.3748 9.34965 87.1349 10.0214 86.751C10.6932 86.4151 10.3094 81.3767 10.1654 77.4419C10.0695 73.4592 10.5973 68.3728 10.2614 66.5974C9.92548 64.8699 9.25369 59.4956 9.58959 54.4572C9.92548 49.4188 10.0694 44.0924 10.6453 39.6778C11.365 34.4955 12.4207 28.7853 12.0848 28.5453C11.7489 28.3054 10.5013 33.3438 9.68554 38.8621C8.5339 46.9236 7.52625 56.1846 7.76618 60.0234C8.0061 63.8622 8.29399 68.6127 7.86213 73.2673C7.43026 77.9218 6.85445 85.4074 7.52624 86.655V86.703Z" fill="white"/>
<path opacity="0.9" d="M7.57423 86.5569C7.91013 87.1807 9.30169 86.9888 9.97348 86.6049C10.6453 86.269 10.2614 81.3266 10.1174 77.3918C10.0215 73.505 10.5493 68.4186 10.2134 66.6912C9.87748 64.9637 9.1577 59.7334 9.4936 54.7909C9.82949 49.8485 9.8775 44.6181 10.4533 40.2515C11.1251 35.357 12.1808 29.6468 11.8449 29.4069C11.509 29.167 10.3573 34.0615 9.58959 39.3398C8.48594 47.3053 7.52625 56.1825 7.76618 59.9733C8.0061 63.7641 8.29399 68.6586 7.86213 73.2651C7.43026 77.8717 6.85445 85.2133 7.52624 86.4609L7.57423 86.5569Z" fill="white"/>
<path opacity="0.95" d="M7.62194 86.4181C7.95783 87.0419 9.30143 86.8499 9.92523 86.4661C10.549 86.0822 10.1651 81.2357 10.0692 77.3969C9.97321 73.5581 10.501 68.5677 10.2131 66.8882C9.87723 65.2088 9.10949 60.1224 9.44539 55.2279C9.78128 50.3814 9.78128 45.247 10.3091 40.9764C10.9329 36.4178 12.0366 30.7076 11.7007 30.4677C11.3648 30.2278 10.3091 34.9783 9.58934 40.0167C8.48568 47.8382 7.62195 56.3795 7.86188 60.1224C8.1018 63.8652 8.3897 68.9036 7.95783 73.4142C7.52597 77.9247 6.95015 85.1705 7.62194 86.4181Z" fill="white"/>
<path d="M7.66979 86.3225C8.00569 86.9463 9.25329 86.7544 9.87709 86.4185C10.5489 86.0826 10.117 81.2361 10.021 77.4453C9.92507 73.6545 10.5009 68.76 10.165 67.0806C9.82913 65.4011 9.06136 60.4587 9.39725 55.6602C9.73314 50.8617 9.63719 45.8712 10.165 41.6486C10.6929 37.4259 11.8445 31.7157 11.5086 31.4758C11.1727 31.2359 10.213 35.8424 9.58919 40.5929C8.53353 48.3185 7.71776 56.4759 7.95769 60.1707C8.19761 63.8656 8.48553 69.0479 8.00568 73.5105C7.57382 77.9731 6.998 85.1229 7.66979 86.3225Z" fill="white"/>
<g opacity="0.4">
<path opacity="0.05" d="M25.0427 89.4856C24.9467 89.1977 24.9467 84.0633 25.0427 82C25.1387 77.1055 25.2826 72.5949 25.4745 72.2111C26.0503 71.0114 27.6819 71.0114 27.8258 71.2034C27.9698 71.4433 28.2097 76.0978 28.3536 81.2322C28.4016 84.8311 27.8738 89.1017 27.4419 89.4856C27.25 89.6776 25.2826 89.8695 25.1386 89.4376L25.0427 89.4856Z" fill="white"/>
<path opacity="0.1" d="M25.0906 89.3938C24.9946 89.1059 25.0426 84.1155 25.0906 82.1001C25.1865 77.3496 25.3305 72.983 25.5224 72.5991C26.0503 71.4474 27.6338 71.4474 27.8257 71.6874C27.9697 71.9273 28.2096 76.4379 28.3056 81.4283C28.3536 84.9312 27.8257 89.1539 27.3939 89.4898C27.2019 89.6817 25.2825 89.8736 25.1386 89.4418L25.0906 89.3938Z" fill="white"/>
<path opacity="0.14" d="M25.1384 89.2457C25.0424 88.9578 25.0904 84.1113 25.1384 82.096C25.2344 77.4894 25.3783 73.2188 25.5223 72.8829C26.0501 71.7792 27.5856 71.8272 27.7296 72.0191C27.8736 72.2591 28.1135 76.5777 28.2094 81.4242C28.2574 84.8791 27.7296 88.9578 27.3457 89.2937C27.1538 89.4856 25.2824 89.6776 25.1384 89.2457Z" fill="white"/>
<path opacity="0.19" d="M25.1862 89.1527C25.0902 88.8648 25.1862 84.1623 25.1862 82.1469C25.2822 77.6844 25.4261 73.5577 25.5701 73.1738C26.0499 72.1181 27.5854 72.1661 27.7294 72.406C27.8734 72.6459 28.1133 76.8206 28.2092 81.5231C28.2572 84.8821 27.7294 88.9128 27.3455 89.2487C27.1536 89.4407 25.3302 89.6326 25.1862 89.2007V89.1527Z" fill="white"/>
<path opacity="0.24" d="M25.1862 89.056C25.0902 88.768 25.1862 84.2095 25.1862 82.1941C25.2822 77.9235 25.4261 73.8927 25.5701 73.5089C26.002 72.5012 27.4895 72.5971 27.6334 72.7891C27.7774 72.981 28.0173 77.0118 28.1133 81.5703C28.1613 84.8813 27.6814 88.768 27.2976 89.1039C27.1056 89.2959 25.3302 89.4878 25.1862 89.056Z" fill="white"/>
<path opacity="0.29" d="M25.235 88.9588C25.1391 88.6709 25.235 84.2562 25.235 82.2409C25.331 78.1142 25.4269 74.1794 25.6189 73.8435C26.0508 72.8838 27.4903 72.9798 27.6343 73.2197C27.7782 73.4117 28.0182 77.2984 28.1141 81.6651C28.1141 84.928 27.6822 88.6709 27.3463 89.0067C27.1544 89.1987 25.4269 89.3906 25.283 88.9588H25.235Z" fill="white"/>
<path opacity="0.33" d="M25.2823 88.8142C25.1864 88.5263 25.2823 84.2077 25.2823 82.2403C25.3783 78.2575 25.4743 74.4667 25.6182 74.1308C26.0021 73.2191 27.4417 73.3631 27.5856 73.555C27.7296 73.7469 27.9695 77.4418 28.0175 81.7124C28.0175 84.8794 27.5856 88.5743 27.2497 88.8622C27.0578 89.0061 25.3783 89.2461 25.2344 88.8142H25.2823Z" fill="white"/>
<path opacity="0.38" d="M25.2823 88.7207C25.1863 88.4328 25.2823 84.2581 25.3303 82.2907C25.4262 78.4519 25.5222 74.8051 25.6662 74.4692C26.05 73.5575 27.3936 73.7494 27.5376 73.9413C27.6815 74.1333 27.9215 77.6362 27.9695 81.7629C27.9695 84.8819 27.5376 88.4328 27.2497 88.7207C27.0577 88.8646 25.4262 89.1046 25.2823 88.6727V88.7207Z" fill="white"/>
<path opacity="0.43" d="M25.3301 88.6243C25.2342 88.3364 25.3301 84.3057 25.3781 82.3863C25.4741 78.7394 25.5701 75.1885 25.714 74.8046C26.0499 73.9409 27.3935 74.1808 27.5374 74.3728C27.6814 74.5647 27.9213 77.9237 27.9693 81.9064C27.9693 84.9295 27.5854 88.4324 27.2495 88.6723C27.0576 88.8162 25.4261 89.0562 25.3301 88.6243Z" fill="white"/>
<path opacity="0.48" d="M25.379 88.4811C25.283 88.1932 25.379 84.3064 25.4269 82.387C25.5229 78.8841 25.6189 75.4292 25.7628 75.0933C26.0987 74.2775 27.3943 74.5175 27.4903 74.7094C27.5862 74.9013 27.8742 78.0683 27.9221 81.9071C27.9221 84.8822 27.5383 88.2411 27.2504 88.5291C27.1064 88.673 25.4749 88.9129 25.379 88.4811Z" fill="white"/>
<path opacity="0.52" d="M25.3786 88.3842C25.2827 88.1443 25.3786 84.3535 25.4746 82.4341C25.5705 79.0752 25.6665 75.7642 25.7625 75.4283C26.0504 74.6605 27.298 74.9005 27.442 75.1404C27.5859 75.3323 27.8258 78.3554 27.8738 82.0022C27.8738 84.9293 27.4899 88.1443 27.202 88.4322C27.0581 88.5762 25.4746 88.8161 25.3786 88.3842Z" fill="white"/>
<path opacity="0.57" d="M25.4265 88.285C25.3305 88.0451 25.4265 84.3982 25.5224 82.4788C25.6184 79.2638 25.7144 76.0968 25.8103 75.7609C26.0982 75.0411 27.2979 75.3291 27.4418 75.521C27.5858 75.7129 27.8257 78.544 27.8257 82.0949C27.8257 84.926 27.4418 88.093 27.2019 88.333C27.0579 88.4769 25.5224 88.7168 25.4265 88.285Z" fill="white"/>
<path opacity="0.62" d="M25.4747 88.1448C25.3787 87.9049 25.5227 84.402 25.5707 82.4826C25.6666 79.4116 25.7146 76.3406 25.8586 76.0527C26.0985 75.3809 27.2981 75.6688 27.3941 75.9087C27.538 76.1006 27.778 78.7878 27.778 82.1467C27.778 84.9299 27.442 87.9529 27.2021 88.1928C27.0582 88.3368 25.5706 88.5287 25.4747 88.1448Z" fill="white"/>
<path opacity="0.67" d="M25.5225 88.0478C25.4265 87.8079 25.5705 84.4489 25.6185 82.5295C25.7144 79.6504 25.7625 76.6754 25.9064 76.3875C26.1463 75.7637 27.25 76.0996 27.3939 76.2915C27.5379 76.4834 27.7778 78.9786 27.7778 82.2416C27.7778 84.9288 27.4419 87.9038 27.202 88.0958C27.058 88.2397 25.6185 88.4317 25.5225 88.0478Z" fill="white"/>
<path opacity="0.71" d="M25.5229 87.9507C25.4269 87.7108 25.5708 84.4958 25.6668 82.6244C25.7628 79.8892 25.8108 77.0581 25.9547 76.7222C26.1466 76.1464 27.2503 76.4823 27.3943 76.7222C27.4902 76.9142 27.7782 79.2175 27.7782 82.3365C27.7782 84.9756 27.4423 87.8067 27.2503 87.9987C27.1064 88.1426 25.7148 88.3346 25.6188 87.9507H25.5229Z" fill="white"/>
<path opacity="0.76" d="M25.5704 87.8576C25.4745 87.6177 25.6664 84.5466 25.7144 82.6752C25.8104 80.084 25.8583 77.3969 25.9543 77.061C26.1462 76.5332 27.2019 76.917 27.2979 77.061C27.3939 77.2049 27.6818 79.4122 27.6818 82.3873C27.6818 84.9785 27.3459 87.6656 27.1539 87.9056C27.01 88.0495 25.6664 88.2415 25.5704 87.8576Z" fill="white"/>
<path opacity="0.81" d="M25.6181 87.7097C25.5701 87.4698 25.7141 84.5427 25.762 82.6713C25.858 80.2241 25.906 77.6329 26.0019 77.345C26.1459 76.8651 27.1536 77.249 27.2976 77.441C27.4415 77.6329 27.6814 79.6003 27.6814 82.4314C27.6814 84.9266 27.3935 87.5658 27.2016 87.7577C27.0576 87.9017 25.762 88.0936 25.666 87.7097H25.6181Z" fill="white"/>
<path opacity="0.86" d="M25.6183 87.6164C25.5703 87.3765 25.7143 84.5454 25.7623 82.722C25.8582 80.4667 25.9062 77.9715 26.0022 77.6836C26.1461 77.2517 27.1058 77.6836 27.2018 77.8755C27.2978 78.0674 27.5857 79.8909 27.5377 82.53C27.5377 84.9773 27.2498 87.4725 27.0578 87.6644C26.9139 87.8084 25.6663 88.0003 25.5703 87.6164H25.6183Z" fill="white"/>
<path opacity="0.9" d="M25.6668 87.5182C25.6188 87.2783 25.7627 84.5911 25.8587 82.7677C25.9547 80.6564 26.0027 78.3051 26.0986 78.0172C26.1946 77.6333 27.1543 78.0652 27.2503 78.2571C27.3462 78.4491 27.5862 80.0805 27.5862 82.6237C27.5862 85.023 27.2982 87.4222 27.1543 87.5662C27.0103 87.7101 25.8107 87.9021 25.7148 87.5182H25.6668Z" fill="white"/>
<path opacity="0.95" d="M25.7146 87.3779C25.6666 87.138 25.8106 84.5948 25.9066 82.7713C26.0025 80.804 26.0505 78.5967 26.0985 78.2608C26.1945 77.9249 27.0582 78.4047 27.2021 78.5967C27.2981 78.7886 27.538 80.2761 27.538 82.6274C27.538 84.9307 27.2501 87.2339 27.1541 87.3779C27.0102 87.5218 25.8586 87.7138 25.7626 87.3299L25.7146 87.3779Z" fill="white"/>
<path d="M25.7625 87.2798C25.7145 87.0399 25.9064 84.6406 25.9544 82.8652C26.0504 81.0418 26.0984 78.9304 26.1464 78.6425C26.2423 78.3546 27.0581 78.8345 27.1541 79.0264C27.25 79.2183 27.4899 80.5139 27.4899 82.7692C27.4899 85.0245 27.25 87.1838 27.1061 87.3758C26.9621 87.5197 25.8585 87.7117 25.7625 87.3278V87.2798Z" fill="white"/>
</g>
<defs>
<linearGradient id="paint0_linear_44_15619" x1="14.9636" y1="0.227173" x2="14.9636" y2="94.5175" gradientUnits="userSpaceOnUse">
<stop stop-color="#C4B5A8"/>
<stop offset="0.43" stop-color="#988F88"/>
<stop offset="1" stop-color="#C4C0B4"/>
</linearGradient>
<linearGradient id="paint1_linear_44_15619" x1="14.9629" y1="0.181381" x2="14.9629" y2="94.5197" gradientUnits="userSpaceOnUse">
<stop stop-color="#C4B5A8"/>
<stop offset="0.43" stop-color="#988F88"/>
<stop offset="1" stop-color="#C4C0B4"/>
</linearGradient>
<linearGradient id="paint2_linear_44_15619" x1="14.9634" y1="0.131696" x2="14.9634" y2="94.518" gradientUnits="userSpaceOnUse">
<stop stop-color="#C4B5A8"/>
<stop offset="0.43" stop-color="#988F88"/>
<stop offset="1" stop-color="#C4C0B4"/>
</linearGradient>
<linearGradient id="paint3_linear_44_15619" x1="15.0112" y1="0.0368226" x2="15.0112" y2="94.5191" gradientUnits="userSpaceOnUse">
<stop stop-color="#C4B5A8"/>
<stop offset="0.43" stop-color="#988F88"/>
<stop offset="1" stop-color="#C4C0B4"/>
</linearGradient>
<linearGradient id="paint4_linear_44_15619" x1="15.011" y1="-0.0100656" x2="15.011" y2="94.5202" gradientUnits="userSpaceOnUse">
<stop stop-color="#C4B5A8"/>
<stop offset="0.43" stop-color="#988F88"/>
<stop offset="1" stop-color="#C4C0B4"/>
</linearGradient>
<linearGradient id="paint5_linear_44_15619" x1="15.0109" y1="-0.0558569" x2="15.0109" y2="94.5224" gradientUnits="userSpaceOnUse">
<stop stop-color="#C4B5A8"/>
<stop offset="0.43" stop-color="#988F88"/>
<stop offset="1" stop-color="#C4C0B4"/>
</linearGradient>
<linearGradient id="paint6_linear_44_15619" x1="15.0113" y1="-0.154636" x2="15.0113" y2="94.5195" gradientUnits="userSpaceOnUse">
<stop stop-color="#C4B5A8"/>
<stop offset="0.43" stop-color="#988F88"/>
<stop offset="1" stop-color="#C4C0B4"/>
</linearGradient>
<linearGradient id="paint7_linear_44_15619" x1="15.0113" y1="-0.201524" x2="15.0113" y2="94.5206" gradientUnits="userSpaceOnUse">
<stop stop-color="#C4B5A8"/>
<stop offset="0.43" stop-color="#988F88"/>
<stop offset="1" stop-color="#C4C0B4"/>
</linearGradient>
<linearGradient id="paint8_linear_44_15619" x1="15.0116" y1="-0.250378" x2="15.0116" y2="94.5198" gradientUnits="userSpaceOnUse">
<stop stop-color="#C4B5A8"/>
<stop offset="0.43" stop-color="#988F88"/>
<stop offset="1" stop-color="#C4C0B4"/>
</linearGradient>
<linearGradient id="paint9_linear_44_15619" x1="15.0116" y1="-0.297265" x2="15.0116" y2="94.5209" gradientUnits="userSpaceOnUse">
<stop stop-color="#C4B5A8"/>
<stop offset="0.43" stop-color="#988F88"/>
<stop offset="1" stop-color="#C4C0B4"/>
</linearGradient>
<linearGradient id="paint10_linear_44_15619" x1="15.0118" y1="-0.394934" x2="15.0118" y2="94.5192" gradientUnits="userSpaceOnUse">
<stop stop-color="#C4B5A8"/>
<stop offset="0.43" stop-color="#988F88"/>
<stop offset="1" stop-color="#C4C0B4"/>
</linearGradient>
<linearGradient id="paint11_linear_44_15619" x1="15.059" y1="-0.441822" x2="15.059" y2="94.5203" gradientUnits="userSpaceOnUse">
<stop stop-color="#C4B5A8"/>
<stop offset="0.43" stop-color="#988F88"/>
<stop offset="1" stop-color="#C4C0B4"/>
</linearGradient>
<linearGradient id="paint12_linear_44_15619" x1="15.0595" y1="-0.491518" x2="15.0595" y2="94.5186" gradientUnits="userSpaceOnUse">
<stop stop-color="#C4B5A8"/>
<stop offset="0.43" stop-color="#988F88"/>
<stop offset="1" stop-color="#C4C0B4"/>
</linearGradient>
<linearGradient id="paint13_linear_44_15619" x1="15.0597" y1="-0.58639" x2="15.0597" y2="94.5197" gradientUnits="userSpaceOnUse">
<stop stop-color="#C4B5A8"/>
<stop offset="0.43" stop-color="#988F88"/>
<stop offset="1" stop-color="#C4C0B4"/>
</linearGradient>
<linearGradient id="paint14_linear_44_15619" x1="15.0595" y1="-0.633277" x2="15.0595" y2="94.5208" gradientUnits="userSpaceOnUse">
<stop stop-color="#C4B5A8"/>
<stop offset="0.43" stop-color="#988F88"/>
<stop offset="1" stop-color="#C4C0B4"/>
</linearGradient>
<linearGradient id="paint15_linear_44_15619" x1="15.0598" y1="-0.680176" x2="15.0598" y2="94.5218" gradientUnits="userSpaceOnUse">
<stop stop-color="#C4B5A8"/>
<stop offset="0.43" stop-color="#988F88"/>
<stop offset="1" stop-color="#C4C0B4"/>
</linearGradient>
<linearGradient id="paint16_linear_44_15619" x1="15.0597" y1="-0.731813" x2="15.0597" y2="94.5182" gradientUnits="userSpaceOnUse">
<stop stop-color="#C4B5A8"/>
<stop offset="0.43" stop-color="#988F88"/>
<stop offset="1" stop-color="#C4C0B4"/>
</linearGradient>
<linearGradient id="paint17_linear_44_15619" x1="15.0592" y1="-0.826685" x2="15.0592" y2="94.5193" gradientUnits="userSpaceOnUse">
<stop stop-color="#C4B5A8"/>
<stop offset="0.43" stop-color="#988F88"/>
<stop offset="1" stop-color="#C4C0B4"/>
</linearGradient>
<linearGradient id="paint18_linear_44_15619" x1="15.1073" y1="-0.874681" x2="15.1073" y2="94.5193" gradientUnits="userSpaceOnUse">
<stop stop-color="#C4B5A8"/>
<stop offset="0.43" stop-color="#988F88"/>
<stop offset="1" stop-color="#C4C0B4"/>
</linearGradient>
<linearGradient id="paint19_linear_44_15619" x1="15.1076" y1="-0.923266" x2="15.1076" y2="94.5187" gradientUnits="userSpaceOnUse">
<stop stop-color="#C4B5A8"/>
<stop offset="0.43" stop-color="#988F88"/>
<stop offset="1" stop-color="#C4C0B4"/>
</linearGradient>
<linearGradient id="paint20_linear_44_15619" x1="15.1073" y1="94.9996" x2="15.1073" y2="-0.490298" gradientUnits="userSpaceOnUse">
<stop stop-color="#C4B5A8"/>
<stop offset="0.43" stop-color="#988F88"/>
<stop offset="1" stop-color="#C4C0B4"/>
</linearGradient>
</defs>
</svg>
