<svg width="10" height="10" viewBox="0 0 10 10" fill="none" xmlns="http://www.w3.org/2000/svg">
<path d="M1.60041 0.274587C1.2343 -0.0915291 0.640704 -0.0915291 0.274587 0.274587C-0.0915291 0.640704 -0.0915291 1.2343 0.274587 1.60041L3.67418 5L0.274587 8.39959C-0.0915291 8.7657 -0.0915291 9.3593 0.274587 9.72541C0.640704 10.0915 1.2343 10.0915 1.60041 9.72541L5 6.32582L8.39959 9.72541C8.7657 10.0915 9.3593 10.0915 9.72541 9.72541C10.0915 9.3593 10.0915 8.7657 9.72541 8.39959L6.32582 5L9.72541 1.60041C10.0915 1.2343 10.0915 0.640704 9.72541 0.274587C9.3593 -0.0915291 8.7657 -0.0915291 8.39959 0.274587L5 3.67418L1.60041 0.274587Z" fill="#D72A2A"/>
</svg>
