<svg width="16" height="16" viewBox="0 0 16 16" fill="none" xmlns="http://www.w3.org/2000/svg">
<g clip-path="url(#clip0_2211_1988)">
<path d="M14.6666 7.3882V8.00154C14.6658 9.43915 14.2003 10.838 13.3395 11.9894C12.4787 13.1409 11.2688 13.9832 9.89016 14.3908C8.51154 14.7984 7.03809 14.7495 5.68957 14.2513C4.34104 13.753 3.18969 12.8323 2.40723 11.6262C1.62476 10.4202 1.25311 8.99358 1.3477 7.55908C1.44229 6.12458 1.99806 4.75909 2.93211 3.66625C3.86615 2.57342 5.12844 1.81179 6.53071 1.49497C7.93298 1.17814 9.4001 1.3231 10.7133 1.9082" stroke="#16A34A" stroke-width="1.25" stroke-linecap="round" stroke-linejoin="round"/>
<path d="M14.6667 2.66699L8 9.34032L6 7.34032" stroke="#16A34A" stroke-width="1.25" stroke-linecap="round" stroke-linejoin="round"/>
</g>
<defs>
<clipPath id="clip0_2211_1988">
<rect width="16" height="16" fill="white"/>
</clipPath>
</defs>
</svg>
